<mxfile host="app.diagrams.net" modified="2023-04-04T14:03:09.935Z" agent="Mozilla/5.0 (Macintosh; Intel Mac OS X 10_15_7) AppleWebKit/537.36 (KHTML, like Gecko) Chrome/111.0.0.0 Safari/537.36" etag="C2lc3CU8EBz73UUuC5LF" version="21.1.4" type="device">
  <diagram name="Page-1" id="6kTmL3TT7-THUaPmhk9t">
    <mxGraphModel dx="954" dy="647" grid="1" gridSize="10" guides="1" tooltips="1" connect="1" arrows="1" fold="1" page="1" pageScale="1" pageWidth="1169" pageHeight="827" math="0" shadow="0">
      <root>
        <mxCell id="0" />
        <mxCell id="1" parent="0" />
        <mxCell id="lMRZlrQa5z_mroCtVpvL-1" value="" style="shape=image;verticalLabelPosition=bottom;labelBackgroundColor=default;verticalAlign=top;aspect=fixed;imageAspect=0;image=data:image/png,iVBORw0KGgoAAAANSUhEUgAAA2QAAAJDCAIAAADrVEClAAAAGXRFWHRTb2Z0d2FyZQBBZG9iZSBJbWFnZVJlYWR5ccllPAAAA2RpVFh0WE1MOmNvbS5hZG9iZS54bXAAAAAAADw/eHBhY2tldCBiZWdpbj0i77u/IiBpZD0iVzVNME1wQ2VoaUh6cmVTek5UY3prYzlkIj8+IDx4OnhtcG1ldGEgeG1sbnM6eD0iYWRvYmU6bnM6bWV0YS8iIHg6eG1wdGs9IkFkb2JlIFhNUCBDb3JlIDUuMC1jMDYwIDYxLjEzNDc3NywgMjAxMC8wMi8xMi0xNzozMjowMCAgICAgICAgIj4gPHJkZjpSREYgeG1sbnM6cmRmPSJodHRwOi8vd3d3LnczLm9yZy8xOTk5LzAyLzIyLXJkZi1zeW50YXgtbnMjIj4gPHJkZjpEZXNjcmlwdGlvbiByZGY6YWJvdXQ9IiIgeG1sbnM6eG1wTU09Imh0dHA6Ly9ucy5hZG9iZS5jb20veGFwLzEuMC9tbS8iIHhtbG5zOnN0UmVmPSJodHRwOi8vbnMuYWRvYmUuY29tL3hhcC8xLjAvc1R5cGUvUmVzb3VyY2VSZWYjIiB4bWxuczp4bXA9Imh0dHA6Ly9ucy5hZG9iZS5jb20veGFwLzEuMC8iIHhtcE1NOk9yaWdpbmFsRG9jdW1lbnRJRD0ieG1wLmRpZDpCM0Q2MDE5QTNEOUJFNDExODc4NUY3QUVBNDEyMTE2RCIgeG1wTU06RG9jdW1lbnRJRD0ieG1wLmRpZDpCRTc1MjI3NUUxMjAxMUU1ODVFMEQ5QTc1ODVGN0FFQyIgeG1wTU06SW5zdGFuY2VJRD0ieG1wLmlpZDpCRTc1MjI3NEUxMjAxMUU1ODVFMEQ5QTc1ODVGN0FFQyIgeG1wOkNyZWF0b3JUb29sPSJBZG9iZSBQaG90b3Nob3AgQ1M1IFdpbmRvd3MiPiA8eG1wTU06RGVyaXZlZEZyb20gc3RSZWY6aW5zdGFuY2VJRD0ieG1wLmlpZDpEQUM4MTEzMjlDRTBFNTExQkRFMTgxOUUwRDIxODdBNiIgc3RSZWY6ZG9jdW1lbnRJRD0ieG1wLmRpZDpCM0Q2MDE5QTNEOUJFNDExODc4NUY3QUVBNDEyMTE2RCIvPiA8L3JkZjpEZXNjcmlwdGlvbj4gPC9yZGY6UkRGPiA8L3g6eG1wbWV0YT4gPD94cGFja2V0IGVuZD0iciI/Pikve9YAAHLkSURBVHja7N0HYBTVogbgU2a2pRAIIEoLQZAuHRFBehEbKthRvIoFGyj2dq+9XH32ei2gqKDSLahI7x3phBYgtPRk28yc82ZmQ1Epm82mbPi/l+cNyezu7NmTnX9PpVJKAgAAAABwPBRhEQAAAAAQFgEAAAAAYREAAAAAEBYBAAAAAGERAAAAABAWAQAAAABhEQAAAAAQFgEAAAAAYREAAAAAEBYBAAAAAGERAAAAAABhEQAAAAAQFgEAAAAAYREAAAAAEBYBAAAAAGERAAAAABAWAQAAAABhEQAAAAAQFgEAAAAAYREAAAAAEBYBAAAAABAWAQAAAABhEQAAAAAQFgEAAAAAYREAAAAAEBYBAAAAAGERAAAAABAWAQAAAABhEQAAAAAQFgEAAAAAYREAAAAAAGERAAAAABAWAQAAAABhEQAAAAAQFgEAAAAAYREAAAAAEBYBAAAAAGERAAAAABAWAQAAAABhEQAAAAAQFgEAAAAAYREAAAAAAGERAAAAABAWAQAAAABhEQAAAAAQFgEAAAAAYREAAAAAEBYBAAAAAGERAAAAABAWAQAAAABhEQAAAAAQFgEAAAAAEBYBAAAAAGERAAAAABAWAQAAAABhEQAAAAAQFgEAAAAAYREAAAAAEBYBAAAAAGERAAAAABAWAQAAAABhEQAAAAAAYREAAAAAEBYBAAAAAGERAAAAABAWAQAAAABhEQAAAAAQFgEAAAAAYREAAAAAEBYBAAAAAGERAAAAABAWAQAAAABhEQAAAAAAYREAAAAAEBYBAAAAAGERAAAAABAWAQAAAABhEQAAAAAQFgEAAAAAYREAAAAAEBYBAAAAAGERAAAAABAWAQAAAAAQFgEAAAAAYREAAAAAEBYBAAAAAGERAAAAABAWAQAAAABhEQAAAAAQFgEAAAAAYREAAAAAEBYBAAAAAGERAAAAAABhEQAAAAAQFgEAAAAAYREAAAAAEBYBAAAAAGERAAAAABAWAQAAAABhEQAAAAAQFgEAAAAAYREAAAAAEBYBAAAAAGERAAAAAABhEQAAAAAQFgEAAAAAYREAAAAAEBYBAAAAAGERAAAAABAWAQAAAABhEQAAAAAQFgEAAAAAYREAAAAAEBYBAAAAABAWAQAAAABhEQAAAAAQFgEAAAAAYREAAAAAEBYBAAAAAGERAAAAABAWAQAAAABhEQAAAAAQFgEAAAAAYREAAAAAAGERAAAAABAWAQAAAABhEQAAAAAQFgEAAAAAYREAAAAAEBYBAAAAAGERAAAAABAWAQAAAABhEQAAAAAQFgEAAAAAYREAAAAAAGERAAAAABAWAQAAAABhEQAAAAAQFgEAAAAAYREAAAAAEBYBAAAAAGERAAAAABAWAQAAAABhEQAAAAAQFgEAAAAAEBYBAAAAAGERAAAAABAWAQAAAABhEQAAAAAQFgEAAAAAYREAAAAAEBYBAAAAAGERAAAAABAWAQAAAABhEQAAAAAAYREAAAAAEBYBAAAAAGERAAAAABAWAQAAAABhEQAAAAAQFgEAAAAAYREAAAAAEBYBAAAAAGERAAAAABAWAQAAAABhEaUAAAAAAAiLAAAQY/zZ+7SNfwTT5hq+PEKJ6krgqReoDTu7z0hF4QAgLAIAwOmrYMNs/5z3jEM7aG46MwIGVTgxiJTmNyz+DN6sn7P91XGp7VFQAAiLAABwegkSUjjxaW3ZGBEMUmlwoQlCzIwozWsWpUwShehmaiSeao5Wl3mufF7lDhQaAMIiAACcFjQi88fdry3/ipn/kFIQplOFEsmJboZF8xvzyiUIN/9HJYYZInmzgYmX/8eRXA9FB4CwCAAAlVyQkIJx9wZXfqcTxoRu/oQRcdwjzeBo/srMjgZVSL1O1a55w1kToxgBEBYBAKBSy5r4VHD+R0HqdBpeRQZ15jBD4QmuXsL8laAKI4ZCDFa7pefmL13V6qAMARAWAQCgcsr79W1jxrMByYgwODH8zKNInZ6gZTEk1DHNpCGY6jqnZ9xt41SUI0C0MRQBAACUO+/2FcF57/glF5JwIjTq4FLnUjvR8fawRWoeY36vU1VKGdg8K3fG2yhJAIRFAACojGHx9zdkYZawBykalJv/Nb8E5Se+ehmUyNAB5pFWapSGMe/dwrSlKEwAhEUAAKhUClb/pG9faGY/VWgR3FwSqlEHFYYsyAzM/VBHgQIgLAIAQGXiWzpO8Wf6qUtQGtk9cGlIQnTu0tdNL5z1MYoUAGERAAAqiYK0JfrOJZIwZs24jOSqRImkREjKqNDN+9AWfxYoyETBAiAsAgBAZRBcOZl5swzCFalFfCfS2tiFWvcghbZ/S+G051CwAAiLAAAQ8zQpjN3LmN37LGlog5YImbe1I6N5ZVP0tVPzN8xB8QIgLAIAQGwLbJgj9m8S0b2wCU3687wzXjZ0P0oYAGERAABimL5tAQkURHd3CGYv06jvXF7w23soYQCERQAAiGHG3rWM0SjfJ1W41JzM8C0b59ufhkIGQFgEAICYpPty9YNpItpXIiqtDQB1SUj2Lu+MV1HOAAiLAAAQk/x7t5DCg4TI6N6ttJbSMa9ulFGibZhRsPYXFDUAwiIAAMQembWTBH3RzorEmhhts7aZDuYHfn1J03wobQCERQAAiDH63nVUalHPipJQeTgvSkkCezcV/PouShsAYREAAGKMcWAzOybYlQJrTxhFGvqSMf6DO1DgAAiLAAAQMzQzyVkDFimJdli0d/8LtVdSSakg0sjfXzDjdZQ5AMIiAADETlg8uEvkZggr24lSfSBBmEEVtvrbvGWTUOwACIsAABAbRMZG4c0uzT7oIlzqXGoBQb3zP9ZLYTYNAMIiAABA9MmMjVQPFCss0oguWtYa3UKnUoqdywt+fgMlD4CwCAAAMUA7lGYwB5da2ElRCk91VqUWkwaVJPyUad7QYNxMpwoT+pIxvgPbUfgACIsAAFDRyby9qtQMqoR7uaJEbdgl6Z7pes2m5rWLyXBHOtqTXaxkaS2jk7vP+8vLKHyAYlFQBAAAUMY0X56RuV2RQR9xc6KHcxNDUGfVOkrVuvHdRuRPe8zlz9WKeQkzM6ODaNr6n/JXTE1oe0mFLZzgvk3BQ+lG3n79wFYqdCIFt3YwdCo1G7I6rTz1WqH+AMIiAABUcv59abTwgE4URoxwjqeUEK6wum3N7xPPv9a/YYa+/scI9gk0H1HVvN4/3vS06MkdcRWnQAKZ6cG0JXr68uD+rWLfn8yfIwyDWY2iTFDGrZ533UcU7k4sqNvO2XxAXKfBiupGRQKERQAAqJxEzl6pG/bUk6Cw93E+8bEylBWJK8FRq3HoR3FdbsndscDpzdQIl0RSSa21vcNjSMr2/Zk3b2zVnneUbyFoAW8wfa22aZa+c5GRuYPkH6BGQCFSo4o0Q6K9orh5vqoImAUlCDeDNfVlkS2/Bbb+EVgzOa7nfXFNuqEuAcIiAABUQjJjvTA0Qrn9rxMmRWoNTLSjoPkPdzU16YyisNikq7/lxcbCsYJxQjUupKDhzndhUtelky76xNv+Kk9i9TJ+4kF/YXDHCpE235u9l2asYZlbRdBHmEqtjaytJSGtkZh2SDwSfkPDOqn1U2rYIzDNg/m2OYUHt4orXkto2QfVCRAWAQCg0oVFbyanUjfjUVFePL7Qb0PbsdDkBoon6civ4nrcnbN1Ic9ME1bDYtjNipQrQqPSMA7t8P/yqmdwWUx2CZpPZNdqfeNsLTNN37Vc5OzWgkGXDFi7y1AuqGrmwGKtNmnGRt0M2nl7tIkjvdV/8JzZGDUKEBYBAKASJUUigrvX8NC3pziSmkmRmdmOcEfNv0QiV40Gnm7DtckP64JrzNoAOpyH5jLUNscM7iDLv8qv3yGh41WlFBDlwZ2BnSv0HYvJjgV69t6gv1A1w6HVaS4cUupU0Qk3/6UQM7yaibfYi5PoVKU5+wLzPvYMfhWVChAWAQCg8tAO7Za5e2RoE+eT5iQ7KVoHmGGRxdf4229dF9wcXD2ZbFuiSr8kPJyHptaIQAcnBjUMKpl3/ofuNgOjOFMkmLXHl77W2LZI7Fyk5e4jhYeIoTHKpJQKEUQIg3JqrQIkrHUfrWng0u5nj2gZO/NOKTW2LfR7c12eKqhXgLAIAACVJSxmZ9BggZWQrMkp7KTZTuhUdcoA9cQrDTr+7bcOQty9Rnr3DJOBYPjzoikpWndREGnsXuf9/b3E/g+UKCAKQ0tbYmye49+5lBzaQvIPSDMTUsqtp2cNNCTWXGYr8ppfTBpWwqPWNHBqp72IH5fZraRG7l5921LSojfqFSAsAgBAZQmLB9NIsFCGke8kYYwIaf7HEeeoUf+fB8Q16aa1GFi4fLxiTxAJLywWTZox710hesHiL9VGXd0NOxYvIEpi7P5T27pA275QHNoqc/cKXy5nZvyz7lmSopnMR+fuHM7EoXDMis6hRPtiW6HTvJdAvszNQKUChEUAAKg85O6VVBgirP36qDVgkXLqTuInmLnsHvCItnORzNwhi73qohnZqJK/xzfjFfed34WVETM2BbYt8+9YYhzcIjO3EV+ONeqQCEGseSpSWkMSi7/4YwlKkjBOdGzFBgiLAABQqYj9Gyml4YQqMykKyhmRLDmVn2B/WmfVsxzdR/onP0x1f3HzIpVCow65c3HByunxbQYe95hAzj5t+zJ9y2z9wGZ5cLPuzTVvZUY08786UYJUIVJxyIBihVpFUEbLKi2GWjDN8xeKC5UKEBYBAKCS0PSAKDgYfpexoCoTQbXmyVaH8XS+Vlv3o1j/8+EVaFiYm7vYE2h0rhm+RZ852gx0HP55UA8G1/+hpa8WOxeKg2m6L0cxkyihghTtSa1bi4Er5umpIkCtickOQZ2MGPY4Qlo2JWk+Q04MPaG2WrsZ6hUgLAIAQCWh79siww6L0uqGttbP4dVTTnKYSoir5/2+7UtkMIcIye3+4LDu324INMxwuW1+4fiHjNaXBjPTg1vnkYzVInsXCfrs4GcNMzQOr5Mt7d5zax536J/UTI3EiomhfQvLKikSqw+dO6jmSq7rqtMc9QoQFgEAoJIQhbnSCIZ5sKRmmhPMXZXXOufkR8anttM6DDbm/I9SoTPJitMVbE2OFoZ/8Rf+5d9QoZl3ENoyxsyFUlbckuTECAgWl9oFlQpKG8bFAgBA2dEPpklDD3NcnyAKN/9TrQGrd+4pD47rcbeSXF+1WviK3bxntw4KVSswk6IgzAh/q+lyvH6bSbpqXWeHIahUgLAIAACVh0hfwYQRZhQTlFIpqOpysVNfrRxVaikX3uVX4pSIgp4kVKOqThS771sQUqHjIrV6xqXSfICzRgoqFSAsAgBA5SGzd0rKwzyY2gvRyKS6YR6fdMFQR5Oesmiwoy4JE4SHf26MCGtzFxJaK5tWxNKzg6yVZSljyQ3jut6GGgUIiwAAUHn4Dc3w5VFihHk8J7pBuJKcEv5DuLvdqXgSzCylhaYnW1vqFSOKkaIlaSooLnWNOnTmcFDh6H6vC82KgLAIAACVidz9p8jZQ+zVZ8LLRoZmBqMaZ4f/EHENO/KOwxSpCXtvPWv36QrZRhgZg1prOgqq0HbXJZ1/HWoUICwCAEClIvanUV+2mXXCvQGl1BHHz2hYrEdxDRitNOjslgFJmKS0MhWgtZ8Nc7hTO3iGvIbqBAiLAABQ2WiHthPdr4e9apugnMdVU85sXLywqDiUzrcajgQzlXJplHa3sjXGkYTaLw8vvmiGuqLmTHuVSHtBR04kiyi42uv3yKIxlJTRpDNdA55wMKx8BwiLAABQ6Yh96ww1jstwxxFa606744niLO4DJbS7jDXpq5KgTks9VBmEm1/Cup5ac7eZNMwnyOx1we2AaIU9yhRW5SxRowln3IqPRfnv1OyDzJCpc2FIxpmnqufyV+JS2qAuQVnCRxMAACgLQfMrK90MUuJIO9mpUCJkrZaRXag8XW/L2zpb9WUZpTxfxUyHTuk3H0RjziBzcSIUoktJNTOnepLik2uT5pc6qzegDc+Xuen5Hw1RCg9pVGUkrIGbXArNapT0MK6pZuTsOSqhRW/UJUBYBACASkhk7ZHeLCaFGaRkGFnROoRxJfW8yB4uLrW9v83V2vwPrMRZinNcrK7nAPeYYVGROpVB4ogTyU153Xaes5rxlPa8Tkun/eCBgszA1KeFN0+jHpdRaITXjywJU6Rm3jdVmNr1/io9bkdFAoRFAAConPS9G1jhIUHMpMjC6YSllFBnnPNUG/2dROLFD2elL2fpS0qjcZGG9gQkTCPMwSVNqsvqdlDqtlbqt3WltGV/jac6IXnjR3u3LneLAOFct1sWw4mw0noUVTLD0/mOhIGjUYsAYREAACotsW+j0PyUUmtF6fBG7FGHmyZUj/gRVYfH0+Fa755VilaoMYc910SeZL6LIIwRI7QhtM5Ue/ShISiTZr6TmpVxqfn/QlBVCoMSRhPPINVTPbXbOFPPUxt2VD1JJ7rn/F/eoBumuYk0mKrKYGgc44kONh83yFyqsAZcOqwOboU1Gei+9BlUIUBYBACASh0W8w8wWrQLc1hJ0fyqUptXq12SB3Wff713zTSy5TeNOuKMfD9z8xMsCW6eWigaGtSatewQAfObIHNyonOpG8xpZjhBFBFfnSbVdtZp7WjUlTbo4Ek8dZbNnfmBNvd9w5oMLQ5Plz5Zm6JBFfOxFBkMMJdBHUqNxgmX/0ehqEGAsAgAAJWadmCL1aQopDWIkJ56LQ5rq7/qjUp4lTJvnthnZOaBzZ7cHXbyO/HmMbIoxpl5TpWawcx4Jl0kqBPFUFxK0llK7dZqowt5agf1jLPDP6uC1T9qv7/K/dkGUcNN1YSbSdGMiU4SVJNqO6563ZlcD/UHEBYBAKDSMqTh2zQ/uGetEgqBYU83oYlnlfzR3Q07xne+Sfv5P9YueYb/RMt0WztWU+KwlvWRgjsN1aPEVWFntvQ06a3UauJOOZcytbgPXZi2tHDaMyyQZyZOa2ZPeCuEq9KvU4eZpx3V6qiXvRzfsAOqECAsAgBAJRSUQt+yMLDht8DWOUp+hizIotQwE6Cg7JQLZZupysxWvErNqJxJXI87sldPcu7789hZ2NJu57R3ibEezpCSKC5SpRY5q7XauGdC1dpq7SZKQo2IH9Sfe6Bw6pM0a7sg5tNWOD3l6pJHYrRZQJJz6uj8r4TmPVCRAGERAAAqV0YsyAxuX65tnqVtmysyd1LNxygVUirW1BZrlvApkqIV6CRjwnBWZSkdo3JKquJwd7vT98MoqQelHRi5eUbE7vHlXHqqkBpN3annq2efz+u3cTo9UXnQwslPkvTl9uYuhBP9pCGRMmmYydXMlNYUHBNXlR6jsFAOICwCAEDlEcjdp+1YqW34Xd++QOTuZkEvYdZMERnary7crmdpNz1yZoZLT4KzVmq0Ts/dcXBw7TS6frp5/zrlRlxNZ9IZsmEPZ+2WvE4L9YyGUbwcGoRkf/eoWDeN2EnxlJi9J2GQOiVl1mxrKR2NLozvNwqVChAWAQAg5vmyM4IbZulbZ8sdC428Q0wEJFXMZGiQSPZkNrOVoPbGLYyzxFoO1R3Fq13cwCcLVadkjri6rZWmvTw1G5RSmeR992hg0Rf2fGoe5vM2qGKmapfwmaWmp15Y5er/w/RnQFgEAIBYpRMS3LNB2zQrsPF3npVmZO+2+5fNnCMEZYJIJqw1YiLYN0XaKyGqMhCgbuWM5tE9bVets11DPyrtwsme/am++DNFiiB1nGzy9V+yIrG7qg0mDe3sXlWGvF6SsZIACIsAAFBOGVEagU0LgtsWGVtnkQObdW8O41yz9hjh0trCTxj2mi+Sco0p3OpaLTYqpdWyaMVMqdZqEnNF5N280D/rLTMpmrmZ0XALwIzakkgn0YI1myVe+bKrRgoqGyAsAgBAzBDSKExbrq2ebGybF8xK54F8zqyheNZeLKJoee1QLOLEMJMiswfhRfpoUhKmM5VTyhLOiK2CKty9tnDyQzx/j2EFaBZ+NzwlwkGE4Uj09BzpqdUIVQ4QFgEAIAZo+Yf8WxZq2xcHti1g2Tu4P5tY61SrZkgsja2Wi6IitTfcM7NW1XpKaiytLxjM3Vf41T30wEYjks53bjCHs9s9iZ2GoOIBwiIAAFRo/vxMI22Rd+sCuXkmzd5ODE2hVrewNQPDGpmoEVqKMy+sDVSssY6UxVVzVYmZlkVBSMF3j4gDG629o2XxorRZnExqrN31VQc8gOoHCIsAAFBBBQ7uCGxZqG/+zdj7p5GdzkVQIcJPXYQ6ijINEVZoLJU2xaN7ukjCmDV/hlKHJ4ZKL2vq88aGH62FEq0NoIuTFK1+d8lbXJ509auohICwCAAAFY5v/7bAhpnG9oVG+nKRv58L3VoSWlpTLgzCqb3+X2iZRHvGLrV+G/XAaI3ws+e0WN/J0NRgWatFzCTFPz6S896TkupEDXf6cygpSnsTmQYXJF75okIYaiMgLAIAQIWgExLYvlzfPCe4a5nYu47k7iZMCQW1vy6OWLQ33rE7GtNSaFo0qDV1mhNNUiYpV6UISuqoHRthMW/FtMCst11aoWEtlKObT8R8OuHe2Cz2+OQqFz/pSKyJagkIiwAAUP6825f7t8zTN/0uDmwyvLmcUlUEzIAorLZDWV5nZZ6D5ExQp7SW4uZGUoqjXntnSrsYKM+Ns73TnlQK9gapqhNFIbogYa7CTRxS88WdkXjRM+6UNqiZUMFRKSVKAQCgEgsc3Old+YPYMkdmrDW82QZ3mslQFX4z2ejUQe2eUxrqAi7Ly489t8P8r0aY6vCQKmeyc/q6GnZWG3ZweKpW/FL1Z+4u/PxGY+86YS+UaC9CzuxiFKe8rXmc8FRzXfx8UscrUT8BYREAAMoxJu4oXDDWWP19MDddJdyw9lzWj3nTp0wa0t56xeoCJlGf5mzlp8PRUBDJrUnV1veMUCHM33mq0eQUpX5ntUU/Z0obVXXFSsFqhVl5Y4brW2fZ+xOaz1FyYRhMEdYEHXGiy6215zWxhoEaqsfT55Eqve5CFQWERQAAKB8GEfm/vR9cMlZkpjF7OZpyea+3l8IRjEjzS+NmVDVzoiITqrEajZXUrkrjbs7UdmoMFm/Wd4/qCz/RqcKFNdQy7KKQVnEQqrS7rsZ1/4daCgiLAABQPnyH0gu/vUdsX2Dt1ixpub7LU2ZP+tUIc7iTec16tOXlnhYDlOp1Y3fIfPbEJ/XFn2q6DM0WD/tyK4Q190UqDbtW/dfnijMeFRUQFgEAoBwUblvmm/qU3LlEY6rVlBXGELroX1rswYjU2ixaJdUbKmc25ynnq43OU85sosZ48Wb//F/t99cMSVTDLygLMpcitXBuaFDFQTRaq2XCLWOd1WqjogLCIgAAlIOCrYt9X98hc9Ktt3dir/hMy24BP2szEvsxpcPNEs+iZ53rbNZPbdbLFVelchRv7tLvfT+M5sECP1XdRqGfexwiKMIrYUakqNk04eq34lJao6ICwiIAAJQD/4G0/LHDRcafpfrGHlodhhWtPm0+kDWlgxOhmz9zxtOq9dX6HXmTXs5G5zvdCZWpeAu3r/COHablHVRFQKcKJUISa8LKSSYGMWmNULR+zRQeX9Vx5ZuJLXujokLMwTqLAACVgUZIwaQnxJ41pbp3szXtV+o6VRWpC6pIyok0mDuRnNVKrdNObdrb06ANV5yVr3gDufv9kx7W86xNbgzK7KGK1M6LJyttQalG1Xjh9atx7p6jkRQBYREAAMpN4YJx+pbZCpUaYaW3YiIllFMzAhlB4mDxNdQzzuYNujia9FRT2qq00patFiws+Hakb/c6xZrWLTTzuYc3EtQ8yEGCGmWuNlcmdrsZtRQQFgEAoJzSDCH6im/Nb3RprZNTChmxaM6KQRXdU43Wahbf6EK1eR/3mY1PiyA+/oHAppke4TOfvo/FqTIY9iVWaFJxtrsuYcgrqKWAsAgAAOUmmL5OHtjIrB5SWvJmRXuZbsKIkEX9reZ3knmqkXrnxZ3Tgzfs7DrrHHbalG3OT6/51k7nVPqZ2ywZl/BZBXLiSS3mMVbRWd8ySRRPSnvPNa8rhKGWAsIiAACUG33bQt2bR61ln4kscV5k9oRmgzCuKCSxjlKvrXpOTzWlvatmg9OtYHPX/BKY9yEzAvZeNPLkMZEcnoJuUK7KgGAO9cyWzqvfcjKOKgoIiwAAUK5hce86ReqG1U2sMqKX/A4pd/LmF7naDHI2aOtIPOP0LNWCP2f4pj7Jfbk6lTTcvRDNI4kitSB3K+4ExyXPeGqmon4CwiIAAJQzGsi35p4Iq2mr5PNMrM2L46p5zrsuoUn307ZIvXs2eqc8pmTtMAgXlPLwViNiRASYSyW6qrocA56Jb9wFlRMQFgEAoAJg3KAKI5o9S1cSUqLEaN4Fz8/wj7nZX7Op2rSvo80gT82U06o4g4U5gR8eCmTvdUmrT1mRAUnC6kq2O6B1oThdfR9N6nwtKiYgLAIAQMVQrYE0DCspSiloSUfIScIM8/IQKJS7V/h2LdMWfOxr1MPZ/pr4Jl1Pk+KU3hwtO90tNY0wMynqVud+WGvlmEe6pM/hTPJ0uBK1EioN/swzz6AUAABimuH3BtdNlzI0/aKkq3JT+0vaszUYpbqmsYzVYt3Uwo1ztMJcmVxfdcZV7vJU4pL8mbsDO1cKpjJpp/DwClWRQZ16goafVWngqtcKNRMqB2z3BwAQ83RvTuY7l7D9GzWiHN6IL2pCm5Qwa4oHNSRxJFaT9c93tbrM3eYiTivtPN9A9t789y41sndbO/ZJGWZYZFIGGY8TgUDK+dVvHad4qqByQiWAlkUAgJjHVFegIJ9snWlnmpKOWfx7o4LdMW3FJWlwYuhakOzfoG34xbv212DOflY9Ralce0CHmE/K0HVf2gKHCAaZM9xuaMadhm4wKvMOiip1XPVao3JCJYCWRQCAysC3d1PuB4OoN5NIK9bYnciUSUPSki8HXZQ+7SZGyaWhU4di5iJKdMJYfE3WoLOz/bWupt3UyrWgoF+S/HcvZdvnayTc52UWuJksuZQu6dXrX5Bw5wSXw4PKCbEOLYsAAJWBmlBdy96n7VomqWJGFkpkkLmdwiei0FNMj/yPlRbtbV2ktVCP1YxJtUKxf4O2/ufg+hmBvGzpjFcTa1aOIlXMNOz3BzbPCn8QqFk4jAizfARVZN5e82VxNcLqORDz0LIIAFBJaP78/A8HB3atNCOLKgJB5qJShNl/WtJrCbU2OKFCNzw1aO3Wzg7XxbfoxV0x3z0d1HwF/+0ePLSLyGKPBOVU0mpnx932lbsG1uWG2IaWRQCAyvKGrjhl7TZs+zyZf0inDocMhPZ3LptHl4TpVOWGj2VuNdb/VLhxViBrH3ElqlVieAMYzlW/ocgtv5Pi76BoNb76sqgmXc17o3JCTEPLIgBApVKwe0Pg2zv1jA1UGKKskmJROpJEY05VBq3+amuHaik9VXntls6Wl7naXup0J8ZieQaJzHnrErJriZDFLQ7KqGSe5LjbJnjqtkDNhBj+1ISWRQCAysSRWENUTZW7FktvrqRUUmEGNy4MSdSoTpL+JyseWm2Z9jdUCvPBmeYj2Tu1Tb+LtVN8B3bJhDPUxBoxdpkk1HBW1Tf8LIQU1gpC4ZZi6EglmKU5kz1NLkTNhNiFlkU4Ta1fv67Q650/b563sFDT9TVr1jBrwL55qSNMUdq0bq3pWufO5yclVW3fvj2KC2KOd8/GwPcjvTtWmwlRs5r5zP9oVKrlc6UxwyPh5uVG9STyWufw8251NersiKl5MAc/vkHf+CuXevi7uRB7DpBTBo3kBvFDv0DjIiAsAsSA5cuXz549e93aVVs3b9Z1nRxeEeTIX4H9jb30sN2DRq3/IYzz1NTUpi1aXnvdDfXq1UMxQqwI+PLyf3gssG6KO5CrE7cuFUa1CMbeRUUoZlHKBePMFe/p9UDihbfGUGHmr/01+OVNQg9qROHEkGE0L8rDS1SqRFNaDUq66RPUSUBYBKig9u7d8+7bby1bsqSgsMCq8FKGWe3p4cuqGRqt4Uec16tbv2//fjffcitKFWIm5az80T/7zUDGeodRKCWXpdwVfSKCMIUYVApSt52ry/CEjlfFVjGaKTvn4+uNTb/pRHEKn0GVcG7FpGEeKajCHa74Gz+Nb4rOaEBYBKhgJkwY//W4cRl795iXKCmKdneVYa+ZRo/318E5d8fFDb762uHDb0cJQ0wwjEDuzI/0lRNI5jZiBO2JKFIeWTax6PtSuMCQI4P8rLGM1J1EOt6c1Ode5XgzXdavX9+sWbOKXIzezQvyxg7j3swgdXCpn/J4aTcrcmkUdVc06VPjtq9QGwFhEaCi+OKzT7/49JNAMGhmxNKo4pzRpGrJd4y45+KLL0FpQ0zQpVG4+Dv/4jFs7yrD0IVZi6XOha4zpyQGi/omgVIY1vA+QyHCjEu8UQ9n7wcSzu503IP/++rLkyf+MGfB4gpehge/fUgs/lQwTot56bQ+oqquuBs+j2/eE1UREBYBytnCBfNffuG5gwcPClGKaxFTe1kM86tJs+affvY5ih1ihUGE78+Z3sVjydY5IlBAGDUId4igICz8RvfwHohTSlWiybjqSsdhif3vV7jjn4ctWrTw2f88k5OVlVIv5avxEyp46fl3r8v737Uyf38El07rTaNht5p3TbDWLwdAWAQoLyNH3rd4/nxKDCFLeY2Qw9MEzMuh0+0Z+9W4OnXqovwhdiIjCaQt9q2fKdZOFplp9qhcEt2rgSo1wZ0ypUt8/0c8DTsc95jHH3909h8zdcMw09M55zT+bMy4il90Wd+MCiz9khV/opD5piEojxv0WmKX61EDIbbg8w1UEosXLerTq/viBfOl1fFc6kP4j14npAh4C6+56orp06biVYBYwQnxNOyUfMmjiXd8pw78j6jVUlLOKYlK22Jo6z+j1rmOQa9XG/HdcZPi7Nmze/XsPvO3X4WuhUJqy1atY6Lo3H1G0qr1GI3kTYMREVw2ViNoo4FYe8fAotxQCbz6yktvvPZqMBAItY1ISstmwufh6dJUSDlv3ryaNWucc04TvBwQQxR3ortBB3fbK0hSA8OXI/L3U0nsZjN6TMixV9uWwuqMon+JSfYUFjNkSi50+7ecEyEd8aztNYmXPRvf9EJ2vHGQo0beP/bzzwIBf9HIP3uxqkbnnHPBBV0rfompnira3s3BvWtp0TShcN9sdMrdhk/3FtC46s6656LuQQxBNzTEvKFDb0jbtFFKUe51mTH22BNPDbzkUrwoEIsCkmgrJgWXfi32bRB5exQq/dTJrNkpRZnRWgrGGqtrHLmJsGf7mr/SmWpGPlUGZdW6nh4jE7rceNyHmDRp4msvvSCE+Nulx/zbeev9D9u1bRcTBeXfn5bz0WCSm0GFFprEE86thLXmTmFQcfN65yWPmMCZiioHsQItixDDMjMzL+rf7+D+fbI057KEz7z+zZ87p2r1Gk2bNsWrAzFHocRxVhN3+8G0SR/DXV0vyOTeTGp3npoZURJrZUFryZhj2tIEoQoxuNUQyTljvNXliYPfiGvW47j3f/eIu76f8K0wjON+0Lpo4CVnnnlmbBRUfDWtMFemzTGfdWhvw3BuRa0559YMdJJ7gDqTHCntUOUgVqBlEWJVdk72oIsHBoIBUsHqsKKq73/4cYuWrfAaQUzz5x3wLpsoV47XMtZZiwWSotXsBeVHLyFECqpQQ2P12ni6DI/vOPi4d/Xxhx+MHTtGDwalPP7nOrfbNXPOghgqnKA3N++9S8W+9USIYwvkZB8mzeutcDhk0FB0emanqiO+V51xqGaAsAhQWg4eOnTlFVdovkJS8YaKU0JcHs+330+qUb06XimIdUHN71s83r9mKtm1mGlea8s+aRyp6larmiNRbXd1Qr9RanzyP2++b//+Uffds2v7Nt0wTjKW2O12z5wzP7ZKJmfuZ8GpTxjm8wpzq2jJCNUNqipSGozH934wsd9IVDBAWAQoFZmZmYMuu9hupaiItTe0BOPZjc8Z8+U4vFhQaeSv+8O/dJzcsUjLP6hQyYkISO6p00Lt91h8s+MvNP3Be+9+8dn/rHV5TvqnakbIxk2bfz5mbGwViBYozHp3EN+zXCc87BsVzYjhVNIzmsXfP8OlOlG1oOLDmEWIPRcN6B8M+ElF/ZwTWoIxOzt7+86dPXv2wusFlYOzZoO41pfSRj24rrGcXZqjirPzLfGDX3HXPs4efev+XHvHrcMWzJ8fzic6RknDRo37D7goxi6fikMU5vq2zmfF6N840rhKpTdXSMXdqDOqFlR8aFmEGDP0xuu2bNpEKnC9PbLTLuP8lf++0aXLBXjVoJLxZ2w2gv64+scfmPvKyy9N/uG78HfaNMPigEsue+LJp2OuHPRgYdY7g+SeVRG8H1lLEFWpk3jHD64aKahRUMFhUW6IJS+98Hza5s2kYn/CObpAnTBGj7ofrxpUPq4zGx83Ka5Zu+bSSwZOnPiDKNZaVpQ2btS4NM5zw4YNL774UumVg+KIc/caSRyeCFZ2NSQT2bt8i79GdQKERYCo+XHatGlTp5R8x2d7EZCir9I7W6t90TxVKW+/7Ta8dnA6eGT0A3feesvBfRlSGFajIg3/+kJr16kT9fPZs2f3LTcPXb508d9+HszO8GfvjVpuPrc/S+kcWrScFme+nXk8pzSw6rvAvi2oPICwCBAdzz/3b0MPRiXGHfkqvbOV9q4URIoN61YvW7oELx9Ubr26d507Z1bosxyVkhXn74sy1qUU9m751y3DzECWk3ngbz/3r/3J+07/rHcHZU1/xZv+p+bPL8mjqIR6LrxDOJKINY+HiLAnu0gqrZkxWbv8i79C/YEKTkERQEx47NGHpRCUxMCmqkdOUlJmXgavvX5o+w4d8QpCJTZjxgy/32+vjR9Ja31pDJ0fMuSqvJwc854Dgb9/wqTVU7X8Qzxvn7ZtobHwf5qniuOs1s4G56mpHZS6LSO4KMY1udBft5WeNk8QyokeZpeFJJxLTTA1uHxcYbP+cY3OQ0UChEWAyG3dumX2zN/tK0pJO44ppdZmFMz6v6JkZ75rC3u1YfP76OwEI0Ob3SYmVXvhxZfatcM+DVDJHTx4gET652n+SaakpET3fIbecN3uHduLlhCXYsYvv/Tt1+/oZe/MJiL+DJG3z8xqhi9P8R+SmWkFa6eK+GRWPdVTp5XSsCs7u7Pbkxj+I7o635K7e43iz5aShLlbtLWVCyE64cyb453zAcIiICwClMhbb7xO7PFAJRxlyJgVEFu2atW9R8+mTZu1bds29PNffv552/Zty5ctW//n2lByLOEJM0rbdOj4zrvv47WD08G+jIyS/M3omh7Fk7nrzjvStm4mwqCUSfuj2969GcceoCZWU1QHkbo0fymNIFU5kVzqtPCAo/BAcPtC/4IvlMTq+Un1HY27O8/uojZoo7BTXCvjWg8MrJ6sr5moM5XLsJ6OpEy3dov2SapoabML1s2Mb94TdQkQFgEiug7ty1i+dIk8dpZx+I0WR96WKTMIGXTVkAdHP/TPw/r17x/6JjMz89VXXpo7Z7bUdRJRNqWUUMU1fPjwm24ehtcOThM7tqWVpC+5xbmto3Um/33t1dUrllk9BUem10iyYvmSm4fdfPSyxx0yqR7N3KYTlVi7O1v9CcLqdBBBygTlTARFzm6Zm+HfsSA4J54kN1TrtFYbnMfrt3XXbHCih3Z1H1GQNpv58sMfK8OIYW8VKHmw0L/oC4RFQFgEiNB/nn5KkghXywndiDGe2jB17Ljxpzw+OTn5pZdfTdu6dfitw3yFhcVPitTt8Xz6xVf169fDCwenj6zsrBJdhxQ1KqfxyisvT5r4vfzHYJLsrL+fHks8y14E0kyU+pEPlaF8yey9+4zQrtfmd4ECund1cO8a/9JxqstTcGYrtVF3tUEntU5zh+svOzt76p/ra3O1mPdh+EOrj67JSqS+fWHhxrlxTbqiOkEFhNnQUNGtXrUqguVyimZiSsm40veigeEkxSMann3277Pm1q5XP9RtHSbOeftOnc0bIinC6WZvenrEDYvmR6xuF3Yr+TnMnDnTSor637uAzRPbvWf3336ontlM2FPR6ElPW1pDHokhrTuhhka82TRtlv/nZ/M+vzH3zb6ZX9yes+QHX8bRhW/cnW5g8dUiW3OR+7J8v72mEWyTARURWhahQps4cWLochLRVUgSxrr36vX00/+O4NYTvp94/dWDd+zYfsqoSm3Dbh3+r1uxpCKcjvQSDPM1/3aczpLujzxv/rwnH31InuBPNeD3b9u2LTU19ehHu9otqDOOBbwyvMUgJaE6U4LmGwoRqggyX5b05xgHt4o1P0iXq+DMtrx6qtrgfGdqG1mlPi08VNy5PuaHW4Nynr7Ut3yq2u5S1CioaNCyCBXaD99PEMKI+DKUmJj4/PMvRvzoX307oU6dusdPq7RoTW/zV1WqJL7z/odIinB6WrJksTQi/iO1Gu1atmpVkhNYtGjh6AceOMmHOvOPdM/uvzQu8ur1uauKef0T4V0EmRQuw+sSXjMpSquTmoVaHHWq+AM63T7fWDo277sH8t/sK/atk7LYH26ZNa+OUj3gn/+RgcZFQFgEKJa0zZsir9yU3Xb7XSU8gW+/n+j2xP2zi838gfneThhv37HTT7/+0aYt1seB01Ro0jGx55FFcHNVVZyOErUsjh55PzG0k+VRIRYumPeXsJhcRybUZDTcWGY+NYOpgnLrOVqfHa1x1NbC/tIwv3TCzPioCL/uL2BGIIKsJ+0ZNta7SvpK74ppqFSAsAgQrnlz50TYAW1fwsz33959+pb8NJ594UXG/z5gg1Pr6467Rrz1znt4peB09sfM32WkC5Saf+C17cb7iPXv39cw9JO/UZi/y83JOfYnDjOfxdck0ghNZ4mK0Dy8yFoFzRhKQx9JpS5WjUelAoRFgHD99tuvEY+aN9+0E+MTkqpUKflpdOlywYU9e1F2dBcvxmiNWrXGfPn1TTfdjJcJTne0BKufSlmjRs3Ik2Lf3nlZmdJ2sigm5fZt2/72Q6V+R1Fh+nspkYrUBOFB5grsXO7dtxXVChAWAcKSm5tXgjffaHrhhRcTExNC98k5P79L10lTpp/dqBFeI4BVK1eWJGgmJiZGdtMRdw7Py8kOc6mEnbt2/u0njpqpRHFG+60icgbl5rk4DJ/uzdM3z0W9ggoFs6Gh4tqetqVEH9aj+lFo+O13vv7ay4Qpo0Y9cMVVgytyuW3bti0nJ/uXn39SOF+6ZAm1R1lZA/zt9d/MfxrCqGv3/SmK0rJVK5fbc0HXbu3btz+tateyZUtXLFuWnZ21deuW3Jxcs1gKCvPzcvNDbVTmP8+qfaY0rOEM9eunVKtW7YJuFyYnJzdr3gJ/mH+jG0Wr1dCw+wGsamh32EpKW7Q6N4IHvf/eu1cuX2GtaBNWu+ZxuodpUl3qcDN/foVpX7T/PqVQZFDbsZh0w6r+gLAIEAbOOYl8SQ6al5e/Kz29Xt26UTkZMyD++tuvTzz5dO3atStmcX362WerVizfuHFDXl4etZb4ENYUy6Jr5d/LMb2ooUVu35YmKRs//lshZY3q1Zs2bdav/4BevXpVyho1efKk5cuW/fnnnwcO7CeGfrT7MjRa7G9FtHNX6BszZ5uHTZs6xbyYK05Xi1at2rfvcDN26DksY+/eooRd/E2PzM8xul7smdSjRt2/ZPHC8MeoUCvHym+/+ebqa645evE7o4FwJVJ/foWJiqH0bC3uKvIyUK+gQqEl3wYXoJSc36l95APnzXdexi+/8qqHHnqkEhfRli1bJkwYv2DB/KxMa+QWDS0zFMpAtGhln/D+xq0dEe2lh60p3lxRzDw0aNAVF154YSUopY8/+mjFyhWrV66goY2/7UhT3Hc+K3CQokbHUGtW3Tr1Lhl0+fU3DI2JQli8eLFZTwoLC1csX0qZUpTrwigEXdcuv/yKYbfccsK/086dpK4VKyweaVlkXJm/aEmxnsiXX4559523iFGsdwYzg/Erh1zzwAMPHvmReftDb11Edy01JK1QrxQzTyepTpVRs5yeRAJQMaBlESouxpghIp+raAaDqVOmPDj6EUYrYeF8+eXYKVOm7N61wwyDR4ZtHb30H+6bC/vTID3axmbohqEvXjBv6cL5VatVHXjxpXeOuCcWi2jZ0iWff/rJyhUr5OEALY9JK8WuTuRoK23onnbt2vHe22+9987bvfv2H3rTTQ0bnl0BC+GnH6dP+ObrzfYSVKF6Utynzih1uk64tM28eXNL0uJAi/nH+c3XX73/ztvFTIp2KpYyPT39L8/L/Hl8jQraiiMEMwK4BADCIkBY1+cS3l7XtTvvGP7hhx9VplJ5+cUXpkyaaIdha6W3vzbmHBuHwr0M078X9OGgKUTWoUNfjvl8zNgxF1986eNPPBkrRTR2zBeTvv9+//4MYS8WLQ8/pWMXAqQRRRyrVOnRsjYv6uZ/Z/zy868zfmndps3ohx5p0KBBRSiBfRkZ5seJ77//znpxhTiS52jxJ3RQSpNOPAdlt73RX2Qfx8xbFWvdnOnTp73z5v+JSBcA3/KPRVuVpDqaffLyaLWXRbXjcNtnudDNBzd0XAGgArXdoAigwnK7XSXImfZbv2H8uWrFe+++XTkK5IXn/tO5Y7spE78XwrBaiewWLkmO/aJHvopVVn/9Cq0YJ0N3aMUhw/hxyqQBfXtNnjy5ghfRN+O+urhfnw/efTtj727DMOThi//hCCCPfEV2//Y6zH+5E6ughSENfdXyZddffdXzzz1b7oXw0gvPXXHZxRO/G2+NyzQL4a8tqsX6svcVoRddfMmJHuvQwYP8SJtrMT+fWHvc6eFGoj179rz4/HNGREnRDrMyL+/vqysoddoYzMXsVmOdKPZuLrQizI+W3Mnc8bgEAMIiwKklJpR0yI60u2i/Gjt21apVMV0UL77wfOfzOk6bMpna1+9yuHrZyxq//OJzt9xys8/nq4BF9NNPPw7o1+ftN9/Iys4SohxmuIa6p6dPndKrV4+pU6eUSyH88tOPPbqeN9VqeCZGCbbgO5rq6Ck2Odm8aZP5RxbxvTdt2jScA3fu3HnNkKsMXYv4eRDKn3/h7zt/KrUacU8ioUxyVaFClUFJmE5VMzVyqdNyGtBvZmhntTrcmYBLACAsAoRzKWGU0pLdg93uI/Q7b//Xn3+ujcVCGP/N1/379ZkyedJfZu+WUxKShrHxzz979+r5zTdfV6hSuv76a5575qncrCx5TJdr+RSUMArz8158/tlnnnqijB/64Yce/M8zTwX9AWG/ViX82znyF1S3Xr1Tx5tIeTyeUx6ze/fu66+7RteCEayNEJqLxBTH40881a3b32drOWo39wx6lbcZ4kiuy1SXmRSdMmB+cWIU7exXDm961sbTPLUr3v+hQsGYRai4zm3TOiNjTxSu/PYc38cffXjy1B9j6OkHgsH77hnx5+pVUWkiil5qFEILvPl/byxfvvzVV18r9/P5n+mj9w9PAC+ar1zOH3LsVP3rLz+vXrVi4pQyqnKXXtT/0KFD0losKZoZx3wq7Ji9i/5pzZrVEadzM8g1atT4lIfdPeIuEVFSDJ0/5/y664ZefMlxetI5V+JbDyStBwY1n3/LYrFzmX/3Gpq+hBUelFQpmvBVth89rNfOU1Vp1gfv/1ChoGURKq5G5zSJ0od7KgU5uH//ZRdfFCvPfeZvv/bpceHqlSsqVFI8cj0zw9D8ubPvun14OZ7G3r17rr9myKcff1DUmkhDY9MqytR3IcT+ffsv6Nxp3tw5pfpAu3fv7turx6FDB4u6g6PaHmbmuVat25zsEhL5WgPmZziW0iD15AddPeTKA/syihvZQtOfrWZFxi+5fNBdd9918uMdqjuxWfekAQ/WuG1MwvAf1AHP0tSuJK4aU1QuNEZDY3mty6WVxaWwk6s0v4leVzUtuith0JaD4us0w/s/ICwChKV7j55RvDfz4nHo4IERdwyv+E/8oQcffPLxR7VggFTUZVApkULXV69c3q9P+SzfPXXq1CFXXbl921Z5ZNJoxSsqq4VR1x5+cNT8UsuLGzduuHrIVfn5+UfnO0ejzhydI0WpfuI5KMuXLQ0GIl7hhQpJGqSeLCwOG3rd7h07pDCKf/52BzRjlw264uFHHgv/hpwQT51mSb3vqnHXd1XumOK6/nPa8WaSnKoypgq/g+iCKgZVzZgrCDe/EZRFJy/ad2IwlXuqJHS4Gm/+gLAIEK5atWqdVbsOjV5LiSHEqpUrHn3koYr8rK8eMnju3NmRTxoos7xIzYu9zM/L7de3dxk/9LPP/vvF5581c5iQpOJvKmDGuNGjH5g1e1Zp3PkDo0YKTSOlV1so7d3nhF2iTpcr8j5oQlRVTU5OPtEBL7/0wuZNmyOezsU5v+SyQQ8/8mjET911ZqOEln2qX/tGlXumu278gvR4UKvZTOGUS00lhkIPz7CPTueH9QflZIJ1H+lOaY03f0BYBCiGbl27RfPCZ3cOzpn1x+MVMi8uWrSwX98+6Tu2W0uxxMjOSlKI/Jzs/r3Lrn1x1H33/Dx9mtWgWLS8X0Vfcj00Mejxh0fPjXb74sCL+mcfOliqbaq0aIrI8c3644+IS8X8/7j4uBP9+r+vvDR10kRrVntET45xZeCllz/y6GNRKQRnfLX4Vn2rX/pE8sgZnqFjnD1GGfXOk/E1HFR3EI1QpeRV0BoiyRTlvH9V7R2TC+ADwiJAebp35CjOolxLzSv37Fl//O9/n1S0pHj/fffm5mRX/DbFf4ahvLyce+6+uwwea0D/vosXLTSTorXeIYmlrUrNVP3vZ56K4h2OHv1AdlZm6c+/kB07djrR7/x+f2QnQO0U2ujsRsf9rbWm+g/fCUOXhxc0KN6dU9qiZctHH3s86mWhODwJzXsmXfJY8n3TEkZMVwe9Tpr0Z/FVCVetTu+i9dqLevCPrCV5yjTPqaSqS+14o+fy5/CeDwiLAJFo0rwFjeqYfWkvQffpRx9MnTypgjzHxUsWj7rvHioMGmtJ8UheXL586Ssvv1S6SbFvr9ysTHsNxWIvPF4Risibn9+/V4+o3NuP06cvmjdXltrkp1AWN79UVT3JYVs3bYz4b5CcYN2chQvmf/DOW7pxZFp3Mae2MFa3QcMPP/5fqb6ainnyNepX6XJj8m1fVRkx3T3kXX7uFbJaQ8IVJnWFCEapsEKg+ffMpPVFi4YlHl6/3BrpaJ6r/dZmVG/suejJaoNfdlTGjUkBYRGgLIx+6OHS6Go0M8fLLz5fEfLi/PnzR957txQipl8mYRiTJk2cO6e0ZnIM6Nc7NydHShm7RWSefH5B/v333FXyu3r55RfLYJq8GWTq1U85yQG5ebkluHPauvXfB+fNmzd31KiRogRr8dRPSf322/Fl+bI6azRIbH959Rvfr3b/j/HXfeLuMpzUaW24k8zUyKkwT8nMjArRFWlwe79Jq1+fcskUYSbGuGRX6yuThv4vseswvNVDRYZ1FqGia3xOk5at26xeuTzqgdG83L704vPmm/cll15WXs9uyZIlD466nwgj1l8mKoU05FNPPfHHrOjnxf79+uRlZ8d0UjzyEWXpkiU/Tp9+0cCBEd/Jww89qAX8ZVIatGpS0kl+nZ+bV4LTkJr2lx1Zdu7c8fDoB+0xBpElRVY3JeXrsk2Kx1I9VdXWF5HWFzkI0bYt0zf8FjyQxvetJZpf+HKEtf0MZZwwdxKNq86S6vCUzo4W/dy1zsabPMTCO3zsv/9CpbdmzZo777jNCAZpKeypwDl/+LEnyiUvzp8/f/QD90vDqDSvFGXsvPMveP2N/4vifV7Uv29OWQzOKzuMKfMXL4nstoWF3j49u5VNOzSjpO+AgU//+4S7XXc9v5OuaZEWApu/eNmxP+nXt3d+dlZkL7O100yD1G+/nVDRXms9UKD7CvWD24U32zpNV4KSXI9XO8tx0qXOASrcuxaKACq+Vq1a9e83wEx1pTGkRxj6yy8899P0aWX8pPZlZNhJsRSv+vQwFnLk38f069PDA9Si8ohmiFm8cMHmSIey/dMdw281k2K0loY58sTp4ZkToeKwi4geU0hWDyy1Ow3tkWb08M2jVEpS3HdvhPOBnnvmKVqC5TfNpxTWl1UA1n+aNDnh3s15ubmiBJ9z2F8nrg3o1zs/JzvS7merTbECJkWT4ox3JZ0R3+i8xHMHJJ7bP+GcLu7qdZEUIeagGxpiw5NPPzNn1syCgoLSuHPzmvfcs/+ul9KgefPmZfaMbr75JlIKbYr2rEzKFaVqcvV69VMUVenU6Tyr+ceOjGvXrsnLzUtP33Vo/z56eMdnKxxFr91OCv3BUaOmTI/CNncPPDBq7epVUVxEMPQk7Q05iJAkPi6uZctzNV1v1qJ5UtVq9lZ5JDc3d/3atYrCV65aGQwEmKIIKaiIZsOmGRaXLF6Unp5et27d4t52wYJ5IjT3I7JpyMW5lTUFQznhNeKnn6aXpBBq1Kh55PsrL7skJysr8suYw/HG/72FN0kAhEUA8sjjTz35+COl0AFnRQcpjBF3DZ/24y/xcfFl8Fyuv/7anOysUPtWdDpYGbfmgdat263bheedd1679h2Oe9S1114X+iYYDMz8/feff/5p2bJl1miqKAYySTIzD3333YSrrhpckvv5+utxC+fPs19uWpImvaMlTBlhzOFwdO/evUOHjj169YrzxJ38tgcOHJgzZ/bsWbOWLVvKzFOJXt0zz8mszZ99PqZYt/rmm29Osp9KlD9BWWMK+ODBQ050gPmpo0QV9nAMvffuuzIy9kb2h2B9zuHKmLFfnXVWbbxDApQejFmEWPLsM0///NN0wzCiOniRWVdG+8rjdDomTfkxqWrVUn0WX3459r2334xW6mWMScp69el7441DGzduHME9fDdh/NixYw7u3y+jN8+mSlLSz7/OjPjm6em7rh58pd1HH4U3qFDf+zlNmw29eVj37hEuXvPJRx9O+Pab/Pw8OxCX6KzsVkGr+ferr79t0KBB+De87bZb161aYW9LTCPbZU7ane0Op4NRFjqVE3+CYuYnivnzF5zoiPvuvXvpooURrrNI6blt273/wUejHxy1YO5sq600knthXFXHff1NvXr18d4IgLAIcNQ1g6/YtXNnVOstI6GFc+2Nu1wuz4+/znQ5naV0/lu2bh029HpD06h1PS5Z5rD967bht9wahQ2vP/74o6/GfB4MBKJStpyxe0Y+cPU110Z28yuuuCRj956SB8XQh4q27do99uTTUWl8ev3VlyeM/5aWLMOGGkrN3Na+U+e3334n/Bv27NHdV2Cn1YjCohkTG51jJuabevaMwo47D466f8G8uRGHxWuuv4FxZdzYMVToovhrY1k34HzcNxNSUlLwrgiAsAjwF3n5+Rf172toQVIKVTc0qN/hdH4/eXpytWqlcf59unctKCyMQsJV1J69+zz7bJS3fLh56NAtm9aXuL/VmhTSqGmzMWO+jODGzzz15K+//CJEifpbzShGGTu7UePHHnuiadMmUSyipUuXPPTgAwGfl4QGOZYs6/82a67b7Q7n+JUrlt9z5+1GpC+NWWEGXXnVgw+OjlY59Liwa8BbGPHk5YZnN0rbuiXCC5B5e0X9dvyEunXqEgAofZgNDTEmMSHh/Q8+Kr2POObFKxAIXjHoMp/fH/U7f+HZf3t9vpImWsaqJCW9/e57UU+Kps/HjBk85BrGSzpbkzG6dfPm/fv3F/eGCxcu+PXXGVKWrEPcnuIz/PY7xo79MrpJ0dShQ8c/Zs+tWjWZUFaymmbV4nfeCneZoWVLlwp7QlJELwe/aODFUUyKoZdYRrpcvvks0rZsjvgziflJ4Ouvv0FSBEBYBDihli1b3jniHqqopRcYA97Ci/r1yc7OiuK9rly5ctq0qSVptDMvsYyx9h07/fzrzLZt25XSs7//gQevvf5GXoK8SAkVdq759NNi77r26ksvSV0rSY+HGabjE6uMn/D9sGG3lF4lnP7LjGrVa5Rw7Kz5NOfPnxfmwRvWryMR7pXMWrVp8/gTT0bx6W/fvt3rLdHHHvmP1XPCvWgp6kMPPVz/pFvLAADCIgC56aab27Zrf3jRwOilxMMNJeYfhpkXh1xxuTcaXcYh/33lxRJ2nSuKcunlg956+93SLt6777l38NXXcsYiL0g7CS1cuLBYN/tyzBcH9mdYN6aRFhRjdVMa/PrbzNq1S3167LQff44svR0bFg8cOLhu/fpwDs4viKQqWosmMvbc8y9G97l7vd6S/+lFMv1ZUe++974rrrwK74EACIsAp/bOO+82a9GyNPqj7cmq1pQXb2HB3SPuiMp9Tpgwfvu2bSVsMPvXbbc//OjjZVO8940cdWGv3tYi1cXvaizK3FIeOrB/z+7d4d/w448+LMmWx2YRNUgt0208/v3cC9SO1CUIjGLyxO/DOXDH9q2RpCtJ4hMSkpOTo/vEFy2YH1puqSzHvHPO77n3/iPLPwEAwiLAqX3y6eeJSUlR3wPQzjrWJhbmtXnT+vVDh94QhVP9+KMSJUVKn3/p1WH/urUsi/f5F16qUbNmxIscWjugSPHLz+Guzv3uO2/rWvDwa1D8zlbGmrc8d9zXZbo1cJ++/dq272jXwEh3wRFi3do14RxYGFHLonlqZ9Y6I+pPPCcnO9RMXpIpPsVNiiPuue/aa68lAICwCFAsv8z4PT4hsdTu3tq5I23zpvvvv68k9/LVV1/m5+ZGHBYZVwZdNaRHjx5lX7xvvfu+tdx3pHFcSrF61arwSynyAZ2U1m+Q+vEn/yv7InrzrbcZ55LQCJsXKdmdnn7Ko/ZlZET8MaNTp85Rf9Z79+4p0wsVoyPuvf/a628gAICwCBCBb7/7gSlqabRwhMKdMIylC+e/8/abEd/PmC8+N+8lspYnxtjAiy8Z/dDD5VK29erV796rtwxto1z88zfj8cYNG8KKXG+8LiPugGasSrXkr78ZXy5FZL5Al1w2iNJIR1lKYhjGrl27Tn7UunVrI47swWAw6s969569ZdYFzSi95bbbr73uerzXASAsAkSoatWqr7z2OuOlVZmpvRng1+PGLV22LIKbz5jxS35eXmRXVjMf1Ktf/7GozmMtrueff5GWYI2Y/IL8AwcOnPKwST9MoCTiZkX27jvvlWMRXX/DjREXkSTWNoI//HCKYYtZmZFPzO/cOfoti35rmckyKl5FVf8VjWXnAQBhEU5rXbp0eeHFV6i122yptC9KQoWu3Xv3CH/xF1/85suxRBjSHgRZzJBqtei98/6H5V68HTqdRyiNrO2WUeotLDj5MeO/GacFteL20tv9vpIzeuPQmxqefXY5lk+dOnUandMk0pY/62YFebknP2jNmjWRrl/Nap4R/TGLWVlZZTa1RdO0ESPuxLscAMIiQEl179Hjtf++QUqtfdHqUhXGsJuHFutG+zIyNm/eFNFQPGsT36uGXJOcXL3cy3bYsFsiXkZHCjFp0qSTHzNl0v+zdx/wUZQJH8f3md2EQBJqhIAUqVIioJQQQEQQkSZdLICeooCCHQSsZ0FEKQcqeCrYkCp28QQUxdB7BARCQijSDCUQAkl25p3ZTSKE7LL7zGxY8v6+n1wOs7O7M8/Mzvz3mad8JVFEmmsEwaurVHv44UcuexF17NRJMiq6Khd37tzpfbHMrCy5FbM77DVq1LR8e1WnWniFq2kbN2yYN28uZzmAsAiY1bJlq9fHjbcp9kDMBGhUAGnqvj3Jfg00/eknn+gxSGYgZZsWVaHCE0+NCIaCbdy4cWSpUvJnmUsFzT3Jyf4WTk6KEGL8hInBUER33XW33DHn7lF8ySLa+keCXM1i8eJhlm/snDmzC3OeWKNq35k9aeIETnEAYRGwQNu2Nxt9QRyh1mdF12Xd6XR+MN2P5nHLf18u2VpREY8+8XTwFGz9evXlbrNqxuAw3mqhXnrpRZnhA12zeDePaxU8M3lUqVJV6luBMTZ1YmKi98XsDofU3C2iwlXRlm9paGhoYQ2Yk3cYaUJ13nUHY3EDhEXACr1697mjXz/F7rBZPblLXoXWE48O8+UpyUlJfx89IlcFU6pM2XY3twueUm3StJn0czdt3ODl0TWrVvo74bGrAahNsduff+HF4Cmia+tKTUJtNL0UquqtJ3hGRsbfR4/KVeZVurqS5Vu6ckW8pmqFXLz65u/dmzJt2jROcQBhEbDAE088OeC+fwk9L1p7uXJVp+gXrTVrVicn77nk8l8t/EKoMsPB6DFo0EMPB1WRXl2lipBttig0jzWLR48cOXksVfO/8lUIpX6D68qVLRs8RdT4+htkKl996DdUvHhxL2XotZREsQDchrapat4XJ1GIc7ioTuesj2ds2LCeUxxAWAQsMGTI0B49elqeF3Ou76rztVdfvuRi8Svj5WqDQouF9urVM6jK86ab2kqPmO2lCBbMnyuXNRRF9O3bN6iKqHTp0gF65YUL5ku2EdS05s1iLV+frVv/uFyFrB+EI55+2gaAsAhYYuQzo3r27mOMp2P5fICabdvWhC1bLjFLm2taZIk6M9GmTdsgLE/5aRU9l8HmTRvlXtJhd9za8bagKp92t3QIULeP48ePS++z0GLFLF+frKyswuzgcuFHT8s4nfbEY8M5vwGERcAaI0aM7N69p1Ds1icnVZ392SdeFli0aJErXcl0Sujcpev/kx2UtDtJpneLEE2bNS9SedqrXbt2SvUBMlamw60drV2Zw4cOnT512syWli4lXwVr3LTX1LWrV86bO4fzG0BYBKzxzKjR3Xv0tFs9/qKmqcuW/eJlgcRdO4XmR88NLffqqwoR2yKuKO2CYsVLeHrozJnTcqmsWVzLINzSsuWihPCvGZ+7vabw+qUi9dgxv0aDcr2i0X9YU6w/w6empuqfJumaRUdosUVLfnbFak0icAqjIITTqf5n0oRTp05xfgMIi4BlebFr956K3cr6RdeI0MLLcNPbtm3VL6j+Xg71xatXrx6sBSnknhPT8LoCH/p45gy5zGG32/v1uzMIC6hCxYr+lpG7iq5kqZJeljl+7Jh/pZ+7aI3q1g/HvXt3opl70O7t/dcDg4RQzNzK1lT1oUEPcHIDCIuAZUaNfrZbj17C7rCwrZX+SvHxyz096r51KHGHtV69+sFaiprcczwNs3Lq1Cm5vRFWvHiQFpD/nd+NEhC26AoVvSxz4MABW24dpF+xTAtAV+WdO3dKf4j0VWrYsKH+j4cGD61Rq465T5+WkrJnIiN1A4RFwMq8OGp09Zo17RbVL7rqbrQEz31cMjLO2vyvi9OXL1myVHAWoFxEMMaF9jA38eYtm+VesHz58kXr2BTZ2dk+5HTh7/6qXbu25et67FiqmafnbembkybZXIMVSA++ozmzF86fu3btGk5uAGERsMysWbOrVrvGkl4Irob2Wlpa2v79By5+dMOG9ZproBnNzwu8vm6dOnUKwqJbsmSxItUAThhNMFsU+FBoiOTARlWrVg3W1Od3Ebn7QDVs3MjTAkuXLnEdsH4nKn1/lQrAaD5Jibvli0eIRo0au/8dXSG6V6/eiqlWlZqanf38s2M4swGERcBKs+ctEIrdfFp0t0YUqjM7O+viR89mZCiuUZR9b7RodEhwZcvMzKwgLLdDfx2Qm3Fb1bRyUVEFPrT1jz+kOvnaykdHB+fRpeXMLiN8ry0zSsAY4CbMcyBSFfe9ar8KyTialIYNGwdgKyWH23T1TbGFndfbacTIZ/QvbxIJO+9I0Ivn1Injw4YO4cwGEBYBK015+x0lJMSqVyuwT/S2bVtVyVGUg7TQNm7YIHcbOiIiIjIissCHsjIzJTOZpgZnKUl0ujdaFnq9X7z8t19lGwDYqlazvgp2//79sm0WjW9OTZtdMG/km5On2OU/jEa1rP5B27Bp/bfffs2ZDSAsApZp0rTZ0EeGWzK5i37NPFHQgMmHDh2WvvwFaKw+k3Zs326TGhCxcePrPZ59FMkt1YI1Uv+R8IfcsJENGsRY/v1BVbWoclGWb6OJiXw0oSjXXXdB1/jKlSr17nOH3EyS7inCjX84nePGvpqammoDQFgErHLPPf3r1K1rTSwr6EVcc7fIZUVbENYu7ty580TaSU2qbGrWrOUlJEmWkiKKzKGoRyiHw16tWjVPC2zeslEuHZeMjCxTpoy1a/vllwulw6K+z0JDQy/+++NPPFmpUiUzlzBj2AFVHT7sEc5sAGERsNLYseM0xYLKxQJjy5FDB0Xu0Mg+hwajrZuq2TJlb84GzoIF8/2KCP9061HsHW7z2F9H7m6m/pwDe/cH6VGVO3SO7x2b9MRcwsNt+twl7FpODxc/2r/qrxsWEWH9BUOYCOpClC5dtsBH/v3qWCEzTIFmyx3SXFO1lOTdU/8zmTMbQFgELFOpUqUbmjQ1O220h7xz9uxZzd1hxc/UqT9rydIlwVZWPy5a5GmsRO8bFBERUaNGDcvX59Dhg0F4RC1dsliROJw0W/ESJbw8fuTwIX9TtevAE7Vq17F8G1evXiVf8a3ZwiMLzq8NGsR0vb27kOnpop0X1J1zZs/auHGjDQBhEbBKr149lcA0EExLOyn9XP2aF1Sl9Pnns7Izz/l7c9xV4SMaeW6waCafHyuonejlP5lKtcEUinJtnbpek5/kxDkhDofl25iVlSXdTEL/qNWt63FLx4x5rlz58ia/vGmq+tzoZzizAYRFwDLt298iTE6eK0SBrc1U6S4YmrZ586agKqU5sz61SfU+1rNT27Y3ey08yWSQduJkEB5OK+LjJfa7nm+cnud9+d//fpS4We++NRvX0vrps5OSksy0qA0L8zb1zhvj31QcIZqJvKiX1fFjqU898RgnN4CwiP8vfly06NVXXwnoW5S/qrxsj9ycuJM3yHCej/6Z8lhIvOrelL3BswsWLpiX+vffUqMhCj0ZdO7S1csyTqfs1B2aNuuzz4LtcJUbCUj/unJTm5s8Pbp/3/7zilTzvfD134Fo/JqWlmaiyaLS0mt+rV+/wW2dOiuK2TmWVq+MXzB/LudPgLCIIm5PSsrQB+9/+cVnf/o+sMOnRVesKHfnS7Gpmk04bSI8PDzfQ6EhDuEaatmvKJTXFUZzZs/44P0g2RHv/3e65n/vV/fo4m3adfC+2LX16snVImma+suyn4PtoE1JSZH70pHpea6//fv3Sczv7BrCW/Tp09fybTybfkq61lwTyrlLDTj//PMvlCxd2jWkuCT9k+d0qhMnvHX8xAlOpABhEUVTUlLSsEeG9r+z76ZNm/SrklO1ffzxzMC9nadpi32KRMIWGRFx8SvEL1+umhgJUFXVZT8HRRIaP37cyZNpcluiKMpDDz3kfZkQY7o/qQZ5mrYtYUuwHbp/px6VG2SxZ89eHsPigQNyTQQVu/Xn9u1/bldN3ITWPy9t27a95GIT3pooFLvJ4aP0HTF82MOcTgHCIoqg18e+2v+uOzasXePMrWvRU9evBU2RYpWEzVs0E8GuzrXXFnSdtpvsNrM7KfHAgb8u775YtXLlVwu/0KQG1dMDUN26daMvNSlfTExDM3Hg9bGvBdXRe/bsOYlM473h5pn0dLnyNzFyoUdHDh+2afJ1fj5+g2oQE9O5W3fhuhkt5Eck13bv2jWFkXQAwiKKVkx8rWXzJt9+9aUxUl1udwr9QqraxM7t21etWhWg9z2XdU76ufol+Zprql/898RdO01OMaJHtPHjX7+8e2TkyKdsqmS/bEWITp27XnKxcuXKyvVxcd2Z1b77JohmeDt+4kTGmXSJgoou7y1S796dqEkFJod1E1rmWbdunfSBre/oWjVq+bjws889XzbqKpODWulH7+ezPmMkHYCwiKLg45kzbr7pxu++/lJzsZ3f1M9o96fq3n17SiDeeueOHSeOHZO9FhnXv9atW1/8UHp6usm5YfRyWL9m9Y4/t1+unTLw7ruyz52TSwb6tpcqU7rPHf0uueTd/QfK9kY3Wnjqh8YLz40JksP4THq6TC2sECUuavN6QeaTHNtJq1zF+lmhFX1nGWsjeWwXCy/u+8Lj3hivuIb+MfNBUmzamFEjOccChEVcwWbNmtWubZv/Tn8nMyM9b4IQdyfjnCupq527npwSd+1cs2aN5SuwYP5c6bnL9LUrFhYWF5e/d+e2bducTqdmevZi1ekcOeLJy7Jf7u1/V1LSLulN0MPigHv/5ePCZcuWkw7WmqYuXfxTcnJS4RfRyZNp+f7yzddfyQ1AWL2mx0HLl/38sxFAZbqi26KjK1q+1WtWr3IdFZIHRv36Mb4vHBMT06lLV5ONF/VPd9qJ46NGPMXJFiAs4sqzedOm2zp2eGfqfzLST6uqD7FE094aP87y1fjhu+9UTXaiW2FrUL9+QTHCmiEA9UJJPXp07GuvFPKuGTiwf+KuXU6nbIYWIqpC9J133eN7JjAVqVV18AP/KuQi+v777x5/bFi+P9odDol0rR9F5cqV8/RoiGsmZbnq3bJly1q+4Q4To3zr+bVkyZJ+PeXZ514I159iopJe/x7iVNXfl//23fffcdYFCIu4Yixf/tuA/nc/POTBtOPHNGdOLxYfsqL21/591t6MHvSvgaqaLX2bSwjl5va3XPz35OQkzaI11BPbD99+M/PDwhtGZ2D/uxN3/GmittXo3aNf431fvGmz5ian0Dl9+vTgQfcXWhG9PWXyG6+9UqFC/oaGq+Wa1Wq2Kp7vFy9b9osm1aFEKOLiOm/zEnfvtsk3WrTFNPD7i8Ebb0502E3NQyOMz5Fz4vhxhw8d4vQLEBYR7NLT0+8dOGDkyBGJO3cYM9ppqusus6/XHv0pn33y8eqVKy1ZmVmffrJj2zabiZvFYWFhvXoXMI5dkpkLagF50Tnjg/fXrV0b6L3zd2pqj+6367vGZiYpChFzXcPmzZv7/oxeffqaHyRla8KWIQ8WRl588803Z38+y5mdVf2aaheFZKkxgBSl8fU3eDzmpfeFpoV7bQpZ+PQvV7EtWvj7rOsbN27RsqUwPSfnuYyMJx9/lJMwQFhE8Dp16tRTjz96a7s2u/7cZsvOcmcp15jVxo+vlz/X7xdffN78+sydPWva21OyVVWTqlZ0D3dyW9fuBT56NiPd2tLLzs5+bNjQBfMCOCPF/HlzenTpdOSv/Zqptpaa3W5///0P/H1ak9iWmrlxUlTVmbBly+AHBwWuiE6cOHHPnXd8vWCOpn/PEUqVqvnD4vaEBN8Lzz2jnf6/LM1WukwZT4vt2LZV7i508ciSV1eubG0JfPPN14qrd7xauFeNNydMKhFZ0mRaVDVtz57kyZMmcjYGCIsIUp1uu3XlinhN1Ux2+9CffvLEcf3VzLzI2Ff+PWXyJKdsnY2+DorOrgwYcG+BC2zfvl26B4DnMKROnvjWG+PGBmLvPPbo8MkTJzid2SZXWij2gffJVO/17t1bKMJ8ESUkbO7bt08gimj69OndunZOTtpttK+1aYoQLeLiLj4w/C8yUbJkZBnPYTEjI0PiUNKLMrx4ccsLQcnrty61ryqUj5Z+65HPjBIOh9kjxKnOnTtn8+bNnJABwiKCUQNXWyXNkgil58Vjqbd17LBqld/3ow8fOdKvd88fvv1aM3Gn1X1HLDY2Ljq6fIELZGdlB6IMnU7nN18uvKN3r507d1j1mjNnfNAqtuna1StV6UmazyuW6rVqPzR4iMRz27ZtW7ZslKtgzUzTbdOczgMpe25sFffZJx9bVURLFi/u17f3px/NyD53NmdgJ5vQE2OxYmHnL2a0E/A/LOqvVyw0zMsChw4d1KR2Ru3adSw/AtcbgyzKHyYhxeTHfbz11o6xca1sRvWzmS8VxsiLY0Y/wwkZICwiGN3QpIkrCAhLXk2/YqUdP/b4o8PfeMOPYavHvvJyz26d9+3bq5oOrXqqeexJj4NxpB5L1bSAFKOqqvv3pdw/sP/okU8nJiaaean/vvdeh/ZtP3hvutEqznVv0ey+EbZZs2ZLP7vjrbe6wqIm//a23MCYeW7aO1N7dO/244+LzGxQfPzvAwf2f/G50ftS9mjOrPODadlyUflaBKafPiXRaVff5AYxDbwtIDkIpU0LwCGYfka+fYWiKA1irjPz7hMnTioRHq6ZbLzo+qr5zIinOScDhEUEncGDh9hMRYGCroWa9tXCLzq0v3n8uNcPHvQ4M97in/43bOiQVi2afeeqUDQIU8e8foFvFhtX9aIma/+sm5kOIj5suNPp/HXZLwPv7vfwkIe+WDDPr6d/MX/e4Afvj4tt/tGMD06npTmdqrBipyh2+xh/ekBf7NHHHnfd5TQVBdzbYgwDqGqH/zrw8ksv9ure7b33ph/3Z9z1TRs3THzrzVvathnx1BO7/tyeO1D8P+0p9QMgJCQ037Okuwl7CT8r4n+XnmuxdZubLD/2DuV+yoTvTTNzd6j+DU1xNUs1Y9SoMa7xiUwdsfrHZ/lvyxYuXMhpGfCLgyJAIWjStOn6tWstrPAwLt6qdjrt5FcLF3z95RcRkZG1a9d1aqp+pXRVHYqD+/cePnzYmP9C0/ImpTWqrzQT96CNrgnK8y/+29MCn38+S2hqoAvTXYyb1q/bvGH9xAlv1W8Q07jx9ZElSw4cmL8ZZfKePb/8vHT/vn36P3ZsTdADmeoa5FnLTSqa2SpFTdhDuvXo2bVbd5Mbdd/9D8z44H0zUTtvW9x1x5oz+9BfBz6aOWPmjA+rVbsm5rrrKleuXLduvbiLmhvOnz/v0MGDf277Y/v27ZnGvDXahUPE5y+l+tflryTbuzfFdYda86s89aMxNtbjADc7/vxTLsrrm38u0/q2EH8dPJyXm33dzLxviEK0uvFGkyvQ4dZbv/n2mw1rVqnmvo/pe3fShPGdOncpHlaMMzNAWEQQuWfAfRvWb7A5A9Kez5in4eTJ9evXXHCFcl3YVEvvx2l2+6BBD3kZRVnTAnQLusBM4Ep92dlbt2zemrBF/4/33n3bltuqMu+6mBcu3bWSFq+E4mh0/Q2jRo02/0oPPDj4yy+/TD16xNoi0g85YRP79iTpP+6iMX6dX0RGLbX7C4XRyd2XHejMzn8Yu2rdpBotev5qcebMGenpFvv1u8Py4y0r85z03QF9lVSnBV+ipk59u03rluq5syZfR9+Djwx9cMbMTzgzA76e7CkCFILYFi3Kl482P15agRfcvH+5f9w3qa1/I6FUrVb9gUEPellmuzF2Y2GXrStyGFlHdTr1H/1CmPfjvvGedy/VYkIpVabMtGnTrXq9p0eMVBQlQCXkLiWdM18R6YWmOvPytC+5p/VFlWQHXQM+SzRa7NWrt6cHExK2SDSvdUVe68tw165dWVlZZl6hXfv2lqzJs8+/oNjdc0bLH9L6kbBj27Z3pk6xASAsIqj07NM7EGHxwjwn8n4sf3G7XZk79xJtBF1z/RVqWjTGqhQ+/VgcFIWIKBn5448/WfiabW9u16x5c0WxclXdA7/nDf/usXzM3Y7PzMzKuUPr18nXazI+l5kpM26OEMWLh1l+mJ08ecLMFw4Lv6t07Hib/s1TMXE8uz8L+lerzz/7eOvWrZyZAcIigsiAgffqeSugbyE0Le/H2ld2OBzP+dCHI2VPsla4NYtGDNJ8+rE2KZaILLV4yS+Wb87kqe+GhJWwWRdt88Z+d8dBj+Xjcy7Tc0/nLl3P/0tGRkZ62kmbP98SFE01BlksG+VlmV1//qn5cRjkrp4iospXsHy//P7br0J15hWpv0dL1apVLFyZiZOnFA8vId19XuRNCqDZRo14gjMzQFhEcBk8dJjdbr/iVlso4vaevTpdGBEKdOLEiSK/E/WLdHjJUkuW/hyg1//PlKlGHAlwJbSZzc+3ZqdPnZLrl1OqVClvp2b/a1iF695sdHS05VvtcISYeXrp0qWtXZ+HH3lUmB120cj9x1KPvfjCCzYAhEUEj3sGDIyqYLRcFMEaBQpgV2LjWo0YOeqSCyYnJ2dnZdlE0dx3OT1hhYgsVXrxkp8D90aNGjU2GoYq9rxeSkGUFG226AoV8/3x668W+nub1dV12hbluafUipUrJHojaa5brJUrV7F8w00OZVC2XJS169OrT99G1zcx/41CT/mLF//4/XffcXIGCIsIIqPHPCfsdi3IQoDHcCDENdVrTJrsU0P4o0ePuHpia0Vyx+lFYbfba9Wt/7/FSwP9Xg8+NPiWDh3sij3o6heFKFU6f3VgaEiov7vcdUdcVK9Rw3uBy61jREREIGKy9ProT6xVs5bla/TOtOkOR4jZUbr1n+zs8W+8xpkZICwiiMTGxrZr1z4wnV6tpOnXOEW5pkbN2bN9Hfj6wP79rjEei2bVolDsjZs0/eSTTwvn7V555bX6DWKEEnSNFspF5a8kW7FihUz4stnKly/v6eGVK1b4NZpgTlo1Ji6339S2neVbvWPHnxJf8HJbB9qiK0YHYl88M3q0UMyO/qbviaxzmQP6383JGSAsIoi88trr4ZGRQR6phN1erXqNz+f4MUXK9q1/aIEfkbuwy8H1Yw8Juf/BwW+/M60w3/r9GTPrxcQE1fcKIUTN2rUvitE5a+h7l3PN9VLNY1t4WiDjzBmbPy3y3G/tGifSFohuZELyWa58qdi7dL09ELuja7fuNetca7pNizHSVtKunR99NJOTM0BYRBD54suvFUfwDggv7I7uPXrOnuPfZHpaUbwBrSehslFR//1w5qBBgwr/3T/8cGZsy9ZGXgyWstUcFx23yclJMrVuXhNY4u7E3FTpV+qxlQgvUbt2HWu3ec3qVSaDpskxGr345JNPNbPVz8I9vv20d6du2rSRkzNAWESwiIws+dTTI+3BdzPaqKGxO3r36SsxK8nGDRtk3tG4dRiMH0MhhB6MWrZu892in+rXq3+5VmPipMkD7rvfERrqmsjxspeJ0rNXn3x/dA2u6Xd+igiPqFXLY0u+NGNcQ5lY5sx2Wr7VRw4flvw0uaaUvKp8hZCQkMDtlEeGDReOEOnmH+4n6h9Du0288OwYTs4AYRFBpGfvPiNHPxtUI+nooU1PsePfnPDU0yOkrjoyM8foJdC77x3Blpv1oihVuszr4996c8LEy74yQ4Y+PPXd6XrgsAdBf5eszMzz/3Pr1q0SK6UfJU7NW6o7mXZKbhDBG264wfJNTkxMlKs1dxeMMzCTfObp339A3brX2uQ/QcJ9HdQ/vX+nHh05ciQnZ4CwiCBye4+eT454Rk9LlysD5M7t4fq3IySu9Y2Ll/5y40WTufno6NGjmp9DFusbroSEPPn0yCnv/rd4eLhQjL8I22XrI2OUhhCq4riz/8BFPy1pfWObIDlUGje+/tf4VY2aNBPG0SIKeZocd9s7/X1LlykdXfGCoXP+/vuolrvLfR/5XH+puvUaeFng3Jl0/bfq8/lZ5AxsZMt2Wl+zeOjQQbknugpGxMTEBHoHTZn6rnsOQCmq68dYXdXp/P3XX75YMJ+TM0BYRBDp1bvPM6OfFUK5jCMv6u9evET46+PeeGvCJDOvkzMwnvD9fY3rU6VoI3zc0OSGn5ct79y1h3EfXBFaoYchd0y02UPatu+wevWa4cMfDcKj5d1p04cMfSQ8MtJEMpDnmu9OXBSkDtlyo6tfsxV7uTO7f//+nFG+/R+Wu0H9BpZveGpqqnQ6d4+4FOhdExERMWTIEPNvpH9T01TnfyZPPHdh/TEAwiIus27deyz46turq1az5VQaFXJQtHfp3uPnX5ffdFNbMy/01Vdf+j0ys2vxEiXC8/7y3PMvzP/i60bX32APcRRCUeStsF4Kegy6+ZYOs2bPHfv6uGA+Wgbee9/ipcs6dOykKnYR+Hv37r2gueZtURwhrdvkP0ikJxdu1Kixp4eWLP5JukOP5XOl6PbuTTHTvygurmVhHBgD761Rp64lA3NmZ2Y+NuxhzswAYRHBpWLFivMXLLyn/0CtUKoYjQu/njMUe7uOt8WvXjfm2efMv2ZGRobcmtSrV+/8v1SuXHna9Pc//nT2dQ0bKi4iMCVgczWX1JUuU+b2Hr1Wrt3w2thx1atXvyIOmJf+/fLq1Ws7d71dsdsDVER5edp4fUVp3KTZnHkLRo8ec9F+PyNR6yaMPl6Rnh41qqhlPgX6qoqb27W3vBCcqql2EcXDwgrnqDAGARWKyK0pN7PTEzZvmvbOVM7MAGERQWfYsOH/W7wkNi7OuDyfd7HMd6HSjKEuLv1T4BXaGDJQUUKLhXa4tePK1WtffXWsVSufmLgrb/38uCzZbFnZBTT/r1mz1nsfzJy/8OuOnToXLxGuKJJ1rhc/K2+uRWF3tGjZ6oWXXl7009Jnxjx7JR4wzz3/QvyqtUMfGV4hOtphpMaCp5H0qeDyVZ0ZTUeFIyREz+73D3poxep1706bXqVKAdPoJWze7C5SJfeX4sOPXvgtW7XytC7x8fGuF1Ny/ufLCxpfKxyK3XGV54G+5ezctevs2bM+blf+H/0rmVDa3dKh0A6JoQ8/ojhChKvWWZFbZ9eP/lKzPv1469Y/OC0DOSdFrYjOToYr17FjxyZPfOu3ZcuysjKN4zN3Hoi8sOhb5Y2WFxT0K4cqjO9FDerX73fnXXpStHydhw9/ZN2qVTZXlYbPfVw0u90+dfoH1zdu7H25RYt+WLUiftXKladOpf2TbC4sFk8ZSLi7zLjma7MpolzZcg0axHTu0rWNudvuwSY19e+ZMz6M/z3+8KG/RO4ddv238CHAu0ooZ1weI3PZ7TXq1GnWLFZPHpd8X32/FC9RImXPHt8nXNHXqmXrNhUqeEx1KSkp+/bt1SOa/prpp05d8nuCpqmVKlctU6ZMeHjE1VdXsrxstyQknDl96q+/DijCj8oFfa2qVa+pb0XLli0L80jYk5KSmZn599Ejhw7+5dcK55Odnd00NvaaatdwQgYIiwhqv/322/fff7th3bozZ9I1VXOPTXPJQzannZkrJQlFlC1brkWLuNi4Vrfc0j5wq3r3XXck795trJ7PYdEYscOuvDV5qr56Pr5Lyt6UX5ct25O0e/u27Xv3peR8fj2Uh7uyq3TpMuEREc2aNq1Rq7YeE6+99tqifcxkZ2ctXbx4/fp1CQkJ6afTjx1P1Y8cNTc1XpBmcutZQ+z2ipWurlmrRlS5qzp07Ngg5jo+egBAWMSVZ/78edu3b0s7cXLbtj+yMrNUzako9owzGe4uqpqqhoeH24z/t9WvXz8kJKRajRq1atXp0qVL4axemxtbZZ0962fNoi0kNPS3+FUm33rOnNnuaUX+6bBiE2FhYV27deOwcftiwQJNU/WvDup58zGqqtqv350UDgAQFlGU7dixw+nMVlWtWrVqXnoMFIKWcc01p9OvmkVdsWLFlv2+kv0IAAhmDooAV64guam6ds0a41tXTiNCX5OiEKJ6jVrsRABAkKM3NGBWWtpJuYHxwiMjKD0AAGERKOLWrl4tFxYrVKhA6QEACItAEWd3OORa/taqxW1oAABhESjq1q1bI9FRTAhRvjw1iwAAwiJQ5D9FQsjMsKIo7QtxcgsAAAiLwOWxNyVFomaRUasAAIRF4P8FiWpF/SmVK11N0QEACItAEffjj4tkukJrmt3BKKcAAMIiUNSdPHFC5oayEA0bNaL0AACERaCI27c3Ra7toep0UnoAAMIiUOTD4l6JZwkh2rZrT+kBAAiLQBF3+vRpmbBoDLjDpw8AQFgEirqkpCSZcXNstriWLSk9AABhESjinM5sPzJi7iA7whFqkxjHGwAAwiJwBVm/bq1EPxUhxNVXV6L0AACERaCICwsLk5uIpWy5KEoPAEBYBIq4H374Qe6JUVHlKD0AAGERKOKEIjRN873toWbLWbZu3XqUHgCAsAgUcRs3bDAioD93ojWjyaIQ9G4BABAWgSJPVVWjZlHxI/npKVFPinfffQ+lBwAgLAJFXHJyslFF6FvForDl3IS2K3zuAABXDAdFAEiLiooqUayYKy36VLnoFEKozqioqyg6AMCVQsgN/AEAAADCIgAAAAiLAAAAAGERAAAAhEUAAAAQFgEAAEBYBAAAAGERAAAAhEUAAAAQFgEAAEBYBAAAAGERAAAAhEUAAACAsAgAAADCIgAAAAiLAAAAICwCAACAsAgAAADCIgAAAAiLAAAAICwCAACAsAgAAADCIgAAAEBYBAAAAGERAAAAhEUAAAAQFgEAAEBYBAAAAGERAAAAhEUAAAAQFgEAAEBYBAAAAGERAAAAhEVKAQAAAIRFAAAAEBYBAABAWAQAAABhEQAAAIRFAAAAEBYBAABAWAQAAABhEQAAAIRFAAAAEBYBAAAAwiIAAAAIiwAAACAsAgAAgLAIAAAAwiIAAAAIiwAAACAsAgAAgLAIAAAAwiIAAAAIiwAAAABhEQAAAIRFAAAAEBYBAABAWAQAAABhEQAAAIRFAAAAEBYBAABAWAQAAABhEQAAAIRFAAAAEBYJiwAAACAsAgAAgLAIAAAAwiIAAAAIiwAAACAsAgAAgLAIAAAAwiIAAAAIiwAAACAsAgAAgLAIAAAAEBYBAABAWAQAAABhEQAAAIRFAAAAEBYBAABAWAQAAABhEQAAAIRFAAAAEBYBAABAWAQAAAAIiwAAACAsAgAAgLAIAAAAwiIAAAAIiwAAACAsAgAAgLAIAAAAwiIAAAAIiwAAACAsAgAAgLBIWAQAAABhEQAAAIRFAAAAEBYBAABAWAQAAABhEQAAAIRFAAAAEBYBAABAWAQAAABhEQAAAIRFAAAAgLAIAAAAwiIAAAAIiwAAACAsAgAAgLAIAAAAwiIAAAAIiwAAACAsAgAAgLAIAAAAwiIAAABAWAQAAABhEQAAAIRFAAAAEBYBAABAWAQAAABhEQAAAIRFAAAAEBYBAABAWAQAAABhEQAAAIRFwiIAAAAIiwAAACAsAgAAgLAIAAAAwiIAAAAIiwAAACAsAgAAgLAIAAAAwiIAAAAIiwAAACAsAgAAAIRFAAAAEBYBAABAWAQAAABhEQAAAIRFAAAAEBYBAABAWAQAAABhEQAAAIRFAAAAEBYBAAAAwiIAAAAIiwAAACAsAgAAgLAIAAAAwiIAAAAIiwAAACAsAgAAgLAIAAAAwiIAAAAIiwAAAABhEQAAAIRFAAAAEBYBAABAWAQAAABhEQAAAIRFAAAAEBYBAABAWAQAAABhEQAAAIRFAAAAEBYBAAAAwiIAAAAIiwAAACAsAgAAgLAIAACAy+L/BBgAmOhzdmRiaFAAAAAASUVORK5CYII=;" parent="1" vertex="1">
          <mxGeometry x="420" y="366" width="164.91" height="110" as="geometry" />
        </mxCell>
        <mxCell id="lMRZlrQa5z_mroCtVpvL-2" value="" style="shape=image;verticalLabelPosition=bottom;labelBackgroundColor=default;verticalAlign=top;aspect=fixed;imageAspect=0;image=data:image/jpeg,/9j/4AAQSkZJRgABAQAAAQABAAD/2wBDAAIBAQEBAQIBAQECAgICAgQDAgICAgUEBAMEBgUGBgYFBgYGBwkIBgcJBwYGCAsICQoKCgoKBggLDAsKDAkKCgr/2wBDAQICAgICAgUDAwUKBwYHCgoKCgoKCgoKCgoKCgoKCgoKCgoKCgoKCgoKCgoKCgoKCgoKCgoKCgoKCgoKCgoKCgr/wgARCAHfAn4DASIAAhEBAxEB/8QAHQABAAICAwEBAAAAAAAAAAAAAAcIBgkBBAUCA//EABwBAQACAwEBAQAAAAAAAAAAAAADBAECBQYHCP/aAAwDAQACEAMQAAABv8AAAAAAAAAAAAAAAAAAAAAAAAAAAAAAAAAAAAAAAAAAAAAAAAAAAAAAAAAAAAAAAAAAAAAAAAAAAAAAAAAAAAAAAAAAAAAAAAAAAAAAAAAAAAAAAAAAAAAAAAAAAAAAAAAAAAAAAAAAAAAAAAAAAAAAAAAAAAAAAAAAAAAAAAAAAAAAAAAAAAAAAAAAAAAAAAAAAAAAAAAAAAAAAAAAAAAAAAAA+Omx3wyAAAAAAAAAAAAAAAAAAAAAAAAAAAAAArrYrVjZg9/Y5qkupPDZogCjbn9D8Rb629eL58e+VKj92aO1bp/rBJ+6r3E0eY0vuXSi3X2mqpSFTszWYhHvl6n0lyxzsIZfL153/wBPV6pumxPLI6p2aeXI1e7brlbVjtiqrKOu0sotlKpYKy2R217KuuG7628Y/kEMgMgAAAAAAAAAAAAAAAAAYfrAtRVjp0Lp1mySr++u7DVhsw1n1pst6tx/C2xX6wFPbe5x0audrCJY7bYp34Tj37UvyPYiKSuGu/ZbS+eKcKW7pNNmW4fU1sz1H6bbIKVSXj8ml5JUhmZubdx7TZuT07X6k9+Ve/B9c0K2j6uNo+WsG89GNs7GtjYFqcuRtiqV44t6Jhs4Vhz7bXzdmGvPYZVsBUsgAAAAAAAAAAAAAAAAD5NUNwfxtHdqw9RnaTF8e0QVfvPRizDlXSnPssYDhGxnG4ZqxwpPckSaRbj9npBhk1sy1l3emi/WquxWMY95702bk6za7Ttqe29YjjMHft4XsyaWCyXpd2nZx7T1ucrVbr2fjqRfIqz6lNo8UT9Zg1Nbea32QxnWxAW16IbEMkxXa7ila1f296eF2q8hWDiqValkI9wAAAAAAAAAAAAAAAAAAAGvzYGljjSSyPcMZAAAAAAAAAAAAAAAAAAAAAAAAAAAAAAAAAAAAAAAAAOPjD9HxyfThlyAAAAAAAAAAAAAAAAAAAAAAAAAAAAAAAAAAAcHL58fDrUt8O63ibNbfztT+tDFcbJ4tXz0cVyead2l9Dr775x3OMkVq8ClvbRFsoXNPobAAAAAAAAAAAAAAAAAAAAAAAAAAAAAAPmrU5VW81P5sIbEep8h6ON5fGno/Mb+ddnzuzx9vW72NPVQepXWf/Q+gUa//UzVS9nXtV+kcyL+d+zG/q4DkX6D49m+cQy/6hSDIAAAAAAAAAAAAAAAAAAAAAAAAAAAACokxxBJPwvq5EPz/wBlxyY63b+E2vZ+fw+upH5v5fUZ+uqy1keqi/HoIoFtgwCPPqZT2+h4e1Htnqh27/XXnfsXsAAAAAAAAAAAAAAAAAAAAAAAAAAAAAeTUm5cecCbq/ULTR+RfQ8jiTgOOeDt/t5zuV/uvk/9T3FT2IhlHB+NNnH5/lGHnbPtWMjiR/2x5YN8AAAAAAAAAAAAAAAAAAAAAAAAAAAAAOOWESxlaSo/gLk3c/PP5N9By68QdHWZupXCj3v6WybyNXVwvX1r3uX5+7PPzxFXVjlbw/U/ejvX+5lB7kfsnzGZOOfSRAAAAAAAAAAAAAAAAAAAAAAAAAAAAAAcRzI7VVf97QOdvXivknUdrbbUtc2xiGfzJ29W1xqeSx+lOLtV5xnJfxr6b5hqZ469FXwefK+zrPr+ME4dHv2jmbPP31wTB9IpXGcc9TUAAAAAAAAAAAAAAAAAAAAAAAAAAAAABxzxhSzW5uioVwJbKzLqF2afA+vr9hnaLrA+y8zINuWprbz88u/rx1efhXU7WE5t+c+aj2L/AHyr1FfwIz9rLPrPMnHk+z88AAAAAAAAAAAAAAAAAAAAAAAAAAAAAACp8t10qT4K1K1YNrHnfP7kKRt++M92Kt15ojmH31WwkYwvB3zG3tm5qBZz5N0cj/Dz6rb48vYpA1hP1p5/6cOlry45AAAAAAAAAAAAAAAAAAAAAAAAAAAAAAI11u7ao05e2miw11Kz/N78l/vULBIFi7fUnvB9i50SdOxun7iybga8VRz2ntJs8a/49sY3Y+RVGmGuNv8A8akYls43u+xSe7FzAXNQAAAAAAAAAAAAAAAAAAAAAAAAAAAAHj+ww18e3dqhvkJ5072vXtfNL3o7B6S+N9KpbEdNdrYx6cWJTH4uZ8mWMe70pr68cTe5VbYTlVaeYGzSDbad7P5fr3IgnwAAAAAAAAAAAAAAAAAAAAAAAAAAAAAA+fph4WJSSobw1ENw3M2q/rg3N0/3Vbz6xXuc/aklx/zsB0NdIG2qG7nW9dRnfuFidfMo2lgyc7mA6OgAAAAAAAAAAAAAAAAAAAAAAAAAAAAAAAAHHx+jD8/r6Hy+h8PsfD7Hz9AGQAAAAAAAAAAAAAAAAAAAAAAAAAAAAAAAAAAAAAAAAAAAAAAAAAAAAAAAAAAAAAAAAAAAAAAAAAAAAAAAAAAAAAAAAAAAAAAAAAAAAAAAAAAAAAAAAAAAAAAAAAAAAAAAAAAAAAAAAAAAAAAAAAAAAAAAAAAAAAAAAAAAAAAAAAAAAAAAAAAAAAAAAAAAAAAAAAAAAAAAAAAAAAAAAAAAAAAAAAAAAAAAAAAAAAAAAAAAAAAAAAAAAAAAAAAAAAAAAAAAAAAAAAAAAAAAAAAAAAAAAAAAAAAAAAAAH//EADQQAAEDBAECBAQFBAIDAAAAAAYEBQcBAgMIABE3EBIVUBMUFmAXGDA1NiAhMTI4QXCQoP/aAAgBAQABBQL/ANyl99mKxI6Ni+73/YKW3SNW5LtHKuHOyuyV+Z/1Nj61pDetNa0mD9B8XZGxlaNnZRUPXDt8VjQYCbHyU8msqOTszx1Hhud0PPcNgyv6rk+SY7WR9fqwV+tx/wAN9iwwEJzWcAUGQodvhfKqHyFmKWktNRgGbnPbwRwZWLbQHXqUC9E6IlKlMiTke1oC0qRva0DdlWxeXFnhbXleia5UfttApvWRxO4XI6rhkdi4C2q9wBuzOBbCgZ2t8C3+KMf71yXe2EY9yXt1RsTMFztETsVybMA9FlY0lsZlLFx42pj9od0arGtRmWzMfiyxu29Fs2cZKWAwavZz8nxhoZFA1kOJI2oFfWo+1mLPp2SubE95IjgZ0lDDOEFY4xTallilEUzfDjpKyxn1WjNAm2AilpjJ41IelK0L20OleG6C4PwybYaakttyKaGzMya6jg87Fb1XUBBQfQrHIae0SzGsQSQZOUmHQzrHGzayTIAY4zOIWLVJrG/C3+KJs+RKo/NJK3H3YqSCJmjHuTKHbWJ+5u0Qt67HOtBP9PyfJBLQQBY0GLjQ92gOlQqG6+xC2yS4y/rwEIgvWUvVsEjez7clfyzPF8lKIvd33ah7IWVCtUtq0WfkxSObE95Nfez+znwfwk1tpfWYpwnGkZUajTYySskmM8rtVdPP2nZ2uSst6vfB/CfmyHZvWrvBw2/sZ0uyWxe3Yludw/DranjrBs/vyiCAt9BADhb/ABRoxY87r+CET8kuIY1aI/jHuTKHbWJ+5rw1pXxpz4nMMKdnD1M5gOogt8Zy3AuyfU8ci8xPzeojHaFYniyBJQZT/wBnnAr+sJLjGAgDKB/gBEHNgAFCAnepxZ6mH7E95Ia2CVR2jnCcrZPs1JDVOd52mblqSUYKm+OxYAnuWW+UHjTz9p22DFVrlCE40i+0122TZEEtuat61q1q7wcNv5mM47MwkcijnHpiIbUhK5qftsI/b8QeQ0LBbhb/ABRj/euS72wjHuTKHbWJ+5vNoxb0ORXJ7cXZPBwt9JRltaFK3wXgyYccWueTZ+JbMEebANUkGfs11PNbh1Lj3Gstttst5JcTDcpJ41g8ai912J7yAsMBslw806iiKVY0NDYwtpzHwvIjXdp+OfM5tco6uEozithi1G4tyB3QvupYOvUjOqsfsykuDGcyFQHXoPj4i48asATy9IkmFvRm8dCMhIlmn41flZdTAFDkbm9E0oOLkeFwRIdUY/QuXH9lREjIOavgo2/vbSkf2YZ1iBxch5I8Xjcnt6HUuPUqulKW0vstyWlWr0dkCrBp8P25Y/hsIjbN7ZOEPSORSZD4+6isb/8AnauXHbymSy7nmpzr9mEpM0CjOrb5Q2HcscDyCy46um0ANwe2tFblDGSsZIj+x+vTnWnHt7bB9szur1sqeosqBEmsz4sngRB4wWJl2vjiJrmfY16E1zASsZO3dacJSpiE278flDtzLsyralobLAkZqLbqXe/1r0pMmwtQp4u2Fm1OjeZDKZVfwlMKN7B4Y1OfHyxypzGoxZePTCzESJZDBNH7hZs6jYEbCPLZAcLbbbKZ/lLkxwFNcms8NyitI6e/H5UmCxCDgS67HxWgRL8SqKxr5hIvKGPiVUnW4vD/ALxqs2PmNwsrwlEhk2bn8DkGEVEfSUwSG2216VaqLY0kCTxJUrqElSMzHPfds3S+jEhT4kiP+ixNgxZLclacpRPk5nwUwY8rq2YeWPbNk4mX4b6p81qrHNIPni8oQKrFqKQ2P14SGnH1BtC3DDH8uUr19923HVLgFijvhfRv+ul91nFbAOOlDSMIMa0r+TNog9xSd2m4odjyczC4kX5lwF0p0YkHpqR2a/rbYy2nT314aET22BGZVFZJ1/QxqrsXPnbbrnFjGCLCLCOSIT9GoriuYFbaMGXM63C24NfkGRcg9+kaPmmQ2MPLHoeeOv6Tu2pyBD5MmPhOIMhK9I0/yqecFS5LGcUIrG+PPf5ejlNIAvEBmqKxr+lStSI7HyaY2YOBE2sUgEXhdf5/ElZ8ZAwQqcOAebUr19/v/wBXZt+gJ18M6lOmsKZyBxyvrE4SBwzdCz1nmo+DzPPhXpSjehNyB3T4a4cdeTqwPrS5gpYgNBf36vJFjhskRvy6/leK5PB55jvzwiJIEUOkw0Yyh/nmzojVlNuajZ+jp4X062nc0CwHyOp2QSG78dcCNc3azOSoeJ1C9Kjsw58ai337p4beG+RgCIOJbRmRqVpWk7Bn1iBXW1t5Dci2RwUjZcOlaLleP7I4ujwKwE3iTwpWJGtJNebC9NsSOEjDyt0aX6QXbW5yIGkhp/j3/Y4BVSByl2RPlhKRcB4KXW23UnAFqEGvBZc+p3geRrG9n508CtAjzJzmM8DMzNAezpRZMzsY+l1txZHV4p9gNdfMZbGwzeMOwQavIG+R5Jw7IjbOke2nQfmxX4ckeq0qA3xX2ZLFaxIgwplqRbZy7FiuvxsPzj3yXSjELBWvA5kHou+wJFk9PFksqsrQSN8sa4Lm3IgcnwTdIu2UQPFJ9iO5Ks/vZdr1NGRw5IGJhwtMKS8xFaXxz57E+IwcFMxSkgTYkST7A3RHaqR2L5nIY6Uhchi52gM4oCzjGV6qkCHjARy9EfIjAR2aTiQtaMEaMk2k75IDKLhzt8YFnl0ZUrSWDr1gWPbYgxSNLa0jVwTDOCMmmnTnXw6+/SyIYzYCMtdCRub0a96G14ttEYtNBzZePnnkynjCqi0aiZ9VhwVLLUVNz5rl8hcNRCOrnIkwRm7oXXXGNbrbddmF5UR2Jw9GWH1RDRHaaCeS7MYC6bL9cB/G16a3b367/W6zCKuBlFIQXcJNTLfM8a+Sc0cUR8eI+QDNjnHGVtlcYKr5StstjAMyZPq/Yq++2Vc9935WNc/NnlSRG/MyHGYr8+qsONmV9kmdq3Y5Rtopu5pl8T6Y9+e2NuIW06Wy1AzgNbRhjjailaPF9l0iAnSYPptiOY8mARNWuWq9Y2HVuBrIJbKm02OM3/FbWnu5tAyekSraWWV111HZPUZHnnutBEmRylamtkamiz39ybELsilfUnL8S3XySM3E+t8pZrh7VEjUZEchH+vDy7bbPBKzMwk2u15EhjOP3AlcULprTrT3c3RZfhuvmv8ALpeyfDa557rQrERw5Pdl1KW/YFeOI+1OfFwm94OXo5DxcJtdHmTCN8hoDjoDHHl1dTTYvutn/wCK2tPdzb1l+fjvmsDL6TFE891RHYCQQtk1qksnkht+wenOnOlOdKcLmGhMOM+nKRpdpB1aTnhPfrnivjKOdXcAAWSCHYDsV/JQi4Jj+EWHTnVFOaFP5JkfIah/HEqP7Frzyc8nPLzpzy88vPLzy88vOn/xmf/EADMRAAICAQMCBAMECwAAAAAAAAECAAMRBBIhEzEQIjJQBUBRI0FCYRUgJDM0UmBwcYCB/9oACAEDAQE/Af79ah9lfEod9+1ozKg5htrU4JmRjM69X18OtVnGZd/ELBbWTgGEgd4LqycZ8NS7KRiN6TNOzOhyZTtRCd0BDDIiurdobqgcZnf5S9wbgD2EssXqh1mq5rENKdDMqKnT+ftLDWU8qxmI0oldNZrGZeoNwE1Fa14KzVMcASwblwEiZ2DM1fcQ1X49U037tpp131MJTZtqYRcppifrEx08bJpgwTB+UqpO4s8tpDJ5RLgy0AGbLzXgdoaPsdomy9k2mCrNGwxU1KjaI9Tm0NNRW1gGJbV1Fn7V2gziX1NYRiMMrKamRCDNPW1a8yzTuXO2GsGvZFXU1jAib9vm+WsrFgwYBgY/pOvTWONwEarHeFDMeHTfGcew0Um9sCfoxf5ojmtdpE2o45jaKpu3Et0Vg5xmVBKbMuJ5bK/LL6tw3j2D4XtDMPA8zbCjj0mWX21eoRXr1mR+KaHK2lTDUNzfnG4b5+i1qbNwlFy3LkfqPRWTyI+mNbdRI6HeLK5aT0yYfYNFb0rpmNYieqXa4IOFlOtuttC/d4M4rwAI3Ky5ClhHsPUs+sRibV3TVVdWn/E07hLgxiurdpqjYqZTvKDf0/tZrbDdZgDtCjAZ9hKkrkTRapLE2N3mrpNNv5T4Z98JUmOMrKqFDFjPiDL1Nq+w6W/pWebtLNEtp30mObNvTvH/AGU3GmzIlmrK35UcSrV02iajVpUvHJjEscn2FACcGDT6qobqzkR9VqihR18Bg4zNi7iPpMLtzCqhsRginEbHsFWqto4WJrdQ44SW02L5mGIAeMTbyxJn4IDufMGepDnPsK2MnaNfa/qMBzON5M+6LxOd2QY/f/U7/8QAQxEAAQIEAwQGBgcECwAAAAAAAQIDAAQFEQYSIRMxQVEHImFxgZEUMlChscEQFSNAQlLRJGLh8CUzNENgcHKAgpLx/9oACAECAQE/Af8APqVbDjusTLbeyC0QlClmyYSw6oXAjKb2j0Z+276PR3rXtEv/AGRXj8ILDqU3IgAk2EGXeSLkfRJtoWlVxCNViJpKW3U5RExncWBltCklJsYU2tHrCBLvEXtBBH3SWQoS5I3mGWl7AtriSFnjAmHPSbcLw8Fia+z3w0l1LvWX4QlAM6YemHUvGxiWUUy6lRKOrduFRJJF1GGjkXdTgMO5dobRI+qqEvSxVoiJv+uTE0rI+lUPtZ30nnCyHJsJ5Q5m2189uyJwoLl0/dHphOQJbhiYUhy6jpDCkKmlFMbSVS4VHfCZn9ozmNpKoczjfBfAmdoIU5JqVnMNvISwpPOJV1DROaGH9ks33GD6Fe+sG19IlnkNJOaEmygYmHkOOAiJp1DqgUw1NNhsBW8Ql0pdzwtUo6cxh3Z5upu+7NOqZVcQo5lX/wAJ4gxnTaRM+h7UB3jfh/GJTFE0pOYLCx/PKJTEkm9o71T7oSpK05k6iL6QKjIKeLIdTn5Zhfy3wDf2BifEkrhelKm3tTuSOZgdM0w42pDsta+l0q1HbqCInpaWqTqn5V/OpWpC9F+e5Xnfshp+ckXbtEpUIkcb1aWFnuuO2KN0hyYUOuWzyOoitz8/iWjej054NrPkscgrhCEzlDquynUkEHrX394+REYaxEZGaTT5lzOlQzNr/MP1G4wPv/TU28ZeUcHqXUPHT6AbQl9xC8wOsS89T3NJtm/anQ+W6KPhfD1dNpaYcSeWQH5xPYfqeAtnNJd2kss2Olik++OkHZVOiy0+nUpOW/NJF0/CJasqVT2Gr9dpzq9yt484pqnVyDanN9vv+I6BKYjpS5N/jqDyPAxXqBUMPz5lZlOvA8COY+ndEpiKsSSbNO6RTsYoq8m5TKjoHBYEbr8DbhrFNqLCaa/SaiTl3pI3gg8uPnFFl0zNdl2L6FaR74QnInLy9gdI9BRWcOOLCftGusk8e0eUFMU+jVSqO7OUaKz2D4xh7o0cq76mnZtCVJ9ZKeuR32098V7o3w9h7DcxOXU44kaXNtd24Rc3vEpJ/WAcecdCAneVce7mYZdXLTKXGzqk3HhGFayiuUNqZzAqtZX+rj7AKUq3wqjUhfrS6P8AqP0itSym6BMNyabHIbW0jo/ry6LidC3T1XOqrx/jGMaa/VsNTMqwLqUnTwIPyiZlpiUeLbyClQ4GMJN0R+phuqkhnedbecYpaw4uoD6h1Ry617+MdHFKTh2nGYemBldt1TplV+sStWkpyZUw0q5GvL/32AYbrDLNTVKPqtmNk9/KOkPA0zRJ9U/KJ+wUb6fgPb2cowBiNOI6AgqP2rfVV8j4/GOmpxYVKthGmpvbeeV42LuTPbSJGaMlMh0cP53xXcTzk7KMy5cuUnMSOB4JHYkfEx0QyL6pZ+ovEkrskE8h7BxvhZ+t01RktHRr32+cUXpJnqT/AEbiFkqtpe3Wt+8Pxd8U6XordQ+s8LzCLq9ZkmwUOy+qTy4RiKgyuJaQZeYT1t6f3VRQ8By8zhRTFQds4Sco/JYnhxvxivYPrlAfKHmiRwUNQYw1hGqYhng2lBCeJI4RSqbL0iRblGPVQLewao9NyrO2Y1twh7GGCK8sy1aZyOJ06w+ChrEngfBJqTU9T5sdVQVlzBQNuHMfRMIX6S4toJGQX1Tc8eNxygT885JS7xKbO5dLbr+MMuT31iqUBSAEg3y8z3wicnHZdxwKAyDkd+/nEl9Yzcq28VpGYA+rz/5RKOuOJUF7wSPYFbwPhuvqLky1Zf5k6H+fCJzo3whJOfa1Eo7ym/yihVykuMpp8lMekLaT2XI79xhc2GFOuTLZSlQHFPbfj2x6Uh1mUaZaUG0qTZRtr77+6CQ3WwvuT5hX6RMSYlJRxA/vV38+HkIeRLKobW2NrJFu02iXbQ2yAkW9gztLkKinLMthY7REnhWiU53ayjQbVzG+FMMybjtmySpO/VXPifCEB70CUa2aroKb6chrDud5xbyUnTIRpqct728IddM08jIk2FzqLcLCGlyy5Ntp9pRygfhO8RTQQ2rSwubew7AxaLCLCLCLa/7Jv//EAFoQAAEDAwAFBQkKBw0ECwAAAAECAwQABREGEhMhMRQiQVFxBxAjMkJhgZGhFTNQUmB1sbKz0SRDYnJ0gsEWICUwNDZTY3OSk5Thg6Lw8RcmRGVwkJagwtLT/9oACAEBAAY/Av8AzlC44sJSBvJPCiiDcWHiniGnQrHq+QEGJo4WeXTVqOs6jW1G0+bzkj1GkuvyobyAec2qGBreqot7gqyzLjoea7FDP8bdsHpY+3bq3YPFp/P+Er+Jl3JlIK48VxxIVwJCSajtyJEJTTkhKVNck3YJ9feumkEBKC9DguOtBwc3WA3Zq12e5yIbkebcGWHUclAwlawncR21eLnY1qTKZhKLa0cUdah2DJq18k0kuLzj1waQttcpaw6CsZCgTv8AhGcWnNZiB+CMfqeN/v61WpMnW/hC1tyF63kO+Wj0bvXS7A+5l60yNQf2S+cn26w9Hef0VuVruLz8bV2y47aNUayQrdlQzuNMSLhLcefksJdYhR05d1VDIJ6E+mg3cNFJzLJPvrbqVkejdTV8sE9EmM8OY4j6PMfNXuppRdkRWycNg71LPUlI3mii06Mz5KR5bq0t5+mkx7zZ50AKPv251Ce3G/2U1cbdKQ8w8gLadbVkKHXS5kyQhpppJU444rCUjrJpUWzQZly1TgvNgIbPYVb/AGUmJerfLtuscB5YDjY7SN49VXR9lwLQvk5QpJyCNu3UK4XGU2wwzHkKdddVhKRsVbzRjWWyzJ6EnBfyGkq7M7/WBXuTE2sOfjKYsrHhOvVI4/T3vdTSe5pYQrc0jGVunqSnprVg6ITXG/juvoQfVvpFoSt63zXDhpiYBhw9SVDd68d+5/N731DUP9Kb+sO9fvmt76taP/PcX7VNS71cc7CJGW89qpydVIyajWuy6EvQpc18NMyvc9lPOVu3lKs1ERe4E19U0LLXJUJxzcZzrEdYqUqxMSWXIZTtmZSEg4VnBGCcjce8/avcu5v8neU2p9lpvVUQcZGV7xTU1oEIdbC06wwcEZpdtgbe6PtnC+R42aT1a54+jNBF00VnMNk++NOpcx6N1IvejlyRKjr3a6Og9RHEH4IuOkqyMxYxLWelw7kD+8RVttUkFxC5W2llXShPPVntxj00i/Mt5dtMgLJ/ql81Xt1D6KatzzmGLq0Y6s8Nfij2jH63evPax9g3R0q0ouj8aAs4acG92QRu3Z4AcM+ao98sdxek2953ZL5RjXaXjI3jGQcHo6Kl6Huunk82OXmkdTqPvTn+6KtK7feGIrcPaiQXgSdVWrvSBxPN81BFzM2c7jnOOSNQegJx+2oS7A86YlwbWUtvK1i2pGM7+rnCp1mfcKkwp2Wc+SlYzj1gn01D0AgvlLbjXKZ2qfH34Qn2E+qpF7vs15i3R3NkBHxruuYyRk8AMj10ZGgd5eTIT/2a4LBSvsUBzfbTtmkrCnIkOEy4pPAlLjQP0VH0fscYuyZK9VtH0k+YcaP/AFseN02eQdmNhrdWPGx58+jopudGUWZcGSFJ/JWk01cE7kOtBwZ6iM0/c9ZS0OPbG3M/FbzhI9PHtNNxdILaufMLfh5KpLiOd+SEkYFOWSBIWqMtpMiGpZ5wQc7j2EGrdeZ7mvJCCzJUfKWg6ufSMH0965/N731DSJTXjNrCk56xX8pg/wCT/wBak2K5PwyxLZU09qRcHVNaP/PcX7VNaQfMsn7JVWD52Y+uK92WW8vWqQHfPs1c1X7D+rTEJ1zDNzaVGX+d4yfaMfrVdNIgvVXHiK2J/rDzUf7xFWzR9SdZD8oGR/Zp5y/YDTOj1qeLT92WpC1p6GUgaw9OUjszUq5aRFfufB1QWW1au2WejPQAB7RUzSDQ+3KhSrewXygPrWl1Cd6gdYnozwpmx7Y8kuqS063ndrgEoV253frfBFu0Mjuc6U6ZMgD4idyfWSf7lP3uFZmJbz0fYjbrI1BkE8OwVLsU/Q+CWZkdbLnhl8FDFM3GG5qPMOpcaWOhQOQag6RRPEmRkO4+Lkbx6Duq89rH2DdWX+yc+1XUva8eUsbPt1x+zNWso4BD+t2bFdNWWyxG5F0kNbTw3iMI4ZOOJO/d5qce0euVyeQlWFKhpSy2k9WsMD21C/6T3ZitptORcrnB74uvjCjjyavn6Qz9Cql6/ARWNTs1P+dMbLjyx7adufux3rt2x/t26tv9k/8AZK713H/eb/2hrWZ8cWHm9uxphi2kiQt5IYKV6p187t/Rvr+V3r/1Kn/9qEu+WWTMdSjVS5LvDLignqypzhvpuy6RNJblKkuOqaS4FagON2Ru6O9c/m976hqMy6nKVyEBQ6xmv5jwvUfvq8XS26HxWZDFvcWy6kHKVBPHjWj/AM9xftU1pB8yyfslVYPnZj64qTZpycsy462XR+SoYpTROpMtc7j1ONr+8VY4Ftd5t51ZigD+LCRgH0q/3auWmT7e5hsRY5/KVzlewJ/vVaEnxOQKx26//KpD/c2fnJjoexIES6iONfHSCtOd1LiS13Z1p1BS425pEgpUk8QRtd4q2Xq+WFMSLEkh111UxpW4dGEKJ+CLjPbc1mGHOTRvzEbvacn01bJelWjKJE+RGDz7i3nAefzgMBXQCBX8ymf8w7/9qMWyxNjAlxkvRWwSQnyVDJ84z+tUrRV9zwlskazQ/qnN/wBbW9dXntY+wbr9zmkMN2ZbASWNiRtGM8QM7iPNUezWWA9Gt0dzanlGNd1eMAkDcMZPrqZpxJZIYYZMaMo+U4rBVjsH1qXNkIOylQmlMK6MAapHrHtpjRnSSeqDIiLcyrky1h7WWVZ5gPXjf1VEassNaIduDgaed3KdK9XJx0DmjFXz9IZ+hVQtO4rJUwtnkssgeIoElJPbkj9WpFnvFvdk26Q5tfAEa7S8YJAO45AHqpUXQGyvofWMcruCU+D7EAnPp9Rr3YuBy/Lt0B544xz1LaJ9tW3+yf8Asld67/Ob/wBoat7TqcpVbmgoHpGoKk2KSFoVGe1orvx288xYpoaXJkQpqUAP6jBW2s9adXf6KPuHAnXB3yRs9kj0lW/2VA0lEXYctjJd2OtramejPT3rn83vfUNQ/wBKb+sO9fvmt76taP8Az3F+1TWkHzLJ+yVVg+dmPrjve7TLeGbrHDv+0TzVf/E/rVDizn9dMCNsI/mRrqV9KjVtguN6rz7XKZH5zm/2DA9FRNKrewVqtS1cpSkb9ivHO9BA9ZqSxdYjj9unau2DPjtqHBQzx47x91bVNzlrVj3pMJWfbupWi9p0ekMs8lU6mVIdGscEbtQcOPX8DlOePVQkO3i7OIC9YtLeb53mJ1KCEJwBwA70Vq+vyWVw1KLL0VSQedjIOQd24U/eLNdJ77r8fYqTJWnVxkHgEjfuq89rH2DdWSTdWFx5qWXAmdFwF42q9yuhQoPXfSSbLaBzsUIS3nzE7/ZimrRZoSI8ZhOq0y2NyRQtek0HaBByy82dVxo9aT/wK1kaYTQznxCwjW9f+lHROMzJZCnkuuTkOAvuKTnGSRjG87gKkxLHMlP8rcSp1cpSTw4YwBTtsucRt+O8jVdZdTlKhSpFlvE2AFH3nc6hPZnf7TSZd5ly7mpJyGniEN+kJ3n10/ofcddqI8lCfwUhJRqqChjdjoFN6T2253B+QylSWxIcRqjWGDwSOjvSLy7eLq2ZL6nXGm3W8AqOTjKKagR87NltKEZPQBikw9J7WHS37y+g6rjfYr9nCibfpfOaR0JdZQs+sYoO3i63Cdj8XrhtB9Qz7aZtdtjpajx2w2y0nglI4DvPQJIOzfaU25g9BGKani8XZYadC0tKebwcHODzO9KsFx1thMYU07szg4IxuqLpAxdro65DkJeZbddb1dZJyM4RUuxz9bYzIy2XdQ4OqoYOKi6RRrvdHXIb4dZbddb1dYcM4R3mIGkCn2zGcK2HoywFpzxG8Hdw9VIkSLtdH0oUDsVuthKvMcIrAFFtxIIIwQemlzraZNrcWclERQLWfzVcPQQKzJ0zmKR8VEZKT699Km2CK8uUtvZqlyndZer1dAHDq+DbhfrHo05JiStkWXW3UdDSEnid28GrXYb5G2MphpW2a1wrVytSuI7f/HfKlgdtZSoGuPyNevd9lpZjsJypSjXu0zdHbFo+hREMZOu4PjYHGtbRnuzz0KHBD6Mp+k1tJUaHpBGRx2eAsj0b69zdObLLskkblbVsqRmhcLFc2ZTSuC2XM/Ip68XaWllhhGs4tRobRLjOjFsdzqf0v+p9lIhx2dm20kJQkDcAK5q+9yXSGyR5ScfjEbx6eNKv/cf0petknjyR46za/NQ0f7sejDsF0HHLmE6za/PSLpYrk1JYWNy21Z7yrrfrk3HZT0rPHsor0N0AulxaHB8o2aT66RB0l7ml0iKWrCNXnZowIUtbExHjwpaC24PQa3fIBGh+iFqFwuy8a6ehvzbuJobbuVc8De5qr+jFM2fuo3dy0WtC8qZbjKCc+f8A1pmBog6wYiE8zYrznznz9/cvd1GvCo9Vc1dKt17tzUllXFDqc0vSHuMXwsZ3u2mSctuemnoXdB0Xl266Mp5scIJS8fyVU3p9p9qOk77dbArWajJ6/OqglAwBwApbsptPghr5Kc8KavdgmJj3WP4SBcGeOeo+antDtMGOT363c2Q2fxw+OPh+4aSSCPwZglAPlK6B66d7pmk6Nrc7qtTqC5+LQrf7e9sZ0Nt5HxXUAiuX2AOWmV/TQVao9KeBoMaQxxLZHCfFTv8A1kfdQejOBaT0j95uXntrwqaNv0gtjUlvHN1hvT2Hoo37QKc9crMk5kW53eWx/wAdNcrtjmo+gfhEVfjNmuFLtK3D7i3pwuQVHgw90opjujaJJ2d5tXOIT+PaHjINRdIIR5r6Ocn4qukfD1m0ZSvCbjdkbXzpH/OmorKcIbbCUgdQH70uttgKV4xHTW/f21vJRW1U8nV6814a4sJ7XRXg7rHP+2FZiykK/MVmsK6sEVE7p+hajHYckpTPZb4DJ+g01MbO51sKFSGWvf4uJUU9S0b6izzwkMJKh6KnaBrXqw7unlkBPQlflJHw9E0khIKl2mcHFY+If9QKg3hhWRIjIX7P4jAO6tW5aOQ5GfjR01yu+6NtsFQykRtfXV2AUJ/cykXmAEL5zMwc0io1/GA94slA6FjjU+yLRnbx1anmX0VAEn32OjYu/nJ3VgimoA8VtWEdmagtNE7KxQto+pJ8o8B8PSLTcWgtiS0W3UnqNOdyrSRz8GWsuWOYrg4g+R2/xPNQmtdxgZ66XHulojvBxOFbVoZpywx1qNnvOVwyo+9ujyK1VcDV10PkyktLkyeVwm1btZKuOPT3nLhIVhDDZWo9gq46fzU+Hvc1TiSf6Mbk/D5tNwTqOo58SUjxmXOgih3Oe6LzLggfgUzyJaPv/it1C3zNykrC2HelCxwNbN3xhxNRZ12t4dUhkoS7nCkHiCCKRH2y16oxrLO81clwM6xQEqI+LnfVmiI8mAjh2fIBxhrwdwi+Ft0lPjIcFFm77rjb3DHmpPHWHT++2kuU22Ota8URM0kaWoeQxzz7KNisFvf1UNFan3Rgd8E8e/Lszo3SGFIp/uO6SSlLbQM2x1w9HxfkDylkakLSaOcjoD6e/tJL6EJHErVitgzMVOkZwlmInWye2s2W2NWGGrg8/wC+GpFt0ivUh91l0oXruHHeusojxWEAes9/NPXKbelwYAdIjRWUjWUnrJoNl1S8eUrie9B7pVmg5dtjwU64hXk9lRNI4DgKZDQJA8k9I+QDESbMejOxX9rHkx/HQa/g/uxXVCfirQDXP7stwKen8HTTl3030hn3NthBW6Zb+EYHmFXBEWwRWIUONm0x0t+Jg71dp7wvzDWGLijW3fHHHvXaP1soPtPfwa5GWX5MjoaZb3eujZ4llcYWE62VuDh3n7fMKCh1opWkmr53M5C8tx3dtG8wrXlyW2k9biwK12lhSehST8gWtG4jmHbo7hzH9GmoMp5zDTy9i6fMr/WsipCY7WZMPwzHo4j1Vg9Fe6UporjPJ2cgJ4gddJnWK6NPpUOAVvHo74ct0OGUhktrelta+M9Qr90Fs0jfRJOdbDQ1d/RiuU3KahtCRznXDin7xo1LkPSmiNkuDK5oQOJUBTunsaDFfduLGyacnydnnHTWO6DpmuU84cR7XaF6yW+08BV57nNylrkR7cQqO44rJTno+QNynQNZciyx2ti2PKBypf0isjIUk+o03t3hy6KkIlIzx6lVqqGQeIp9lhrEWT4WMfMejvR2LBPdYfddShBaXjiajxLhNXIfQ0Nq8vio/vOWXKNyvZ7osIjmqX0ZoXfljwvlxdDDTcU6qE63FIA6AKiaNTYDT7UdlKdRxOd9LXbLYxHATv2aMVpLpc4Pf5+ybPmHyBvzTm/wrO7zbJNOaWaOxfwCQrLzaB7yr7qbvdod3pPhGzwWnqNJk22QESAPDRVHnJNOGK1mbCBcj/ldaaLbgwQd4q1zJqwlpuYgrJ6N9B1tWQoZBFGRNkoaQOK3FYFbSJJQ6nrbVnvBxSASnxfNXu9dOctoasRroaHX296XLK+eWylsdZNQUyUYelgyHe1W/wCQKBeY/wDB93iN7R5PFtacjNB1pbUqJJa6N6VCnL7oO2Xo55y4flI7OuhLgPPRJLKvzSKRZtN9WPI4JljxF9vVR050VZ20GTzn0sb9mrr3dFdlNaCaRry4BiE+ekfFNKvmkzwMWEgrEdfirX0dtGyyksxJyFHUQBqhxPm/eF1w7hUDQO0kriR39eYpPDdxpuIynCWkBKR2fIG2aRtI/k0hTTh8yuH0UI+uZNvJ58VZ4edPVQmWO4JKsc9hRwtPoom72tAePCSzuXSntFbm3LR0Nvc1VKh3SySHoA98jyEFTeO2pzV7ufufrZdajR0jneYdlHTjQ28y5D9vdS6W3EjxQd/CrQ5YkKXBdjbR0IP43pBpy8XJ521sRE63Klp1TrdAT11Ht3dItshpLifwa4LaIDies0JFtu7LqVfFcFF2RLQAOtWK/cX3PkKlzJB1NdneEUZ1yIeuksZku/F/JHyCuFjW3rqU3rtD8pO+kaR6Ig3G3ut62E++t+YittCkPRJDR6MpIpLF+jNT2x5Sty6DdxW9BcP9KnKfXU56x3qNIU8EtjZugneeqrL3VO5S9/CEdH4ZGCt5Wk78fdXuHp1bnLVP1NnJjzW9VtzrwTuNP3XQPT0wIbp2imHcKaFMze6L3T492LSxsYSJCQ3n176/c9pM5bS2hOAw84kFA/ZXuxo3p89bWCrGs1JSW89WaEaR3aXJKf6JDySceuimy3iCZJ98kvSUFw1y/lbewxnba3Nx20EI0khFROABJT99FmTpBDbWOKVyEgiv5zwP80n76KrZcGZAT4xZcCser4fVDfIbhS3CphSvFQs8U+aj7s2VpSz4shsYV66U7otf+xqUn9tH+BhISOmO5rVs39GJyesbE05os/Y3pzUh3KGGvHQrpwKRFk6F3Xan8XJtfD0mrtsmdmPc9eE4xjdVs8If5e10/lCrgAs+T0+amlaxz7q8fXUJlxRIUhYIz5qudsKiNlMWBv8APXLNpzzDDHHz1aoBUSOVBSuwVdkJURh/rrI1zVx2uf5T0/D7tpujAcZeThSTWvGkLu1gUrwCpI1tn+ST0Ulu/wAV6C4eJA1kVrR9LYm/47mr9Nc/SuB/jimdMNAb6w5ruh1TbCve3AfoqMuJP/C1tDas7JWQrp6KvH6Av6KhXGTnUYlIcXjqCql6Q2jX2D2NXaDB4U186/fVv7FVLdAwJSEuilaP7cbQXTGrnfjjSrgpOUxIxOfOau/6RVv0Iu2iwkT3n9XbqZBG+iLXAajhe9QaRjPyAct1xiIeZdGFtuJyDTl57nTgwd6oDh4fmmsRoLK1DxmtthQ9BrCrU03+e+KC9I7ywwjpSxzlU/oi2ww8whes1tm/GSekGn9H7jokypEpstr2Thzg9VICNBHWUuKAQudP2etmnLRpDovyic2N8dh5WqP1id9Jl260twmTdeYw0Tgceurf2Kq2X1KfHaLZNamscdVXO+qTvW6G0nsq7/pFWnTSJbUmAmUFFzab8CgPkFryoqSvocG5Q9Na9nvut/VzW9cevjWBY7Y6fjJlKSP20i/6cXtlhDadVEWAngntNXO56P2hAlsQ1KblOc5YOONW124z3XlGe1vcXnyhVw/V+imvnX76t/Yqm7klO+LJB9B70R0pwqSpTp9NXf8ASaa0fssppMdnxAprNT5mkshC1MOhLeojHyE4d6ZYNrsxKZLZX1ZqPdU6WuqMd9LgSWhvwc0/pK9pK4wp7GW0tg4pPc4/dAvUTK23KNnvqPpO3pIt8sZ8GWwM1J0ZkO7NMhONpjxa/ng7/giouj7CspishsHHHFS9JHNJ3GTKc1tmGhur+eTv+CKlQ2rqqUJCwrKk4x8h+Ncf/Zqf/8QALRABAAICAQMDBAMAAgIDAAAAAQARITFBUWFxEIGhUJGxwSBg8NHxMOFwkKD/2gAIAQEAAT8h/wDuUvhCrgdVgoutu8rf0CzI7SmLctgC44OguZo0OS6pLIUDtRffP/ltWLFpkMIA6O//AA+iVhwga4xKJGrlKII8Hr6MhYUpbQJZfeBcSjUBQIhY3Dx5/wDqDkOKuLojvDHACLd63xf1HKOSpxk391n0qGWsMbPy4ZYQJbci/wCVH0zIo7qAtsHghV3LsQNQc8reBqUdUoc6v6mWKD/OQ5BwrJBiLEvTwV8GOajdYqp9wC681KcZMO8Ya+FATeOXyBNw3BXSy1GADmJVH8hQW+PmLgy/wiM49UmQFGxIImxIQ8CpdqOp7r/ZEbMgvK5ligXbJUzWNmqF9Cq0Qo3gZ4Z0XlI2H3CCeH7w4IiTqyU9rHgf5X8H+d1ekIima3DajlocQJaEXZS6IrXO4f8AAVA3nsq/adNhiTC2C7e56DEdjCSpHBhQg5p6oALOHMPBQ4JN2PhHeV9UKLuV+MRnSLBPbqF0Qc/SCei/X5kD7zeUcmfa/wCxOAdQLcBf4U5gvhrDf84vrlL4LzPa7lLIOaBi5RE1ltVggGSlNM3FDkA4qWnSy0FmLlnMwmRhdjOJtC5N3Z0PL5S3iU9VZQulN53mD/MK5Me3vTgJtHoXX2F51vxMKF6KQAICxpvAqCHS/AcNXkD23Fj/ANZejtcV93Bo6o4AU8BAADYTdelsx70F8QF51bXcqbNLjQP2m6fJ6dnDa3cg33VpczVgdWL1Zl5bkkWG0e+QGLDWtajb3Be/qvq6YyWWWT/qcHtOBQaabw/whRNl5SrQ6D8ZeNlE5xbL5rMZWAKY3D/7HH5jEkCzTWLpbzEtO24q+jObA1Todw9WKyqRghQ0yZ3Fxc+wVU7D4r6RjxYTOneynmLqbEJ6jqfg7ygCE2DUncuzvGJ7IBXsEJWUHC3YHy2Lx6yk7Jsvm/bQ3+D7X+alUwTLNQaFhSxyeB8DZSvS6uG0uT+Dde9O+rx09L5w8B7D9xxDjvn/AIlrOAAwTQvMfiyoxXoRK3LYZsr0xFLwUAqFKWTXdmNkN5oSqdsKZ9b4H3H0hE9CVjqeVCD+CFE2ec5AF/DLMlh4Ax6hKQHvMP3c32wzGBTuA8KJ1RfeX+IAhfEYplTDNMOTB3SlKoNI7nIYX5tEy61WfpG188bOWdo8GCAllTQcI2emfu4YhEiufbQmbe5nqUPBv4+kreS1DVhYtVslKt8ShixWXIKAoLdnpAuOBhiPDBmwBTGVIPURrs6xxDbAwy5QClNKhw3lt1vwpva7ol89YMG8Ibc1gckqrPGJyCCAimje7xtWFO8u+lgIVXCUbL9GsnH8M+0puq0hJL9pyVuK7leETZFqKAtMtYDuxjVu4J0jQf7J7OMjt6zBbgMOtF9P438H+d1fxhRNnPOoKMR/YXvDOqXe0fsvAHE5bmynivePCFzZbDw8UNogAYwDb00ApFhw3o7lg+x9PlDhIcULYUFbX1r6PaCKVaph3HUQLugGnmqe8AAKgUB09K8BCyMNlWe3mPBErnOm0HN6Xr6SnGD4gVkj5BZwkwzJo9otXudyYVv1/uN5VyrbECK3k98G+RtUWNEf1eOp9pARl8QC34MUOdy35DZZQUwZesUGow3wjFa8c+0Y6+YWDFBfhew16kDOvgNmtCnFVVMpHNiWRy2efS8UPlUkiFvN+YZoG7GsLfBLUGWq3pZrutckbIHBo/x1Lzjy/LT4pmlymq0HseiZABQrlnjDL8xshQQLWOKe/plEn0rkrhzMU9fZceUsNJOqF3V3OGmZoSuhvDKX0T0RhAbRWCKqxXCJP60heoU80j3gAwBQBqJRcPYHhjY2KAttT7COkyjL9qH8I5l9pmigC0jQcfTdg9B9QQWm0QblNLAwtRwNP/zsoFsIoHVQqidn0QGX/S+fZxnYOV6SiYgELqBT3aIYEebZ9/wRh/8AUeQ+DBbYwQ8gs9yBrrAH41Bs/o6NolzFQ2q4BMQLehV56/EmkcLYUECwvvLKxqIVqg/bjh7MCNMveO/sfMpc6v8AAGjwssSgP+7pAjcDMuc1dBtfEVP7QXj7/EOgbEvemrhLE/5sH2lle/r94zZtwK7qmXYmWvBKF60/aXmgRPR3d8CZ7zgX8pyvXG2wdI91NE+ILPa+LdPaXlDjzOBa/wBmUtzeHeUHmNgPVEdLjzQCpqFQe0aFD6HtddcQ2JjtIaY2nrqXKZqace7Bsv69lKPXDXv0lMV2WoyOj8CMbLxn5qlxfljUe/i9ppV9L37zzYmkqCRa3LhyMd5h6HSKMU7kfM0LZc7IsTAjwZ07PeE8GF1zfJ3gcjqJsio6SdR2R4nT2GNjqMalMILz8z3H686Qh04dPuftDfavgAP4M1HkFe6cEHQTBKfcjKt7dCYHqFSX+D6f88vQTdP4R1UtlmEhh/jp8mOheJZoq7uXKfah2uteQSY9vcI5S8RjnK/9j69K75D1hX2hJBfhwos+/wDGiUSjpDHIGR1GHPje+9S0/YdjuH8TNRGvtnjskx4e5x+43BBb6aC395tZt/Vv+IohI4TqSmZao9qYLW5pX8sYZ+umyRLZ0xZRgZa56B0hhf8AOs3P02gKuOnMcFglIe+4apsKbi8n4lrs+niP4itQ4jrq0MkIu53AjLWPB81B2+vJe40FNBjbX6g9GbdPSOvGU6/yuL6Fm0SGnc5X9EaqCAF1h3B8gHaA5YrgSF7yMoRccihU1V37n19qYcE4jKBfR1LmQDVo49yGv4L0iQjMiHzOV8xbIr+YxUNahqMfgBTEtuENa5R1THzU3WFGwvPk6f0DC1iVFhQ4yb9y33hrEpuIiJhAfeNlK3u1piV+aVsvDGZ9u4jWtS1ysyoXrz/weuQcbiHkNgOHdekocHbC/ECIRNkunbtfeLgMzhyeGGS/rwsqCvAgFFGnvKFxCn+8tjDUsqLNu2QW3WSlmANYPdKss2uLCBaMGA/v3lFzN5Z/tA16E+pKZS01lKVu3iX87PcEzcLezbIkUO3e4VzUDXxVV+7LjJzA+/1+nSUdIltixTgX7tfaWGKc1go/CANCWTEZGsy/tfhHE6UiQZ1B2OnclrElf3tj00ndbChXfrmXc3wcrRwIwwzQYvdUZ3wruPhiOBXVubsaAjyGA6sr98RarLp/QBYtZA4wB5pPaXJt46QgfcSZUx4EiOuKTkiaV9PZn2tnojO4mVEEmg3RyxgAxFouVacql7Dn9EYpBJZ1sXMiGigxQy/eIvQs7+8vOecx0+vsbATU+qSRnkcd+5i2isrvpa2F67I5O8sSgwyP2BEG0yGRmtEAQ5MFgZpEixeoAvdnaulHxDWZvVkSKUx6xmb731lECcXw6ImVQAM27f0Gx40K1PKKq5zbHBuP75F/103WWFqOEieqo3J+aB6TRVTY6kvB2ptIetR9zpHSn4Y7mcuhKolDWWHu7QZuOIfcDnmGDdls3wDEIMYnAK/oNmNITRX8lEnxnfX1EoVNTJ7/ALQ1LUIL7b94ptir59My4sFrlXCZIOaG7m2LVBVBmCOfgVWvdHSDS8ulOs7L0hIavCisgqIssP2hR8tRH3YYsOmjcNJz3gCD7Vd2SjRKS4B+vPAp3u6geaT3gJIVvJya7Tm0g0oVFAdd5Nz/ADciCVb1GJk6tEsR1qWkLyNw5eWvuFaYYyO9Dk8OqjmNMvGLPgiw7K3DFW3DmtsUdBMWAsqf4Rj6b28bvEe4Rj5OFS8tp9XpUPnH76AvoiBSKhRe768bRUavJVZB+AuTykUYnwX4bjMGc6ztSP14hovSTkHPiXLP5o+RdalzBVYp/YlHwUPiqIs2lsIhjAKh2ZyfG2dxZgwIbBtBrIiFtAmV4RULFVzkh1ykDsheM6lwhMta9v19nxfzh0TdxfkpJnos+cwY4y952QdW8LEZxR55fz5Urh901eZmo4WU3KXcWkNrzSWvtDpHY0BqfN/mP8HpL08Kd2Z+Y0aSem8Ok4fSWsBH93F3huKvFrmY6ZEK9v6BUxz4fRIPPF/vrsy51uPeyGeXSFOU10/MURCUc1YwDOYgMJK8HuiGQrFKjdL7Eo7ks3Sy/gCVAoKBvlyn+z0gfBNzcOs288XH9mVgufN/iVWkKLGWox91/QTcSpjX9gIpq8ntmtfOFugj7HJ+UKA10gN1vfMI6WdHoXTM4ZYRfE/HPk/zCr/DiDaL5rWD046wGxYm/wB0uIRQIuVMnQIJ/QqdJTp6TsR2VOS8W4GjGoRU+JjYiEoVuFcNYWc4r3mnvjFiMvoAsq9zBczSd22DcdGhqHv9FWADC4CuIf0UWVNrhtqkKenuZhzOq5Sec8//AMZn/9oADAMBAAIAAwAAABAAAAAAAAAAAAAAAAAAAAAAAAAAAAAAAAAAAAAAAAAAAAAAAAAAAAAAAAAAAAAAAAAAAAAAAAAAAAAAAAAAAAAAAAAAAAAAAAAAAAAAAAAAAAAAAAAAAAAAAAAAAAAAAAAAAAAAAAAAAAAAAAAAAAAAAAAAAAAAAAAAAAAAAAAAAAAAAAAAAAAAAAAAAAAAAAAAAAAAAAAAAAAAAAAAAAAAAAAAA8AAAAAAAAAAAAAAAAAAAAAAAAAAAAAABSEI44wslQIEkBYOmQIEYMAAAAAAAAAAAAAAAAAAA2YM6MvfNVCxCtW/wPG4OkAAAAAAAAAAAAAAAAAARyOBNxhgd1aqClAHYnLD8gAAAAAAAAAAAAAAAAAAAAACIAAAAAAAAAAAAAAAAAAAAAAAAAAAAAAAAAAAAAAAAAA4YQAAAAAAAAAAAAAAAAAAAAAAAAAAAAAAAAAAAAuBeGAI4sAAAAAAAAAAAAAAAAAAAAAAAAAAAAAABKtb9ym+0KoAAAAAAAAAAAAAAAAAAAAAAAAAAAAADgBLyz9uL7UAAAAAAAAAAAAAAAAAAAAAAAAAAAAAD4MABYEw2iAAAAAAAAAAAAAAAAAAAAAAAAAAAAAABJiMb/mOShsgAAAAAAAAAAAAAAAAAAAAAAAAAAAAACG/xgC5ZgJsAAAAAAAAAAAAAAAAAAAAAAAAAAAAAAAa/Sk3hh6WAAAAAAAAAAAAAAAAAAAAAAAAAAAAAAADyM3xGxhAUAAAAAAAAAAAAAAAAAAAAAAAAAAAAAACPPYT2YymMoAAAAAAAAAAAAAAAAAAAAAAAAAAAAABL9De01o7qMAAAAAAAAAAAAAAAAAAAAAAAAAAAAAAAJ4IadtqOgAAAAAAAAAAAAAAAAAAAAAAAAAAAAAAAAADGGHCAIAAAAAAAAAAAAAAAAAAAAAAAAAAAAAAAAAAAAAAAAAAAAAAAAAAAAAAAAAAAAAAAAAAAAAAAAAAAAAAAAAAAAAAAAAAAAAAAAAAAAAAAAAAAAAAAAAAAAAAAAAAAAAAAAAAAAAAAAAAAAAAAAAAAAAAAAAAAAAAAAAAAAAAAAAAAAAAAAAAAAAAAAAAAAAAAAAAAAAAAAAAAAAAAAAAAAAAAAAAAAAAAAAAAAAAAAAAAAAAAAAAAAAAAAAAAAAAAAAAAAAAAAAAAAAAAAAAAAAAAAAAAAAAAAAAAAD/xAArEQEAAgECAwgCAgMAAAAAAAABABEhMUFQUWEQcYGRobHR8EDBYOFwgPH/2gAIAQMBAT8Q/wAtWcAXMywzfPWWh0SuC4nkxBWqyyrmwYvS95TxcBtUSrBfYHur/qNEOTPMO5YlkWL8pfCyJo7qWAYILPxOpAR7Hf8Ae6MUc/0wOHNXfrEhoPwxXada/corfHv8SvmUu5sPQPVhRKiNk5gCoTep17RPd/qFa4d7Pq7oCu/xLM1P3j3hE6+zT5m7Fd69onFM4v8AECQN+MqwD5TVNH9MDmtB/wAj0bOvjHHwHrWkUML/AHLKAc/uYDtCr8GDG2OIOSDXA7/vxKBesatsRA3JqSPxEBvYnaH77zlZVSoYn3uhOXP413OsIxt/EqxC9ggLCoMu7ihp7EdtETXgA2LmS1bQNTDlpHFyM38XYga2jbpEvPbEelyanLgC3B2ClTTC782aLvW45TQ05MXKa/GESsDPhBYfnivHln/Dl21eJevcghdPbeBGtXM5zUxK54A4W4cQvpDcgl9ZOaUTAMTmIJUzCXtBYO8fhRfABRsmLX5sZli9+UuQ6iaSgwG0MoDaxC83nMGW55yytOA02uoEevdFQGWSVVr3ErAwa2CR0qLFQHLgIbhYexwyho0G0Lri89SE+udZn7T1l5dnKL9dlPATB+0cpagvF1nsqc3EQzIQLvPWBEOYhA4gtjgFMlnLaYRPhHmpdtiKy3T4SwRWtAiKSUy2ly9ZvOApZ1A6sI4MhnMvJFPWCAO/1gC3GlAX1nUvgY1LlsVY51/0n//EACkRAQACAQMDAwUBAAMAAAAAAAEAESExQVFhcYGRobFAUMHR8BBwgOH/2gAIAQIBAT8Q/wCWqav7BjSwyxwYF7f3MqxbLOagtZnjeIWv/dJTdTdtf22sCj/MJdLUFBay4mv8QCarXzAAeSUw9ucwDLq05ic6SFjReko51EKSn6Q9+D4PzBgVd15/TGE6g/JE59iul1DKMi/k+IEqebdOJdZpnzR+5hgBqtoZtRX2Is24PemPmIgB2v8A9gGztqfE/MGFDZsT+veOVt+4ZWmrxn4iO0+VX+psMFavkveB0GzNfSIeQNdoAU9yzSbT8lxJSFfXniCIsJXYhcyp8F6/2Yqyn4qpUhXj+x7x54bV5KjtuhsF6kGs7P79xpbIc7oTmyTRnP3Nlgl/PY/tpy3d+st+jv8A2YnjTq+mcmOKzFR6rf2uyWM3r7KoOYkBwNmA6C6W42xesNqvavXL2iIDzP5QQlm5mILR6calPIPljEACfYDzWa7T+s1XjrA6V6FdsHXvGqKaO51Sz4gp33cpRICILsfbeG1hyr5ND3izLdRuhxG/UzpdRNVUBh1uTVGeZVWfYr8JhvXJiKy/r79qK4vY9QfR/wARWQqzqcteYsd8/W1PFR8KUqYXw1EgCgJtoyKCDmx2pgWRVEzmh3pRnS5gtuLeo8ACjrNcCL9PryrowGp3RzVtm4pE/gyF8JNytdzRp/0VWQkwFYoprxBxttAa2WEAydtIbwBoEcmVU1rCyw2hZDfHFic9LgANKHpj69usQMSfMB7blXJKlz8/mCkzkQ6qqDqtQDNimm4yQW8IJN4iLTYASBBNFvKwChzFIbFDacAAVK8bswponVWMMVFoRoBlWlufMLrP15iER5zNSPd4EwakmQWUFSo0yztfC9qrxmaDFF6tAd8CKMSkETwykEFCuzoFb2CmFaVAxXVK2jtT4lJ22KwW0i7BvA0dI/AexCaWXovcK7/YLVARCwcCjD4umuXESC3mSo2gNLZWm0uDgG6qFdUOV4MBAMYiwQFS8FtXBAFfF1j10llnY0vQGS9FM0tR8KjCCgUc0aM5YMKJCrqKLqaH2F8hQS6srw7cHTtEkZlYpoy4HRSmzHbGK/pyHAucG3BKD9LNWnDZqDh2S42JwGtQDvO0VdUbRQR0KLpRjswRjS8A3ZSEVVRyu695Usfr6aXtb0fzLGUtnp8MdwIOsawwvUlndriKKh3N+zLZIbWKlqFHgxIRQpuG9XOoIXhCLUEQrih8xR1U2wksVWtjzE0RwHig12aR+RtAVdNXWav6+h1l6CNa7vQj5U06uxB5be0rhpbYC4bApvW29wlMGngp7Komn22oBqqSxvQjBNT1p8iJHaPZYX1EDrSNOHEpu+1TSUL8uX3+wJcS9PD51j9RKrCm4NNXumZWtgKItFyLfcGkbne8YxuzniGp6gaIlRqtk8w+DaNS76jy+0aKkclBSiSl27BEac6OTf7G6iUuKMCKnQlC3/Sb/8QALBABAQACAgIBBAICAQQDAAAAAREAITFBUWFxEFCBkSChYLEwcJDB4aDR8P/aAAgBAQABPxD/ALyinpHjCqNAHbkroGpZQiF8/wCAHBw9nDkbsEbTHAYsrNarXFKNLlpLCiyOOAETpE/5WlXTCjQ+MJeAQBSPkoPyH/CD3TVDpQ0kYjOzHJZpcKudkbT39Kc+aoUCAUApqmPBuahqhCKKFEpli3mi0ScmHZ4s10EG2EQ0HoRA+4d4CZgoTTSBz2zOCdYIU4uUv0c75OnRx51GdC9GCU23BeOinRaCy4lpe0UrEGz2bqHSAgoy3icorLBdL1bPoUYWBCCIIhgM7hSKkkEtAIobx2ZRFnlE6heQwEy+cHlB8v6w4axn+FgjjksjZlkGKpADFW+D81xHe4RsRi35jS63QK9gKgMF3Rqv3EQETSNxqprlVGAPLjnmJmGTZXaPXeA1RvmkfYU9QDAwQE7kKmrFqCZI3Jn8+aRMHxlrIR+cOzYFmgz/AIMCrWVKbVw3roMYSCwpilgayRGKJDzaqJjYPoJWNkU5vCmiAlAqtChooKAjjmDlKkviqFNwuQiSrGDcAKdNxszRCkQYjzy5CJg38CtXsMOWlnAusj6uAwQdMLMBkRfs81V5aJN6celgIZW9QE8VbyHnOKzeVSjnmj0h8nBm3PQvbT5n1cwO1RriabmlJUOL0I5j24iMWnLSv9rSXySbfTo4aW8oKiQT08EsOgqCdvqkKPLBOd8BRqOvYHdElZDg5oHWULu1BlVk7saPhKP4bx5Y9rSR0FKOfBd3D7xYQU6JZDApNIKkRQY4fVsggLTTo9Jes3L4MhFtjykzWeDYF3Y3HRYlOHFREYQFlfRywu1eQGuHRF7XxAQKiQAJqaFiBSpgldPzOEAtIKQFTNwdqjV9+9j9cAiLbADY7KGvo6X/AEE4mb0LHr+BWIr5UW3TA/Rc6HmpsxqkRdp57eXCU10mkH8k+LhpbRrbOvSnF6PObRpkvlNu17BzxET6Ze4NFapAYatshkg7SqiHYJFUVJf4BX8uE+z8IQGiwfZX6McyFYkfcp14EdsKvQ7kF8FR0B6zgebY9van4zlJi2cX/wAiP6uWx0JB5tj8p/G5eDTp4S/nlk/ATQTQGMATzDqSTsoRgyholFtuJhw9a/3GTgi1MTo0SFeL2fnhM9PzemfL+ufxUIxhAIHRmiTCwxm9vmYfODLsWCyGCjSX6cj2ed04MFBgtKuECyJMhoF5Gto/XByv27HHpFPp3KROZcERRBKfwKxFcvqACsVvdY9MyBg1ENU9yCPZM18qohFHl/hajm3q/NN4JevC7xDXl/VF/XBWWG60EFnCQl1MSfT5Wy0YBAoiOKoiOwa4EDwbKB9oXsrgup/HPNUqnEIo7oKqu36YbUWl0EakQVIHiZ5nJPYwebSNEdUuOeTDSnbAvNjIVIYWFygm9G6x0CHiJai3dK4oNowahllBximcgR0Mbq5KIORlBdw0a7BWWIqDFN7Aj6ae0Cc0fzYdJFSJJut8G0sTJaTgwuCe1TXuRnRsNY3CRtIwgKqADgD+CP8AmE6KoYOxFMToloqeNMUxavaB8WrDCgKMPeBKuRZsjwpzYyDSGMOqVDQRiz/iwKtZWIrmwGzoh+1R2rm1RWrFvygD+qZx0s8LE+mtic5uIF82rkDbYrjxQ9W+yEmIkqw9EKFudhXrr7ypg1Z4hCMtQcqfZgIJUgKSicPvA25FE2TeJJBYHeGw2cCIANAGp9CTZgZFFSSCJiCFg2UZvZkAEgCHL6OY5vmvQRdErR1pJHRVG1nXD8DkwJkdyhWdolBQRVWNURqAAHQEXRAc+M/AeWnvX1g2P13d5GobAUsZJIkOjgZoleZA5mQoQNc+TsQSIOc2OyA6gAeHe8FCdLZsdJPYZpCmPx2AmGSjCcEmK+KfOGsSLJbFkzZiujAMqwTDtkLI0kB7GFe8AuHeFHVJi0AKwlWtfHAYX5jE6AoPdjWQeVeUC2FUAKqvKrv6I3YMSEHKkesOvg+CQy0DUOA7+ijk6LsCIJQolCiawHevCUIeclMjqiqQYyBvUSvFEGaeMpMbuFeDgMpm9UcLvOdDcOUS6okwoO2RBuLlBKWDnDrujgHAHRgeHGiog6RFEecTPN2BQ+K9QHCnI5XPEa+/1xtgDBHSaKuQKmvtq+1IRamoTQICKNw4RtC2UIvoDSs/67URAyjQ4CH94LQOzf8AWcRFeDAKOAWf4VTyY+NMw+POdoG1ctD1oKL5kKFoWZdEfhZmxh+WDRy6KdgLP/qwuQz9+Dn7E3zlCNPhY1V6ckOKHL9KcX/BHoprCNizjCbNiDLC8rwHa5HhFayA8ZTjfDy7C3BOGAOgDB3xzLhCcHAcYw9JpB9T8JijLQpOauIycTwzw+mCoRNNNJvrADaBh6BtHYxwZeZq400kY6RNroCuKoXBL25RgmylMqAoNvC3LyIIkcwifaTKAYYx+/rJs6w+CU3TcFOmYA7cCGmSeOCE8ysDqI3N1qVXFuyYejJo40iqNq/1xgnFc2NFJ4xQQXRTBxRHmB+MGrV7McXS4Id9p2/aM82j2wu7dFieXGddDimjAh70B0uCEnvaUrURUMfjAOyBiOA4B6wMQ0ABWGOgkhcHWMLa1BABK9JcOg2LOiKAmlCy3hyV5ffn1idwq9qg11c46YM0ie1etBgqif8AvFyQEUPooYT0bPDofSj5xyfxBHQK/lPgwR88vvsTp9YCJS8UwN1ueTNOWOmseEg62axJd+Yvn1kjtgX6Pd3p+bl8bR3Km5QcRnTGCmeMARm7ga+MPqBsuHYPyZQmD1f9kvDj3jPmjpU9gS0i9eMpmF3XIXoKR8ffh83YxUTeK8cUaUkA/B/BTW99jxgx4n5MBpfeQwd+79eMlvfC7X5wPweCLxV4y7Cl0r9uErtGVb2Ih/zT/eBGyjlERHkTI9PpsrOEwUQTWC2cKoh/+WOAjEO0Tz7RcIskLhFD+aYAWed+MwtB85GskfvpV6dFMafkL0OWgnWn6VBP4IPJnoz1ZrmFDaW4jwjpw6MIyfyL/vNfj5gKlY/GNcYYDunsR5W+cVb0eg06OD5zsNyimTwyH5cXJkS2Jp4wXA1XCER/GPNDTvI37jkLixiuUj7U9Yojlv33RdXI5+eNHpLi7J02La2dSryeKyKonX80JRZ15wCG8vNw84wIQeKl/WDD8xJGTD4RuXAjIB2OldLyDvD3ZHAsDkhpWI6Uc5wPJif7Ngs/0OLuEZt34IWe/vwCCma7KWGaZHTLUQ8xyBS2tpONSb5L7wdh/Ig5cBIODWYl3D5OsbbaxSgfnbyKYqSkOkG0/OUK2Y5wAnbxo04XRZxjiAVncxpUsYnC/Wvzl3dACVC49v38UXOuYAyTnY4L5HrNz7SDWXpV93EtP8EDhfbl9fhMedjWG1dFF4BWNZDkBAF2q95PDAKNRNidZRHIfM7wRLE4cgIOFHaVobf4GKXcSSCqdFfhMC+KdH36HjBAUvWIEdoBj4H5jL02nWcKVmW+8H72oz0iKLLuMu06U71Qqfg7wutoxOksAzWsWUL7cG4Hg4XP+mDS/wCshbhRoBUeDJCGEVgrGLHFx4kAnfYwDCxJWarq48JixBfGRVwmK8oOMR4TQmOH34jhl7yJvbyqbgDv4MVXPYAONnBioCneAvDlJwXyghCHF3xjklcpjKVhKM6mKw7R7zSQWKR8xZhDReeZgkQAXbD/APX7yIh9H+RSHMec2d4Fx6Aady490SiJYgNqPWIvlxm9ALk5EXnsxjCKilB4CR+cZpoOb4FDJjYIJ3sGn7/tsfSJPxlBD66U/lgLJwYQq+CuRqRQ8dYnMGpcaO9C/JynsRNiMTO41sAEPtKzuuFOIhHThmh7MEWd+MNn94aE+wc0xGErW/WKWRNboS8mjwYLCu3fnbC+MPTFGxSR9qmjCo+EJCUb64UuFtxpla8rai6xLmUuaFdgvOus4L4+/sPPWLFSLY4ncxPXD3JSFHPpEwB0ohJAO0Q3puGoRJohEfNFPzj2NhENBe9Z4D6MgScJBQ0m+/GDcRMzlprmmIDZnABfBmtsmMN1QB07HXl1RwAm5mgxGUV8uTz2RF5OHbeJHwbGdgv95JoZrdug9g5w1+/keTEAJK0AYnhR/vN4nkeaocMo9KmE1MrOsDkR08jhHkS+3o2/A6wyGkPhbd7QeT3ikXTwmIn4x+BXyUegFMfdYYqKInJMEkZOTwKBXxh5YKfuJOCwPxiq1WspNp4cuYja6K/J6GjArDHCeaUCR+1/GMo1HmgeViYAED7+lxDy4Wk/w8RyAOCi2KPmx5Hn5ExK2iWu2fn1yZxzKzNtEp0iZQRSBwhDzeeMg7traB1ee9K5YbNG6RMBZ2F20OvA5dhMFED8G1uBhwbXCHOekugkg8tUxQwquB2HvH1qdgrwY8ceFAm01AHyrg1y1gKCfB/gKdeFrFl+B+cEoBdQXY/o4ZjNe0s+xWvw1iiwIHmldPhg+hoQTwAp+sYNThcqIQ/mYWAEEb0ahRoKjhAhSKBQrNX1cBylQgrH0GaUt1hYzw4rCJh6GMnJUHTgCpumAEyu4bjVPhMQVXQ4XkDGTVWh9GYd8Qxw5VIb2iC7e3N3R9CfDmgL9+KKXUsLnSKcxNdYKlE7qLtp1g2HsruRNP4TLlMMk74184Q7QJPf6z8YeqaEde0bDjvLRYBpnkJRObmyGdeWOBLq6xk3bVeV4L2ujvGzucJEjSpw5zUt2nhEIEkxrqfTFAH1cuKQCrboujbME7FuBpprvRMtoHWY+d+SzCgoSmYAUt6yB2z+eAUxlnq/YAxwKgP35gKXrAMctbKrEW/l8DHaiTTXCR/amPnGdK9H+9MKjZQsnxp/rNhpIrC1hNGXFEgGgIcFMWmHHALdJrinu9Y+I2dC5wBPWOmho4jY5yhbggME8I238rnC7JZIix5+cL9H4G9D1EyBBwDkTfMMe5JcbO/oytC1gAB1hFeqrMGUaqrPnhx99Skwi7mbLsblQAbEMSf1Wu+RCwqMySeoW+BA/Dg7IX+6AMGjo3ZT93A9rnxCAAV3rymFRDZkpUQVuzLMN9HtjJTxXWZ2xZCDAhFhaZxjuZEbutmbYkOgoR+DgjwjO9NatXx1mqkdWMp86cIZ/wD0GIQv24WKgMmUiHhygLnH39zX1i+UaTLs/FjukNnj8TivB/b+wg+YnvJ7SxnP0Oc5VtMnAgn7wqZaIsRQByXTcD0NGCo38ML55koAGtSYGrHLsB54cOSeDGjYoqu3zkRSmGYHR/LKf3g5UWrXlOLm4ejNtg/bnFO/9TFzeghho3WKC6RPcw2X/ABfuYN75gfMCP5yHTUKh1SR7w1akVnyvT4w1uOpil0VbGAjFWpJXg7Ey6oOYvFWGJTWzKQXcKzwyW4tpFb6OMsu8Cp8WVCn8YkO8Q/Rib+dwlavOF4KLBWhzhx/gKvOFeRnpfrAuDiVy00YIHlMG+sySJOBQXI+tjUeq28ZB4HbYvGGJo4AwlybwnOQRAQDymKijwcOGKmCRhYaq7xCgTkTgW3INyHCTXXoTkZwPj/BmDLNPDmtWHc7wO2GkXIaUwKop4ybTuPU/QDJX4/+GZ//2Q==;" parent="1" vertex="1">
          <mxGeometry x="415.87" y="530" width="173.16" height="130" as="geometry" />
        </mxCell>
        <mxCell id="lMRZlrQa5z_mroCtVpvL-3" value="" style="shape=image;verticalLabelPosition=bottom;labelBackgroundColor=default;verticalAlign=top;aspect=fixed;imageAspect=0;image=data:image/png,iVBORw0KGgoAAAANSUhEUgAAAggAAAF/CAYAAAAsMzGHAAAAAXNSR0IArs4c6QAAIABJREFUeF7snQeYFMXWhr/ZnJddlt0l54wkRSQpAipJkmQkGADBgDmjmEkiqCQVEBAkiBIURFQkCCiI5JzzBmBh88T/qequnpqenulFf/HKnH6ul52Z6lBvpa9PnTplcblcLtBBBIgAESACRIAIEAGJgIUEAtUHIkAEiAARIAJEQE+ABALVCSJABIgAESACRMCLAAkEqhREgAgQASJABIgACQSqA0SACBABIkAEiIA5AbIgmDOiFESACBABIkAEAo4ACYSAK3LKMBEgAkSACBABcwIkEMwZUQoiQASIABEgAgFHgARCwBU5ZZgIEAEiQASIgDkBEgjmjCgFESACRIAIEIGAI0ACIeCKnDJMBIgAESACRMCcAAkEc0aUgggQASJABIhAwBEggRBwRU4ZJgJEgAgQASJgToAEgjkjSkEEiAARIAJEIOAIkEAIuCKnDBMBIkAEiAARMCdAAsGcEaUgAkSACBABIhBwBEggBFyRU4aJABEgAkSACJgTIIFgzohSEAEiQASIABEIOAIkEAKuyCnDRIAIEAEiQATMCZBAMGdEKYgAESACRIAIBBwBEggBV+SUYSJABIgAESAC5gRIIJgzohREgAgQASJABAKOAAmEgCtyyjARIAJEgAgQAXMCJBDMGVEKIkAEiAARIAIBR4AEQsAVOWWYCBABIkAEiIA5ARII5owoBREgAkSACBCBgCNAAiHgipwyTASIABEgAkTAnAAJBHNGlIIIEAEiQASIQMARIIEQcEVOGSYCRIAIEAEiYE6ABII5I0pBBIgAESACRCDgCJBACLgipwwTASJABIgAETAnQALBnBGlIAJEgAgQASIQcARIIARckVOGiQARIAJEgAiYEyCBYM6IUhABIkAEiAARCDgCJBACrsgpw0SACBABIkAEzAmQQDBnRCmIABEgAkSACAQcARIIAVfklGEiQASIABEgAuYESCCYM6IURIAIEAEiQAQCjgAJhIArcsowESACRIAIEAFzAiQQzBlRCiJABIgAESACAUeABELAFTllmAgQASJABIiAOQESCOaMKAURIAJEgAgQgYAjQAIh4IqcMkwEiAARIAJEwJwACQRzRpSCCBABIkAEiEDAESCBEHBFThkmAkSACBABImBOgASCOSNKQQSIABEgAkQg4AiQQAi4IqcMEwEiQASIABEwJ0ACwZwRpSACRIAIEAEiEHAESCAEXJFThokAESACRIAImBMggWDOiFIQASJABIgAEQg4AiQQAq7IKcNEgAgQASJABMwJkEAwZ0QpiAARIAJEgAgEHAESCAFX5JRhIkAEiAARIALmBEggmDOiFESACBABIkAEAo4ACYSAK3LKMBEgAkSACBABcwIkEMwZUQoiQASIABEgAgFHgARCwBU5ZZgIEAEiQASIgDkBEgjmjCgFESACRIAIEIGAI0ACIeCKnDJMBIgAESACRMCcAAkEc0aUgggQASJABIhAwBEggRBwRU4ZJgJEgAgQASJgToAEgjkjSkEEiAARIAJEIOAIkEAIuCKnDBMBIkAEiAARMCdAAsGcEaUgAkSACBABIhBwBEggBFyRU4aJABEgAkSACJgTIIFgzohSEAEiQASIABEIOAIkEAKuyCnDRIAIEAEiQATMCZBAMGdEKYgAESACRIAIBBwBEggBV+SUYSJABIgAESAC5gRIIJgzohREgAgQASJABAKOAAmEgCtyyjARIAJEgAgQAXMCJBDMGVEKIkAEiAARIAIBR4AEQsAVOWWYCBABIkAEiIA5ARII5owoBREgAkSACBCBgCNAAiHgipwyTASIABEgAkTAnAAJBHNGlIIIEAEiQASIQMARIIEQcEVOGSYCRIAIEAEiYE6ABII5I0pBBIgAESACRCDgCJBACLgipwwTASJABIgAETAnQALBnBGlIAJEgAgQASIQcARIIARckVOGiQARIAJEgAiYEyCBYM6IUhABIkAEiAARCDgCJBACrsgpw0SACBABIkAEzAmQQDBnRCmIABEgAkSACAQcARIIAVfklGEiQASIABEgAuYESCCYM6IURIAIEAEiQAQCjgAJhIArcsowESACRIAIEAFzAiQQzBlRCiJABIgAESACAUeABELAFTllmAgQASJABIiAOQESCOaMKAURIAJEgAgQgYAjQAIh4IqcMkwEiAARIAJEwJwACQRzRpSCCBABIkAEiEDAESCBEHBFThkmAkSACBABImBOgASCOSNKQQSIABEgAkQg4AiQQAi4IqcMEwEiQASIABEwJ0ACwZwRpSACRIAIEAEiEHAESCAEXJFThokAESACRIAImBMggWDOiFIQASJABIgAEQg4AiQQAq7IKcNEgAgQASJABMwJkEAwZ0QpiAARIAJEgAgEHAESCAFX5JRhIkAEiAARIALmBEggmDOiFESACBABIkAEAo4ACYSAK3LKMBEgAkSACBABcwIkEMwZUQoiQASIABEgAgFHgARCwBU5ZZgIEAEiQASIgDkBEgjmjCgFESACRIAIEIGAI0ACIeCKnDJMBIgAESACRMCcAAkEc0aUgggQASJABIhAwBEggRBwRU4ZJgJEgAgQASJgToAEgjkjSkEEiAARIAJEIOAIkEAIuCKnDBMBIkAEiAARMCdAAsGcEaUgAkSACBABIhBwBEggBFyRU4aJABEgAkSACJgTIIFgzohSEAEiQASIABEIOAIkEAKuyCnDRIAIEAEiQATMCZBAMGdEKYgAESACRIAIBBwBEggBV+SUYSJABIgAESAC5gRIIJgzohREgAgQASJABAKOAAmEgCtyyjARIAJEgAgQAXMCJBDMGVEKIkAEiAARIAIBR4AEQsAVOWWYCBABIkAEiIA5ARII5owoBREgAkSACBCBgCNAAiHgipwyTASIABEgAkTAnAAJBHNGlIIIEAEiQASIQMARIIEQcEVOGSYCRIAIEAEiYE6ABII5I0pBBIgAESACRCDgCJBACLgipwwTASJABIgAETAnQALBnBGlIAJEgAgQASIQcARIIARckVOGiQARIAJEgAiYEyCBYM6IUhABIkAEiAARCDgCJBCkIs8rKETapSxULJXCv718NQfzl69Cs1saoE7ViggJDr6mCuJwOHElJxdn0zKw9/AxnDpzFleuXkF4eDhSU1JQv1YNlC+VguIJ8QgJCrqma1NiIkAEiAARIAL/JAESCABOnruANyZ8jCqVKuKph/pj/rJVWLz8O5QtXRrvvDACyYnFilQGNrsDOw4ewdIVK7H74BFs/XMHLly4YHpuckoqWtzWCK1aNEOfTu2QEBdjeg4lIAJEgAgQASLwTxIIeIFw8ux5dBwwFKNfeQ6JCfEYNOIFOOw2zJk8EU0b1DFlb7c7sHrDFqz5ZR3mfb0cmRkZpuf4SxAeEYHe3Trj8Qf6o2GdGrBYLH/renQyESACRIAIEIG/QiDgBcIjL41Cv66dkHHpMno8NAz3d++K2ZPG+GXpdLlw8NhJLFr2HcZN/RS52dmG6YOCghAdHYk6NcujZgUXIsMvIyRYGfDZ9EN+oR07D4Viz6FLKMy3weVyeVynU4d2GP3S06hZpdJfKVs6hwgQASJABIjAXyYQ0ALhSnYOVq37FdUqlkeT9t3w+OAHMP7V53zCtNnt+GXzVrw1aSo2bPzVKx17209IiEeTm6uhyS1VMaxPFSRGnwOcOwAEAS4nACYC5P/YdwXYsjcRk+ccwg8bC5GekeO+tsWCV54egRcffRgxUZF/uaDpRCJABIgAESAC10IgoAVC+qUrSIyPQbPOfVCvVk18MvYNQ3bszX7z9p3oM+wpnDp1yitNXGw0mtxcA08N64F7bksB7LsAx0YAwYDFBTDLgMWp/MvEgfiOCwWdaLAU4P05Efhw5imcOusWCmXLlMHK+TNQp1qVaylfSksEiAARIAJE4C8RCGiBwIgt/m413p82E1tWLDQEyKYe2g0Yij+2/eHxO5s+qFQuFY8PuQ+P9WvG7AOA6zRgXQLwWQQhDNi/TASo32lCgX1m34vfnKqIgPqvEy++78DHc88iN8/Gzw4OCcH86R+jR/s25Jvwl6o7nUQEiAARIAJFJRDwAqHDgKGYOvpNlFOXNgpwzGqwdfc+NG3XFQ6HQ+MZEhqCm2pVxqrZLyIlMUqZLeBj/V7AvsY9fSCsBkIoyNMK3IIgCQNuVRCWBPVffr4LF9LD0Pz+Czh6/Ir2DPd27ICln0wEEyl0EAEiQASIABH4JwgEtEA4fSEDi5Z/h2eGDPJgy8TB6E/m4OXX3/T4vnGjevhp3nOIDg/1LAvXFcA604d/gbAUqErCa6qBWQ7UqQYmGpj1QZ6SsLhgLQRenxqJ0ZMPavctU7Ysjm3+CaEh1xab4Z+oRHRNIkAEiAARuPEIBLRAmP7lN3i4V2cES2/iTBw8+PwofD73C620Q0NCsHXlWNStVsrYtO/YBtjXCVOCWyj49DvwbTHgUw7CV0FYFphIsAZh2U+x6PXEAW21Q2xcHE5uXY+E+Ngbr2ZSjogAESACROBfJRDQAuHY2QuoVDpVKwAmDgY//xpmzJ2vfXdT7WrY9NVIxESHK9+JpYj8TZ99YQFsSwDnMcWfwMMBUTghCiuC6l8g/A5cbOpCtizoph2C1M9qOqs1BFt2xqPNwEOw2ZRpj9jYWGxcsRh1a1T9VysS3ZwIEAEiQARuLAIBLRC4JV+KQzR22ky8MOodrYTvuaspvvvkcQ8Lg3fxWwDr5wDSVPFgtJRRrF6QfpOXPIopBtmxUe+ToK54KCgIxr4jiej8aDrOnL3EH4eFbp4//SN0a9v6xqqdlBsiQASIABH41wgEtECQqS9euQa9Hhqmme9bNGmA9QtedCcRFgOmKLiyUF/+2efCTwFXpkF8AwNhoE0hCKuCZHVgQkETC5KzorbaQbFIZF2JQtrFWAx/pwA/rz/Nn5E5LL78zJN44+nhCKLoi/9ag6IbEwEiQARuFAIkEADs2HcQze/tgdzcXF6ulSqWxsGfxiMkOEgSAu7ZAK3wuUhgUwwLAOdRSSDISxdVkcAtBropBG1lg7rEkYsDaVqCOy0ynwQhItzXOHm6BKz2IExd6MTEmSc1YdPq9hZY9vk0xERF3Ch1lPJBBIgAESAC/wKBgBcIWdm5uLVtFxw+ynwIgKTi8di9ZgJSi8co8w+68Mea5UAuLMdmwP6TGgRJ+CmogzufNlCtAVxQ6JYzMgGg+S2IFQ3qObKTI4S/giIiXA4XDp8qyfXEms35eGHcZeTmFvKnYptMTXpvFLre3epfqFJ0SyJABIgAEbgRCASkQNh/7BS+Wv4tdu4/gj9378GxY+ztHwgODsa7I4eiUZ1yyC+0Ii+/EPkFhbh8OQvZV6+iapVk1KrsQuUyqYiMrAhAXe7oSgOs09X6IA3yIkqitipB9k9Q08lWA4/YCUIQ6ASFKjhcTosmEBwOG37YmoxXxu1Hbk6B8hwWC/r36oEJo15CUrG4G6GuUh6IABEgAkTgOhIIKIGQV1CIp94Yjc9mfwGnU5j7PWkHBVkQGxOBxg1KoFyKA5UqxKH9Hcm4qUqWNLevrjwIvg0IbgZYgoHCMYCFRTwUvgPCaiBPMUg+CVqwJCn0MrcYyJYCWRy4xQVbbXHuQgmEWBzIs1mw91g0Lma5sOfgVRw56cTKX7Jhtdp5xhISEvDFlA/Q/s4W17Fa0a2IABEgAkTgv04gYATC3iPH0bR9N1y9elUrs9CwUDRpUBxlku0oXSoR3duXQ71K+QiPsCm+BXzZIhu02Sn6fRPEgB0JhPUGXBmAfalyjgh45BHTQE3Ply7qrsUtDOx7EbFR3Ff2SRBTFWqcBO0cRQgohxO5eRH4bV9pPD/mMv7Ynce/ZQ6MH499B8Pu73lN9ZUJkbSLWUi/eAkVypREbFQkhXi+JoKUmAgQASLw3yUQEAJhw+/bcfu9PdQ9EtieBsHo1eVOfPZOS0RavlPXOoo3f2Wg1XZc9PAbMNpciQ3YFiC0F2Cfr1gAtHPk68gRE8VqBTbos/SSn4LH5k2SNYELAvWzU/wtri+emX2280ueuFAWi9fEYdSkdOTnW3kep44fjaF97yvSIJ+Tl4c7ew7CNmkPilsbNcLYV59D80YNTJZ+/ncbBD05ESACRIAIKARueIHw06bf0KZbX628IyMj8OPCN9D0pjDA/pV7wyTNSqDbedFjDwUR5VAKeKTt0Mhe1ZsDzl+kSIjCz0BavSBWJAgrAp9SkAZ4TSzo/BXYfYTVgIsK1VLB1Qi7BvtsV60dTrDtI46dq4JjZy3o9MhVbcph06pv0KRBXb/1v9BqQ9Ou/bD9D88NqsRJPbt1xYzxb9H209SLEAEiQARuYAI3rEBg4/2KNb+gc/+HtOILDw/DoXUfoVyqC7DOVQZWr8iHOrM+X5SgvLmzZYUhwQ4EsWkCHmRJfaOXr6EFOGIJdIM/uzT/nQ3gLmRddSIhDggKdkirG9RrirRCQHCfCXnqgU0tqNMgYFMiqiWD/Q32mxP51gicPF8du49EoufjZzUOZ3dtQankEobVmk0rvDlxOkaNGaf9XrYkYLNZkHaRsVD8L1rd3hyrv5yJkGDaC+IG7h8oa0SACAQwgRtWIHy16kf0eGCoVrRsHv7SrpmIjw0FCqcqDoXa6gLA7nDC5nChMN+CKznBOJkWhpnLgcXLtqOwoADlKxTH4gkVUCwGiI+2onhxNr8vQiGLJY3SMkbuayDtq6BaBmx2FxauTMboT85hz3IrUwdunwQmKGR/Bz7oi42cxNQFExBMALDz2L+qvwRPZ9XEgfBnuHCpAi5nF8MrH8fhm+/OcB6ly5TFqd9/NtwNkk/HdOqhmJcswDdTQ9Gx6UHY7cFYvLYxBj6XBief4gA+eO9NPPlAvwBuPpR1IkAEiMCNS+CGEgh2hwMXMi/jw8+/xPiJk7S33dDQUFzdNxMR4ZFA4WQAbHBXTPY2mxMtB2Zg266z/G/xhhwSEow2rerh7aE2xMZGIiQEKB5XgLj4Ali0aQEDnwTZCdHDWdGJL76NwMMvpmHsS1XxeN8zsHBLhLiG+jcXEqplQ1gNPKYjmPBg2zwzSwETFCxWAxMKTBwIR0d1lQVLZQ/DkbO1YHdYUO/eq1r+pk4Yi0f63udRsy9dyUZq7VtgsyuOjy8NT8Zbj2zBkfO18f6cYpjw5A58vupmPP6aIjQqVKyIY5vWFMmn4cZtQpQzIkAEiMCNSeA/KxCsNjt+230AH3wyE9u3b0dW1lXk5efBZmMDp/sICwvFwfUfoULJBMA2E3Blaeb8AqsL1e4+jNPnpJUNoSFYPr0hKpcN4dMJTEiEh9mRmpSjTC3wuQX2j256gb39830dVAdCPkYLPwIHnhsXhgmfZWLWuFro1/4UgkOZvwC7hpiGEMJAvTYXB2K6gw3YLJ2wGrDPLoC/ybPgSN7CgBNQTz909iYuEI6ei0XnwRe4SAgLDcOpHZuQUjyBJ83NL0D9uzrjyJEj/HOjenHYPHcHzl6shKycGGzZFY4HOmzF0Qt1cP9z4CskLBYLls37HPe2an5jtg7KFREgAkQggAn8ZwQCe6tdsvoXjJ34IdIyLyE9IwN29U3XV/mxaYUNS0ejab3ygH0l4Njv3uvA5UDTPuew+Y903HNHSew+bMW5cxfx4vDaGNKdbZ+sjK4lk3IREam+nWvmf2mlAt8/wcChUDgbWpxYuyUadw08jxceKYfnHshDsXgmSHTLHeWwynzgFysVpB0fuUhQHRKdYqpB8TcwPNSvM66kIPNqKlwuJzoOC8bxk4ogemfkS3hx2IOYPGcB3hz3ATIvKps/VSobil3fnIDTGY7TGeXQepALO78+icTYHJzMqIYFq4vj1fFpPG23eztgyacfBnAToqwTASJABG5MAv/TAiH9Uhbe+XA61v+6CTv27PUOe+ynTCywYObEJzGo622A6xxgY0sQ3UGJJn2Rj6feOoAhfSqhfs04DBv5Jxo3SMKX71dSr+pC6ZRshLE3fY89E8RqAlUYyJsryQKCWxqUaYOujwIXMsMxf1wUKpZjA6sUJVHzg1AHf64NhDgQ92aPpAoD5nfArQuSWNBzUPUF+2ffiQp4/G0XCgojcX/3Sqhd/jTaDCqA3e7gW0VHRkRwsSWOCmWjsHHuaSTEFeLoueroOcKBJwYEY3DnXVxcXbhcDplZCWja14r8vEIUL56E09s3IjJcjSp5Y7YTyhURIAJEIOAI/M8JBOYAN2/ZKnwydz62/L7Vr5UgNDQEtzaqjzturY7oyBC8NnYuHA7ltXnk033x5pOdAVeh6negDrYWF1xOJyq2PobU5Ch8MaYSHn3rDLb8mYEfZtVFciI7WxUHYWK6QvYPkPZYkESAsgujOk2gvdErg3qd9g48N6Q07mt9CTGxOW7BITZwYtMTwmrALQnMt0AEQBI+CuqUhDYtYWA14NrFgpz8aEz7ugq+WunA7zuVDajEUapMEuKjHNh/6LLH92wHyEE9E/DeY4cRHmbB0bPlMfg1J5xB0djy+e8IDmb+GUBOQSLOXyqDYW8A639jeQG+XzwP97S4LeAaD2WYCBABInAjE/ifEQhOlwsffDobU2Z9gWPHjxsyj4uPxRMPdkTZlFjc2bwhKpWKR3BwEHILbKh7z/M4duIcP++B3ndj5hi2vNEF2L4CnMc9ghHNWurCQy/sxg+zb0XF0hbc9eBhtLw1HiMfKc62QUJK8TxERxdKDoTS0kevLZnFygUhHKSVC6pvQIv+JTDzjSBUrXheHfzFBk2S1YCLCzFdoA+3zFYqiBUOslVBM3Yof7iArNxiWPJLbWRmhePlsafgVAWTDLRWtWjsO6QIh8oV4/B470x0bm1HamIW0q+k4rc9JfDsGAeKxTqxdf4eBAXZtT2rnM5QHEurgbkrQvHelCx+jeTkZCQmFtcCUbm3m7bwlRDsYBYdxUdDfOf5G/Nn4L+qaZS/pe+0v9XvADzYrzce6dP1Rm6flLe/QCAnrwDPvvnuXzjzb57iAu7v3g3NG9X/mxei04nA/waBf10gMIe5mYuW4pV3xyEtTZnXFgcbIGpUq4j+XW9D1/bNUaN8cS9qTFg06TYKv28/wH9r26oRvpv5jLJvgvMQYPtGmiJQBvrq9xzF3XeUxdMD4rnDXsfhpzD19Qoom2JHVIQNqcnZqiOjOuqKXRWFk6K2/bK0AoHHKJAjIoppAiemLyqJ+1rnIak4CyTgdlzk0wRO7vGorErg95EtB3ZYbaEICSpEkEWsUjCoOEK/qD9l58dhzsoaWLutJurXKoNxU7/F1avZXieOejwYT/W/gPzCKORbo3HgVAqmzcvFd7/k4+lBLrzz+BGvzSzZRU6m18T+E/HoNCT9X6vFrG7s2fgTalUu/689A934f5PA16t/xn0DB1/3hwsKCsbu9T+gVpUK1/3edEMi8E8Q+FcFwqlzaRj41Ev4Zd06j7xFRkWiZ8dmeHRQOzSqXVoNCOSdffa2323YZCxduYH/WLd2ZWz4ahTiosIAVx5gnaIuBxTL/hw4mx6Mmu0OY+3cOkhkmxy6nHh1Sh7eHh4GiyUIZUtlcXO6p9+B0f4JImgR+1de1SD+VuMgwIVjp1KQUvwyoqNy3RYErj2U0Mjav7Cj0BqObftTsWPfZZzOqINq5bPw4L3b1OeRGLhXMqqxE9y/2R2hWPl7K3Rq9xZn9/26/WjXb5QHwOpVimPumFxs2xeOQ2er4NdtWbiSlYXWja5ixIB8VC51iqfn7hAiHhN/CgsuXK6IrLxiaDPIjoxMZZrheh9hYWEoPLX/et+W7vcfIDD4+dfw2Zx51/1JS5RIxvmdv1IY8utOnm74TxH4VwQCi1cw+6tlePjJ5z0cD9mSxAE922Dsi72REBvhzrN4ydZRePKdhZj0ydf821Ilk7Dpm7dRni1nZId9FeD403OgB9D32SuoVC4GD3WN5dMJbMjbvDsYTW6yITrShpSkbHWlg2od4L4F0koC4TcgViEI64L2L5sKEM6QyhTC+bQSSEq8hNAQthWz6uTIfQlUgQA7Dp2Kx+tTquCrb89xB8KUkglY+H44KpS8jLLJhxCkRWXUaQVZKIifXMDhcw0QkfAetu46jhU/7sLsBas96LVukYrVkzcpj6NGVpANEZowED6ZvAyUqImXslNwKacEhr8VgnWbPX0Z/qmKqr9ufLF4ZB3Yfr1uR/f5DxG4tUMPbP3j+teNFs2aYP2SL/5DpOhRiYB/AtddIFy+ko0hL76Or75Zpj0Zmw2447Y6WDTtGZQoFmVeZhYLFq3chl6PjOVpoyIjsHHpO2hQo4xyrpOtWpgpvfqqo6jFhpSmJ7Fyem0kxLOwyU6EhtpRUBDMfQTLpmYhLEz1AwiS/A7EoM4H8ghUK5dnPJ3gMcUg9kdw4eLlRCQWy4TFoloLtCWNbFrBht93RaFZnwTY7Z6Oh8kl4jB/fBCqls9GueTDSt6EINAJA/6T+M4CLFhTk28DXbl8FJKKuZBfGIwjpyPw7Y9p2LztCqpVLoHdS7Z5Cg+VvLYYQ70fsxrw4EyqUMstjMX5S+UxZUEIJs8pukAoXbk6Oo+bDRf3J5AzoDoqaN+x4E9KvAnmu8CE3JG1K7Hmwze1utHmzpZY8+UM87pCKQKOQIk6jZGZmVmkfFetdzPajGKWRrlxyfXTXRe1BqCm3jBpFPb88r12nyeHDcEHr79QpPtSIiLwXyDgVyDwkLoWKPP5Bgfr4gutVuTlFyIxnsUO8H+cPHcBje7piowM99x1XFwMls54GXc2ruK9jFG0U3Z/bfQDDp5MR+07n4TD4UBISAh+XvgGWtxSRW2/bJ+FWcrSRm01geIfcDYtCK9MtOK1YcX4sFO+9BXugJeeGY0CaxDKlbqsDPxSDAOl31CmCzKzorDxDyu6tM7X7fioWg20VQ1iPwVFJOTnRyMy8irAYxcIiwRbIWHDoRPFUb2tZC16IYS3AAAgAElEQVTRIaxZLR4LJzhRPuUk4qIUp0CPsVV0bbopB4+PLpZbwOEMw96TdXFL10tsD2hc3HgBsVGSb4JqTRBCwC063PstMLFgd4TjVHoVrNkShhFvXjQrdu33Rp37oPGwV/hnuUbppYKkc7Ssrp/wCnb94BaV38ydgS53tSzyvSlhYBDYc/g46re8h/cNRTk6v/AOyt7Z2TCpXrbqEy15rDvOH1F8n9ix7IuZ6NTmjqLcltIQgf8EAZ8CITs3D5Pnf40XB9/vlRGn04kjJ8/giVGjsfr71Rj35mt4duhAvxnesmMPWtzbHXY10iF3QKxaDvt+HKOEC/Z1CHGgioXzmVdQ6uYhSmqLBUs+exnd2ki7Ezr2AnY27aBaADTTvAsPvx6Kh7uG86WMifH5KBanhFy+mBXJdz9MLsEGS8ly4BGjwInvf03CkeMFeOx+8dYspgmEs6LbMVGICk0Q8GWMTGiIzZRcyLgcheQm8aYVZfJbpdHy5gzERJ7m0RTDQ4sjpZh7pYeknTQdlZMfjn3HkzBu3s1Yumo/XHYn+vaog0HtD6HzcDvy8hw4siYb5VOUGAjyNdyfVcuB+oQuHuKZYXfi6Pna2H8iFvcNO2/6/CJBx+ffQ4VW9yrXMNY5hr8xR9L5A9rgcobixMpDZx/djYgwir1QZPgBknD0tM/x0ijme1O0Y9DnqxCbWtZIc3tcwLu+ujCre1Pk5igCOyw8HGd2bEaJBPP2XLQno1RE4N8nYCgQzqVnoNfwZ7B+8WyvOPs5eXlo2qUfdu/axZ8+OjoG6ft+R1R4uM/cfL9+E9r17K/9zsTBwN5tMWv0oGsikJNvRWwN93U+emcYHrtffot0AYUfAGCOc2JVgQhY5MTtA52Y9VYx3hlUKJWFkBA7txZcuRLOHRNjYiXLADdxs1UFIqSyE+9Oi0N2bhDefeqiupOj7LwoWQe4xYEdaohk/pH9HwuLzNJZUGgLQbnW1XAx8woc6uZHOkOJxiY0IhTx0cGYOaYEOjZepy0d1N681T/EID//h8ro/6wLEeFBqFAmAhNeSUX7B48pg69kjNm9/CpqlM/0FAeqUyKLp6Ds+aAcQhzwa8CFE+k1kHklCs17XdT2dzArzAc/W4aoMpWV51AFgj9LgnJfIC/tLGYOaqupmKTixZGx93ez29HvAUjg7r4PY83Pa4uc86FLNiE0mnkr+xet+gvmnziIGY+49zKpUb069q9bWeT7UkIi8F8goAmEU+fTkJKUiK279qNL/4d4ByzWofOO2uXCGxOn4a1xE8AsCOK4pWF9bF25xGdef9iwGe16DdDOYeGPf1jwFlqzKQX58Jj2k0Yx9Xs2iNbrMBJ79ylz8Y880BlTRvUVS+sVK4T9R8Cx0TP0sbqs0IVcrP+jLMok2xAbaUUyd0ZUQiZn54QhKsKKYCYYuL+BGqlQW52gCIEeI0IQGx2L6W9cQigLoiTSiWkDbfmj6nzIMYmIh1a1B1JiCrQb3gQpySEItVzBjAVZ2Lh8LG6uVQrjPluD10bP1siUKlUMX09yon6VAwgPZU6OyuHhgiAcCQF8+UMVDHgBWDgxDJ1aHMDuw7G4tVcSP2fLwjDUqnAADXpVxuFjTvy+8DLqV/f0IVBEBhMG7qFbFgeKU6MF5y5WQk5BJO5+2IK0NHXqw0+NL5ZYHANm/wBnaLhf64HRJU5t/gnL3xih/VTvpjrYscY93fBfaGj0jNeHQMVb78SJU8oKHLODRRIdtPBXuIJUy5h0goGLj8flds+ZhHXzP9W+69u9G+Z97N4i3eze9DsR+C8Q4AJh5qJliIiIQMUyqbi75wBc2P0boiPd8+Is1kDLbv2xYfNmnqfUlATk5BYgJycfY954Hc8PHWCY110Hj6Jx204oyFcGtpDQEGxcOhqN65RV0utfmQ1foYMA50lMmLUIz7ypvDU2qFcb25aNdPtG8GV42YBtvDR0SksVXU6s3xGPlHggJNiF8sx6wJ0RlSkBW2EwQoVzoghp7LF0UZkeaH1/MMIii2PR+CzExjHTomw1UCwDynfqFsx8CSOLXyBNPcCF0bPbolmds0hKDMGZtFCM+rQsfl3wPD+d+X1Ub/kcTpw5j0/fTkS7pseRHJ8OC19NoRzG0wEKzqqd6uOzN86jRf00XM2NQcW25WGBA0dXHUccC/4E4P5XG2PhigxsXZyFelWV/RfcqxZkfwP2i9uKwESY4rBowflLZVFgjUDXJ8Jx8IhyDX9H3eatcPuryp4NRtYD/gy6CwiJsu3zD7B5gdsh8dXnn8FbTw83uyX9HmAEsvMKkFqnEfLy2NSh+dGww31o+vgbXgmNpr/03y17tj9O72GrpJRj0ntv4gna+twcOqX4TxGwrNmwxfXupCn44uPxqNKkFSa+/TqG9O3ukYnaLTtg3wHFGeeh3rXRqmkC+j2xkX9mSxOPbduI0snKW6o4svMLUPW2Vlrwo+DgYGz45j00YRsn8Z7fwO+Am/XV750XAftqwJmOQ6eyUeuefdzxKCY6Epf3zEJIEHNxlzyMrV8ArkPqMKMLjQwX/jyQgvjoAsREFaq+BrqIh3w6QQp2pDkqurdfbtQ1DAX2KKydaUdSEnPOUzdM4uZ41VKghU1m12PiwHPHRqczGDYHsxzYkX65NDKvJmLc/KaYPWYQHyErNn8KlcpZ8O4TV1SrAbuG+/BYYaBbubB1f2XMXRGGSc8p8QF+3VEcLQcWw6FV2ahQ0u0Y+urkuhgzPQe7V2SjWtkMdcD2PaXALyaJA/bxwuUyyCuMxIjRcfhxvbkfQpuhz6JGV/eUkiwSjJwU5Q559UsP4vCfv2t1Y9+mtahZURWZ/6nmRg/7TxJYs2kb7u7Wq8i36D9pPuKr1zW1aOnWNIC9MM0beBey0i9o9/rjx+/QsE6NIt+bEhKB/wIBS9eHH3M9O2wI5n+zHCt/+BHHfvOcv6vVsj32HzjI8zLulYZ4ZmAZ9H9+P7btzsQtdVMx75v9aNPydqxZMMsjv7e2746t290Ke8Wckeh4Rx21k9cmur0Z2X8BXMcA5yVtNUGTvuewZdsF7px2ZOPHKMdiHajL4PgFnIcB21x1np8NzEx/qAM++9blwvHTxfg0ScVylxAcLIcrFgGNRHrJ8uDhg+BC/XvDkHklEuvnRKJSeeYkqIY/5o6Q0hJGF3NEFDEOhGVBGgbVGRqHMwQHT9WG0xWEpJLPo2m3yRjYOQcDO11B2RKnEBzk6YltGJuAD96K3npibF288MA5lEpSlni9N6sWFn5biD+/OqrgUrXXhC9vxgujL+P8+ksoHpulLDt0GfsbeIoDUVwsWBITCFF4c1okFi53b/bkq9L3HDsLKXUbKZdTExXJklCYj8/vb42cbGUHyoSEBD79Fayahf8LjYye8foQeOi51zFzbtHjEAz9ahNCY+KMXlU86qi+zloK8zGlRzPYrYp4j48vhvQ9vyEsNOT6ZJTuQgSuEwHL/SNedE0c9RLK1G+CTz4Yi/5dO2i3vrvPg1izVolyOPalhnjuARZnwImSLX5F1UrxeHlIdbR7YDVKl0zFmT9/1c57acwkjP7AvQXwB28OxpMD20i2ZfHmL/4NAmzMWnAQcBVIgYpc+OoHG3o8uptf+7GHu+Kj1/qo91GHGUsQUDgecLE3eoMVCBYXrl4NR/qlSCQn5iIunu1BoKZjDog+t2pWVyhosQ2cqN0uDIdOOLF5UTk0qHkQwSHqigTuyMgEAssP8zVQVyt4ve5729ELrZE4dr4Knp8QjVa32tGn3XmkxJ/zmFKQOyjRc3msXGB3d0Rg0Y810feeP7URuMcLzXFXk1wM7qIINXHOhPkN8dEXFhxcvhehwWzawUwcSNMM/EoWnL9cBgWF0Xh/dghmLPQ/xRAcEoKH5q5BeEIJoWU8qreqb7Tf5M9Xj+zBnMd6a+lr1aiOvb+QM9h16h/+U7ep2rQNjhwz3sfFKCPDv90BVjeNLFj69PKSx8yta7Fg5ONaktYt78CPC1jcFTqIwI1FwDJt/hJXraqVcN8DQ3FuxyaEBCtz0Nv3HUSjNh25c2G/rjUw+71qcDld2H/Cglu6rILVakOxYjHIyspBSokk7rfAjrPpmahy6x0oKFD8Dvp0uxPzJw7zHePAeQCw/wxAXUEgbcnMYhNUvfsgzpxj90jAhT+medNn0xCOder11aWEYmdFHmLHhWMnExBkcaJCuYuw8Dd79T+xVbOYWmDfi70SNOEgVjI4cVOHaOw5VIjvZ1VB03pHERvDHPzk4EdiF0bhxCl1PUK7yDlQfz6dWQrf/1oWHZqfRcnEs3yVgDh8OSMKu6j4fe3OW3FzlR2Ii7JqA22zB5ph5eQDiItiKw3cN35y/M24khOGWaN+47s/KgJE8S1w39jtb6Am4D/zdK5gvqNjgS0cHy8Ix9Q5/oPSJJcph56frfTwPRAiwDCfEqODy7/AmimjtW8G9euDWe+/fWO1QsrN3ybArISJNW7GlStXinSt8jVq496JC7Q6LwsAdgG9dUu2eq0f+xx2/rxKu88rz4zA2889UaT7UiIi8F8iYDmXcdG19tffMG/JUnw3Zzp/dofTidK33IG0c+cQGRWB4z/fiYTYUGReDsKhUwW4s687ehhLX6pkKs6qFoQ6rTth7969/DqpKUnYvXoskhJj1NUBEhpmlrf9ADj2SW/+6iiqvrVPXZCH4a8pqxbGjHwYzw++S7oA8w3IBwpHA3wjI+HKry5PVEVCfn4IzqXFolzpSwgNVU3/2oZJ0tbNWghlVWR4OBYqUxI3d03A9j35mDG6DDrcnomUpNPK5kp89FWtCIZRjPws+gewbkcTlClxEZVSD3s7I0oToF7OiRKNvMI4RIVd1e5eaI1GjxfqYvkHm91PpOLtMKIRHuySjW53Kmy9xAGTKFw4yCsZWEKxusGCsxfLwWoPw6dLIjBxhv9Nmxp16YvGj7zsZco1m2pgz7Z27PPY87PbYvDtwrnocEfT/1Ibo2e9DgQuXslGcq2b4SxqgKQnX0PZtj19+h8YCQalrQBfPtgOF8+xmCTKsXTuDHSmoF3XoZTpFtebAF/FMGnWfISFhmLY/T34/bNzchFXRQk+NPLJxhj1SBLSLoaCrW7cdbgA7R/8ngcGGTpoAD6a/imqVamEgxvXYNueA2h8973aksYfF76J1rdVd+dJDHauLMA2XxngWZPTzPhcnvBxiS18qHb3EZw5n4uK5Uvh8LoJCGaOifJh/QhwnZFGX3WgVsUBs3icPJOA+Nh8JBRjyxp1jojafgpiaaN7gyVlwGcCQmymBNzeNwkbtubh1cdL4+FuOShfap9qzlfjHcjPJl6RPaMnKynk12cXsP/UTaheei+C+G6R7iTyB3/iQFxTm9GwABevJuCjL8vi9SFKvArtui6gesfKWDntIiqXYSsxgnRLJnWWA21qgrFn1iWlDE5lVoDDEYRPl0SaCoQuoz5E2dtaeWTdnwVB00QuJxYO6YyM04rZOCoqGul7tyI60nfMjevdgOh+/xsEpsxdhEefe6lID2MJCsLwBesQFJfgc+WMvplKLQif3tcEBbnKJmXsWie3b0LZ1BJFujclIgL/JQJcILw3ZQa6tb8H1SsoexmcSUtH2XpN+N8H17REcmI8ctj2AwBW/ZqFwS+uQ0xsLNJ2/4bGHbrjtlsa4o1nnkCZBk3gUhX8vW2bY/knbJ5O52/gOg/YmCOR+F74A8g7KLrwwRd5ePrNo/wZJr71CEYMvNOTK3NMtH7mFhi8qUsWATiRlxeKy1lRKF3yourXoHdE1O/SKCIjCqHgXgrJph66PpqEpWts6NM5Ba8PA6qW365uw+wxEeB+Tl/iQB6wnRZk5SYiIcYdsli7mvpHkcWBpgKA/SfLIiYqH2VKuM3/IvhR5fbVsHPJaURHKssetYOvVPD0N9CsC8x6wJ0Zlb0RTqZX4oaTyQvCMcVkimHAp8sQX1YJkKSf75W/069rcWRnYUqP5trj1axeDfvWuU27/6WGRs/6zxJo2LYb/tyx03vptMFtQ8MjMHgp24eEJVf6IV9+CPrljbb0s/h0UDvtJahSpUo4uGE1QoL1fjr/bH7p6kTgehDgAuGTBUvRv2t7RIaH8XtevnIVidUb8L+P/dIckWEJsDuC+Pz8mBkn8PHs3ahTqyZ2//wtTp9Pw/a9h3D/sMeRk62EHWXBkE5snoKyqQmeDdZ1QREHkp+B23ogJuldsNmdqHPvBRw6egnly6bi2IYP+DUVawOfCAcKWUx/q3It/uYtpgaUVQysyZ89VwxlSrEBUtqaWbNYMEuFOi0hr1bwmCqQt2N24IUJVTF2Whbq1YrGgglRKJN8FDFRBvPvRv4G0uDtZdfUuSp4OCLqeii5I9MLB+0WLuBMZmWUSVIEFh+EtekBoPcrjfHlOyymhDSFIP3uPkedZrAEqzM4SifIVl+cucjEpAXjZoZg1mLfToqs3B5d+jsQFuHlhCjEgSwM5PwdX78K3737nJaHZk0aY9xrL3q3C705Qk4hz2P4uqHBilsFms+dxj2XYvxTLdXo2dm9fD2veGY5jciDv7xIzx8cFIyoyEiUTCmB4kXYX0WcmpOXjx17D+ByVha27jmEvYeP4qraH4jH0RnOvHxSZIxGIVFks78uAjt++WWtFsbdrDhik5Ix8Avm9+Q+9Eh9CdmjX8/Aqk9YtFblaHtXG7zyxFCTW+onLPR31r9g+EsvztVLF1/f+783E0gsBk6p1GSkJiX6rVr6TF6+moOTZ88hNy8PLil4nndMSn8V1qy0DH73tfxJTepRT9Tv9HXPX9l71gofL39aomvNm1FZu7+Tm6u+RD1K3N+blhEyiwUhIcGIiY5B6dRkFIuNLhJ4LhC+3/g72ja/VTuhoLAQMZVu4nEHxr16C/q1K8n3KsgrcOCO+zfiQvpVPPLgAEx993WcPHsBdVq21cQBu8iIod0w8ZXebsdEljMW18D2uRK6mOfU02KgDOKKPXvZWgu6DN3Dn2fUs/3w+hOd3L01S2NdATjXK9fguy7KUwPK57yccIRHFKpLGqX4Bh5pxXki4JE8VSD+ZiKikE81LFhZA31G5CIuLgq/zo9BiYQLSCl+whO0kTiQO3rxt66eeHyUIiPKF9fScJ7egYVYWg/RoNY2TRxYgIzLKTh1IQwNa5zlb09sGkYJnqyzHDAfBLZChH3Pn0cVC3Ch0B6OC5dLc/6vfBSNb1YpeyQYHVXrN8I9o5WdNfXt2qjpyY3718lv4c8VC4tUkSnR/z+BkPBwdO/SBc882AcNbqrttbS00GrDrn0H8NSbY/GrGkTNK4pXUR/LV5zxop5/DekatGmPZs8qO8HqO2H22ZdgZb+tGNETJw8yv6n/5+M65t/XkweFhqJ7p054cdgg3FSjOh9Q5MPucGDHnv1YsmY9Jk6bhoIctiKMjv9JAib1KSgkBPXr1cOUN19GzRrVEBdtvIsyFwin0jJRLsUz0NFLYz/C6AkTed63LW2HEgnB6P3UH9i8/Tx/wzi6dQP+2L0HHfvo91OwIGPHZ6pjogiZnANYmQOktOuh1/w/uxOzEDjQcWgGvvv5EsIjwnF88xSULB6jiQe48oDC19RdF9k57JqquOAjmbLc0GoLQlg4szCIFQvs8mLKQIgKeXdF4XPARl7V74BbFpgZnkVGDMHptFIof0cwj6ewcmYZ1KyQiQrMD0EcenGgf3szEg96/0V2S3kkVUdRLwFhUCu1NOIc/q/nToxTF5fCg10yEc4cNnXBj7RseIkDT+tNdn4cLmYX5/tR9HshGn/uUp0UDV5qOj7xKiq0710kcaDvsL95pj/O7HXH0rjmhvhPdbr/1HWvNYPX8zlcwIbvluC2Bjfx+r9q3Rb0fHAICgt101TXmod/IX2/8bOQUEeJycEOudoaiVgZ86fdGqMw78YfGOPi4vH9orm4rV4t5BUU4Lu1m9DrgSH+rVf/dFn+U/X9n7quEY/rea9rKI8P3nsbw/p1R7huAzy/2z2n1m2CtPR0DLn/ZrwyOBUt+/+K46ey0K1rN/yw5gfk5CiOOiyaos3phMvuQK+urbFgonu3Rf5GYWUxyy+rr7fCUiDM/uwK8moCKyq0uoiTZ66ibp0q2LmSLWkTmt4JWNlObWwpkzrwawGTJP8BMYXBX7OFE6QQA0IwCH8EefWB+Js9ExMJ6uZKTnZ/B6y2OJS6ozwuXsrFhJdLoMPthahWYYdSDL4sB3KPY+CTIAc/UqZGPHstr7dsOY1kN/O2HLCVCHJ8A2EBYHlkUwbCGVF0kWo2uDpRRYXskyC92mdeTUJOQQwcjmDc9TD87sXQ/6OFKFa1toZI7pD9vamxQejzXs2Qe1UJkHTDHP46iL/TefiyOP8/g0tMTOTz71lZ5vtvGI7Af/V5/g4b6Z4hoaEYuuJPDyuBXo8b6HNFSDhsmNK5ERx29qLxF47/pzz8hTt7n1LEZylZujTOnz37/3JLr4sU8Rn+X+vRP5OTG+KqzK/w+O/rkCTtSOpXIGzbdxiNWrVFfFwsti9rji+/y8Cr47d5wChdMh5ffVgPTXqs599n7JyJpIQYdWC2ALbvAOdu91u+vMSQnyHEgfq3y4nU5ulIS8/GrQ1r4LeloySBkAZY31OXNAqrgViZoE5ZcGuCsL+rmy7J/gny/gkef7NGr6YXwkAsnZSmCGrfWw/7DmVjeL8oPNovDJVKH0REqO6Nwsh2bvCdhzgQ0wPSqOnlYyCLA6kUtEtr0w7q9IBmfXALBd4mnUYrFYSACFb9R5WpBdnvQ3FYBNIup/IYCBlZEWjZ138UxSEL1yE8vrgmfIxmRI2mFLNPHMDnw3p4x8+4IZqin0xca6d5o/P4f85fVLFEPLRgvVd9NLqNvskWHt6FTx/v+//8RP8jl6N69z9SEP/uY7BpxTN/bOQbN3JRzKYYfD0S+ym+an1k5+Rg1cw7UKNSOPo9ux+b/jiDxrdUxvRXkxEfF4l5313Eq+N3oHTpUji1cQKCxHJE1yllOaMco0BMLajTCfzeYmtl3mztqNspB7v3X0RMTDTSd3yCyHA1hKntYyXaosc5kv8BFx92rNmSgruapKlbNavCQwz+XDwo2zwrWzmrmyuJ6Qnm+CjMAey5dHTaDq6O1Rts6Ng6DmOecaFEfBr3RdAOOb3qK2DY+Rj5IGg+A7ozfAgDgYEvCNGsE/53YlT8Ddz+BPyzmFLgkSDZ/5gFQYrNzL283SLjdEY5/vnn30Pw2Ou+HRSTklPQZ9ZquIKV8vMlDkRuZSROmxWFOdlefoKSVvPo5D1mc6QtOrQb66ZqeNhp6YaSMYafwnG6XMj/7XssmDyOhap0F4qPt/V693RBi6eUIE5664jRKXoehuZtqSoY5d2obhm9AevN6Dx7ujJxP7PiBFOYm43sfX/gy1EjWLzyovVcIp636FYsFvR44iXENmmLqNg4IIgJUMUfRTyDvm4U+Y3eR3gRI/b6e8ksZRZGuRTP8+eMcfj1q9nGzj8SHUtwMG5r3RY1Hnjeoy7Iz2XYJ0j71/ljoLUXNZHGUv7so47y/EnphCfYlfXLsXzGR3Co4aOLVtjeqdiyzwbN70SDYa/xnpUPBWpF412ueopc/hoXNa02xSo9q7iT/jy9xVW/KsUwPXt/cqltHEDB1jVY9PEYOKwsTo7/I6lUGXR6f54Stt5Pk5D7I/nZeVcr9UVe5aw+sPZuZrDyy6Ov0z2u1qalCwsjuxgiMn5YgG/nfALuWGhwVK5UGQc3fs99jvwKBHZuo/bdsW37n+jTuTJGP12ZD6psZ0GnWorMefWWnn/gUuYVLJ3zOjrfUUvtHYMA6xTApU4tSHsjeC5HVGMQcDDK3y9MsGHsNMWsNfKpPnjzmS6Kub/gScDCBhspGqIQF7xDsmPygiQ83O0iwtl2zLyCqT4KqvgQcRYUfwTdngl8DwXVQ9Co8F3AQ6/XxcxFOWhcPwyz3gtHZBjbCOmYZ28nQ/dRidjXRtKsKFYDD8uDEAe8QqjiQDQ0j50YWc7EIO+uhS7uiMg+ezsjimFOWA5YtgqsUUjLSuY5nDg3DJ9+6TuKYrNOPdHw0de1jOortr4RGXWKovM26Cv8DsL6wVa+jkeDNeiw9G3G4nIh68heLHh2EGyF7i239el6vTsNJRo29xt8x6jjMGqk+gHdiJURG5N+S7uVfhD11S3y61kLsGXSq9j2k2eANH9daVBwMPq+MwXF6twKS0goT6rXzvrBoqhpxH31olBM0RmxE/XH6Fx93fJ1/iedGsLqZwBNLVcRd7/6AeJLVwBUUazvCoy4+/1OuHEZLF7Rdy36svclMmQWHsLY6UDmrt/x9euPefqWFGFaLLl0Gdzz8gTEV6gKBId6CEB/bVHOuyh/X3Vf/l3/txFnI0Ht61ksLieyDu/B4hcHo8CPj0nzzr1Qf9hIwxU4Rm3PX59m1lb158r9lq96LHPw1w6cdhvSdm7BV68MM2zG7776El567GFzgbBl5z40b9+FR1ecOPIWdG0Vo76BumCzWfHuzDzM+vJPRESEIf/QXHcv4NgGOFa7/Q54rRRv7epmSsp7mjRloAzOOfk2VGiVjYsXcxAdFYndayeiYikbUMi2ZpWdEqW4BhZg6pehSCkRjm5tLqmv1LITopg3FBYD1XrArQmq/wJ7Decjt8RMUFa/e21yDbz1sRWVK8Zj2cc2hIXYULWMatWQS8RAGAhVKGrXNcc3ELR01xbxDbTrahYCcYL3KgXFcsB+V4IfueMdSG8YbPtpNRSzwsSCzOwSyC2I4laH7k9acOCw77no3u9NR1KDZvwhjDqConTM4jyPjsxAvOvT6TsHM4uBr45cRm3LysTCJ3p77OInzgsND8ewrzbBGRpuKBBMn8/dEjx4Gb0tGIoFtiLFpZSi2TlmA4nRAMJa6u+TXsXWVUtNYw2UqVoDHd7+BKHxqplSgiuXo8adDWcAACAASURBVK+/Redv1CHKHaO+ZyvKQORVL/w8m1w/HdZCTO10s2Fnyr7sNnICSjdprVhIdGVglA+jwV1/nlxnjPIqs9CLDH8C04iTzDw/Mw3LnhuAzAvnijTF1/H5d1Dhjg6wBLv3tTCq70b1Tl/WMit/9UPPw5/4NBIKRgXJnq/gciZWvPgQLpx0LxHXnsliQf+JcxFfvb5Wxr76Nn+MjQZ+fVkbffbXro3ajBETfT0pSD+Hzwbc7YUjOioKZ3duMRcI7Mz7HnkKXy9dzi9SPDEOKSWikHm5AJkXr8LpUAb5KpXL4/BatnRIlbzWDwGXiIuuhj8W0wt8ZJJ9CMTvrGWxpYtOzF4KDHr2HL92vTpV8Od3D8JiG6dbHikMZA6s3hiNmV87seD9bFj4Pgq6FQq8VNj0gVi+yJwQxWZNqjOjXhzI2NTSmTSvJp58qxDFi8diwxw7j6RWvexuxeSkExP604Xw0ISBmt5LS5hNKagXVq7DLsKCGKk6S7dc0XilghAEIr6BeHiRBzaloHynXFYEkwnCuYulYXeG4MT5cHR4yH+I5Yfm/Yyo4oq1Qa7AHp2XAQNfnZ1eZMgdqv4e+oarFxh+n8nH87L7F15Kx9whnZGfo8T8EEdSmfLo9dl3bvrSW5e+YRt1fHInZlDtvPjpW/S13qMonabXAOVy4YtBdyMrzff23vXadMDtz7zHl8gaaGT+2KYDn1Qn9AOdV5vSgdAPTEac9M9gdA9951qQfRWf9tCF+LZYkFgiBV3GzERUyXJeK3V81nmD+mVUf/XPbtQu/J1nNEj7ahf69pF3/hTmDOkMm8232T06Ng69J81HVKkKHm1cLwTkfBgNjuKZjOqkvzavLyOZhX6A9lUX9TzY58KLFzBv2H3Iveq5rwd7CRi6dJvHFJkv/v7yKeqFr7rqT+zI5+r7EaO25a8vFfexZpzHjAfaw2H3LOs5UyYVTSCwGz/x+mh8/Mln/C3F6Jj49iMYMUAJpwvnBXVZI/8g7c4oHAnVlQUegkG3h0KBBb2ecmHFGqUzGti9PD5/L0u9ludyyWNnonBHXxvWfmFFlXJs5QF7RuFfIMc6YADY92z5o5h/Ua0Ywpjhq3ar4mH2d3Uw6Lk8xMRE4fdFTj5fXzH1KCIj8oxXMoi3XVGaBvEL9EQ1xLpWK77XBgP+dm+0UkH0QLJlQPEpUPwN2HmqOFCnFvS9tjatIG3mVGCNRMZVZcCf8HkQPlvINqsyPtgueUOWbEZIeKSXQUbfqIyQmzUeowZo1CGaNRBf95YHXH0OD349C2s+ed/j68qNW6D9G1M9OkrxQd/J6cvbrNP019mZiSZ/nYicAV8CQztfvVH24T2YO6Ifj5GiP25q0xEtnx1tasEw6pT1vI2Y+RMLRh3ntQox/XPJ559cvxLL31V8CsSRWr4SOo6ZhchixflXeoZGfPXpxD2NBKy/OuhLLOgHWbPB2t9z71k2F2unjjFs4HHFEtDn0xUIiy3m5cvilSeDaRKjshHPIrcbf6LBaCQyE59GosLoOgdXzMOaycwh3n3EFC+BQfPW8i+K0qZltr7qp3wtLyaqVVDm6XVvoykoqdB91Ss5Xyz5rlnjsG7hbI/8Dh7Qr+gCgZ257+hJrPrxJ5y5kIGwkBD8uGETtu/YwQPuXNgxA8nF1OhMLCCS86Q7vLFmtxejsFh5ILDJIZJZlpxgmyztO5qA+x4/jZOnryI4OAgLP07GfW3Ym5s7cqLN7kCt9qEY3MuB5x9i4kBYD4QwYBYD8Z8QCNLGTqJ2eI3Sulcd9fevf6mD+4bnISIiHNu/Zm9JQUguloak+HRDpxV+mnruX55SEMXmcR3ZGVFesqgm1sU40KwNPCqiUr31GzIpD6q8+fE6xu/nFhkXslJhs4fxPTlaDypAWoaPNfAWC8pUqY4uHy3WIPpquL4GOL+NQtdlGTV6ubPRDyxGHblRx2rUmfNb2234vN+dyLninl6586EnUafHw/6dsPwMIr46TDmr/tKYdXxGgkvfefi6hlxGrFXNG3QPsi54Ln0rVaMOun8wH05LkGHnqS9/X6LIqPPVM/BVN3wNqHqBpfXwoj1JNzASmeznn0YOwf6tm7SUUdHR6DN9GSKTUvWX09IY1W1fg4ZROevzYyQUfQllXwOrr7aiZMIddppd13r1Mqb3bKFrbcrHofN/QmhiildejQYkXfdleI58E32ezPoOOa9GD6vv2g3rg3QiS+8oyMPcgXchR9odtGzteujMHBQNiXh+adTH6Mtez8Uon2JqVN/2xbn+XhB89RdGdcBpLcSnPZvDWsD2R1KO5rfdem0CwaMSu1y47d7e+H3bNkRFRSL3wCxl4GFOb4VMeeWp3aEcMVGOS6AIAe6XILZd1nwSnLBZg3DybCL2HnWh5xPH+PbSsTEhOPpzCEokCktEPtoOKYGdewtxYHUe4mPYFII+KqLwOSh0L9vTRmwfnqh6shLRhT/WQe8n8hAZGYHtXyuxBmIiclA22Xsfeg9xINcOg3gHwsFKX/e8piP4ReUIZzpxoEY8VB7ZXX24g6IWF0HardFDbUrVTScO7I5QnL+cykXFsp9D8PJ4994RRu2l/aMvoPK9/b1WIciNwl/l1uHy2yQNG5Yv7181v/oG7K+TMepgvn1lCI7/4R4wHpj+NaLLV/PpA+BVrtIXMgdfzyWXptHzGHU2RoOEZ61QzvI1aBh1MOy7n958HPs3KW9S7AiPiETfyYsRXbqCYf59DXTiWfTs/Q0yRvXHV2cs1yGPvkuaDZTFo/w8cp1y2ayY2bsF8nPdy5l7jZ2BEnUbm/p86O+rL0e9eNXXezMBLZefkbgxExX+ubjww6tDcGjbZiWZKiD6jJ6O4vWL5lvkSwj6arO+8u9P2Gj1x6Mv82xxes5aHdO9pcv1a+3Y57BX2tb7nuEvoFonpU/zV46+fvOXZ32+jdqpvqz1/YC+PckEjOqBPv2Chzsg88xJ7bRaNWv+dYFgtdlR/taWuHD+PEoUj0P6dhYMiR25gJX5Isjhj9n3IrCR+jfzE+DEhKMhEwrsswh45MLJU0mwOSxYsMqKkROUB7+5bnFsW8Le3Fx4Z3oqXh1/DkunxaBza3XPBX4f4WegTifw1QoeawF9Tgfwm8g9jq4Upi6pheEjC5CQGItfv7ABllCEhRagcqrqqKhSkFcayEJBLmStJIRBQ1eK2q3VPxSx4MdywIWH+F3JhOI/wC6sTkW4mIVA6na0AVMWB+w8UX3Y9xacv1QSNkcImMtJl0ftOHbSfzS5RxauQ6gU/0DkVd9IfKlxf4OKvvEYDYRmKt/XIFuU79m1N059F38uY0t4gZi4OAxatMmn57avvPjq0AUrf52iXE3d/idyl+A76J3R8xh1UL46nD9mjMPmxW5zZNOeg3Dzg89qTcfzKZRPRp2jvk4YnSd/ZyYEjO7j674+BwwDwZSfdQmf9b5de5R6LVqjxcsTlY2e/AgsfX78CTb9oCOgaatFpYsZpvWz6s6XCDFqR3qxun/hNPw062Pt7hVq1kbH979kG+54lasvoasvFzPR40uY6gc5mb2ve/v73l87YNfesehTbJw5ScmnxYLhC36BJb64oQXBrA/S112jMrzWfOvzpm+v+v7FsH1JS8J/GDUcB7co8YzYwTYiM13m6KvR5hVYEV2xFrdDlymVhNNbJitJ7b8Ajh/dEQzF9IIcIEmzGoh5TIZGWAXcEQ+zrkQj41Isr/p9nr+CP3Zk8ILasaIE4qKyUaOtFZUrxGHHsgsIDRXLGYUVQSxjZM6IrDJLYQzZ7Yzkl1xC+qiH6m+jZ1bHS+NtqFA+HiunWvmyy5DgQlQtdcCrsxArJmW3dq/b+gp+JNUovmaXd0Zq8CJeqMrArR0GYZPdKxNE4CQhGMRZkojQLiRiIbhFRU5+DC7nJnBoUxdH46OZvp3UxGUeWbYNIeERWifiq3MU6YsiFIw6Or1ZVK6v/gYUfeeib7BmnceeBdPwy+dKx1mmVn10mcB2KFUOfV70A72vz74Eg1FVlfOp7zj9CQuj3/Rl4+v5xX32zP8Yv8yZxh+Bbfv+0OzVCC6W5LF6w2hgNrquUZ71DOVmqe+P/HW8/vKlL189T3dhWnDl8G7Meay39tWQeT8ivLgytWB0D31H76sPNerg5bz7EwL+BllxDaPnMGxDfpagHv3+K6ya9Abvz9nS1Ue+XIugOM9NnYxY8ueTVtYIVv7auVH78TVoFjWPvuqSWZti5+399kus/fgd/ljR8Ql4YMF61X/LU/DK7c/oeUW+fLU9f+f7qg+++jZf99e3IaP8b5o0EttXfaNV14b16v51gcB28kqsxpZ7uFC+TDJObP5IaS2FzFHrtHt6gUtg9T9uNWB/S9MOWpAk3T4NFidcziAcPZnM57zPZThx5/3KxkhVKqUgLS0D2blO/LYkCLfWZd6m8vJFsVpBapqCiP5fufUKij7EAUs67J2bMG1eLm5rEI4Z74RywRIc5EC10nu84hp4RUo0uJeRzycz5x86GYOMS8FYvf12lEu5iIc7bkGQhS3JFDszynkz2qbZIL6BCGKjnqqIDPFB+VfESrAwL3QXYHcGc+sBX+KYFYz2D+ciJ9c8/v6jK3ciSFryZdag5cfQDy6+3oB8dZJyen0HIToquSiMBjP5edW+zqN8t82agC0L2SZUQL323XH7E6O8plP0g4f+mvpn0BqxmgG/A4RuvlifL8PBWDKnyvc2ew5xbXHNjZNew5+rvuan1Wp2J1qN/Ij/7dXRGdyvKCKhKHkxYmk04PoSIHK98CXYBJddn47G+iWKACxdsTK6Tf4GLvUNWqTR11GjsvPVSeufUc6/XvwZ1V+zZ/Cqy+oJRvVTvhb7++DSz/HDtPH865jEJAya/4uvqqN970uwGrVrfd3yYCS1g6L2CfrnN3pYr0FUcvSTWe38+nNs+ETJe0rFqug5VRk8jeqLL7FnxF5fN4rST1yLiDATLHpBJxZc/fT2COzf+JOG7K6Wt/91gZB28TJSa93Ce4VK5VNxdAMzxbiAwrcAF3N0kHZt9PIzEEiEs6JqSeArC4SgUP6+cjUGaZnxXFiM/MiGRSvczlEN65XAH18dVqcU2HlMGIjgRwZWAv3Ab1Q7fUlLlWrrh2rg581WdGsbi7dHCJYu1Cy3S4pm6L18WH9ZX/ErmTio370aMi7b8NKwJDzQ8TBiIy9JDkS6feeZ5UBbmaA8j+Jv4A63rHz27MH14sAdXZFVL6W6O5zBOHuxlHhJx72PFOLYKd+BggSNm1u1Q9Pnx3k1JtFYfDVa/e++Bki5kZp2zLr4APp76xu2UYfsLmX3IPjTu09j//of+E8dXxmPii3aGnux66M6+jBeeYkgg2WS/GYG+fHVefobeGTWRRm4ZG7fPjcAJ3Zv51+1GzESldv18rIe+HtjMRIJRs/ja+D2JwSMysqojniw0b3petQvpwMLH26P9HNKv9P1lXEo06KdURX2qO9m9UhcwFf99cVD3/kbtSlfAz/Ps5xXqW7q+yfBZ8P7L2PHGmWJ+533D0Wd/o97jJBG3aXRM4rn9CmcDDz2/bGRr+evfOWCMutP+O62aiwRdt6mKW/jj+UL+CVuvbcnGj/6mteKDaM2pq8cekFyLWUmX8tfX+VLdBS1nbPzl47ohTMH92q3HP7QoL8uEC5kXkLJOmyLaBcqlkvBsY0fKgNLwcuARY1IyHHKVgN1hJatBtwOLzZw0m2opHruHTtVCnZnENIvOtGizyktAyfWXUb5UuoGS+yePBKiQQ8sNIfPZi3pEl9pXGzADELpVrWRlpGLl4cn4v6ONvCIARYLqpXeycOKegz8+s/qs/HC1PWgwtqw8MeGGPVxMJZ+ZEW55OOICBXOnu63e+0RPaYV1NgFmr+BMtAzccAbkBT61lMcKNXO7ZegCBCHMwRnMkvyqUZ27uNjovHzuvPuEdIPy2GffYPgMlV5Cn8DuFHD0Z/j1UCM3kp1S32MBidfg4rZ4ChXJzkvXz3WHReOHOBlP3TBWoTEuJd7eb2hSJnQ6TQPUeGvMYtL6AdNfXU36rBYrA4WMdOjLAzqprdIUZ6Id5oqd1aN5g1ojawMZYvvgVMWI65STcMZO1/lbyQQ+HcspLfTYWi211c3w7cuHw5n/DlYZEMfb4r8dwNzOPvefvUypkme/EO+2oSwmDiPuu1LoMnlaVZOfuuhwXPLXYjXG6G/fs5EoHrkxeXEogfuQfoFZUpxxJJf4YiO98q7vk6LBCLEr/75/NULX+JG3zaUMvPsb/X1yh8jI0Ry3tlzrHy6L47v28WT9ntvGhIbNOd/G9Y99YLX2vcY5UvPRzyr3D4Nefh4NqPr6eus0+XCnL4tkXPZ7Xz+4ei3/rpAuHglG0lsisECZYph04fcYQ8Fz6lv9PIOjUIksEeVdlHkkRWFiGC5Ux0UxTQE/82BvPxwnDmfAofDgruHFODMmXRUrJiCY2v2qMGPxP4JUikJqn9XHIgSdwI//1EHrQeyARtY/HESalcq1CajKqceQkhIvl917SEepJqkdfoslPObt6BdCwfaNz0GhyMEz06sjukvb4HTJa1c8NiJUSl+RXSwYldi3Sv+D6q1weN1hk0dqHfk1xHVx22ZKLSFIS2LLWFSfh07JxWzFxxytyk/oVeDQ0MxfNk2j4hy+spsNFjzx3cBx778UA3YoQxMWuNQ1/vwTsdIeKkJRUevdCDq4BYShnI33YyQm5oiVEHjcRgNqkadrjiPCcFpnW6B1U/YZaMO6F/7zmJBm94DUW3As1zE+upo5CYjd0qyE6Ql7yqm9W4Jm9WK6JhYPDjvJyA8ytDs6nENP52Xy27Drk/exYblbFns/9fhzmVEZBQe/uZ3d10yuIW+YxdJrh4/gNnDumtnDFuxHSGhYV6e7Lz+6pwx9fVK/p1Fpi3YuRFn9++E087isujqpH7wEw6RvkyPrFyDQ1GpYRME17yFhzjz1c7kcjEavMXvtkvpmN5XiW0TER2DwUu2+B0cjRjoUbNnsrsA2+5fcXrvn2DL67zSCMuG1Ob1DZblTu4fgoJDUO6mhgit2xxB6l4fvvKmHxyNeFgK8/BJ75YoyM9DRGQkBs9fC0SyKMJF6zt4/8Ns2nnZOLb4E36S3DeJNqUUqxDhyrV9FbF8jeDwSJS/uRmCqtRDSJCn5cNXOYh+0+ilLcTlwOTOjXi7Fse65Yv+ukDIzs1HXKU6nEKZkkk4/Rtz2AoDCp4CgkREJuFXwG4pdlmUAxSpwoE7MLpjGyithTkZquIBdpw6Ux5n0kLQrLcSXfHE2lyUL8NWLkgBW/SlZzSlIHIvDfweRa6/hqAN4N7HKuPbX1xISIjBurlBCA5SbsAqa4WUIwiXdnXUX8Yo+JHHSgd1EUenpxph9tsnUCz6En+Lv+m+Wsi8lIcZ70ajYzO2Kyb7n7qZklrLFCHgdkTUoifKwoCfJ3UZ2ooHUZUVB8b0rBJgAkEMI0+Nj8eataf9VlqZX3hUNAZ//ZvKRa3wBo3KSIU7M05jSn/f5luvnuQav2DipcvjL6Hk3T31/Y3PN2CjziNj33YseHrANd79308en5SCAV/85PdtX6ruXg/Mas+lbb9g3quP8d+q1b8Fd43+nK+PMeo4/XWm4uLHv5uP76eO/etbKBcBa2q1Ouj+oWIq9ncYDRwnf/wGK8aP5KdFxcbiwcWbDQWWUbehvxe/fmEeFo3og4xTJ+B0Gm+WY/acZr+zLa3bP/UGyrXq5Leem1n3WKz+xS88zK8Rn1wS/ees8fIz8fUsRixZPVn06H1IP3EETh8bBZnlzex3FqCt/aMvony73l7lxM41Em1e5WQBsg7swNwR9/OfSpQpj56ffsdfTIzEtVFfJtJd2rUZ858fbPbYf/n30LBw3PvMGyh1R0fDa/gqY8FCDINXD2zH7Cc9+7RLh3b+dYGQX2hFsWr1YS0sRHJSPNK2f8IkLFD4pLRfguqiL+91IKYcPLZ9lmMliGWOnpEQrdZgjJlVF6+NZz4HQOG+UwgLVfdXMGqdvvwNZDJeo7gBYzVNXmEcEpqUgNXqQqe7EvHeUzb1TVZJUKXkfoQEK8LI47K+wibrv1cH7B+33YTWt+zRKmKzAbXxx+4cfq8SxUPR9OYIjHumAKUSTyMoyKFaCVg1UESCd/AjJU/uyIhiHlI0FWZRsCDzahLfwlkImfzCYHR7NBunzok9LIpWh8tXr4VOkxZ5JfY1WMirEHbNmYj18z8r2o3+Rqr+E+YgvlZDfoWiNnj5dttmvo8ti2b9jSf4906tdksT3P32px4dZVGeRnDaMOZZ7FyrbNp0x8BHcVMfZbMXPUdf1xTpWH3YPu0dbF76ZVFu/7fS1LyrE1o/867f5zR8fpcLP73xKParS79u6zEQtzzELKRFO/TXvPTnRix+40nYCsz9eIp2B9+p2LTSfW9PRWrDZj5Xl5jV/T1fzcDazz7gN2nQuj2aPTf2msWR6GXyTx7A7Cf6wVZo7uD8d/POzu/57nQkN1RiNciHmfVApN339Sz8rEZLrd60Je5+7WPTlwhxrsx1x7S3sXGpuTj9O3lm1pMHJy9ARIUaRS4f3bsjNo5/ETt+/FZ7jJtq18aOH5f9dYHA4iBUaHwnzp87h/i4aGTtnaEESWI7LrK3fz4iCMuAKgD4jo7CKsD+VX0OtCkF/eZKIo2ND2I1O1THwcPpqF2zJHYv26zsuWA0yPuS87LNyZc4UMkxk/7SjS0w5fPjyLwShfMZQHqmUrknjkzEXU2s3HLAN0K2uFC9zG6eNXbZH/9sgTYNNqhv+8ZFr1n5tedQBnm2EVIUC9vMB3wnWg+ui1+3ecYEZ6aqsqWjUatqCJ59KBqVUs8iOsKOiLB8hAQVqL01u54+iJLyLExsFNqicCUvBlZ7GOwOdTttWGCzuzBxXjwWLLuAggLz7U/1uWs75ClU6faQh3mTpdGrbH0FZWkWDu6IjNPKSpV/8iiemoq+M1fDpa6yMLuXviNd8cIDOLlzq9lp/5O/h0ZEYuhS72c36jiNBs25A+7ClXRlTrrrO9NQ+mZlXtbfm4oRiGNrvsHK95U383/6aP/8u6jUqpPpG6XXc9itmN61sbYfwbC5qxFcorRHMqN6bMSi4MwxzB7eAzYDk/o/lf//Y+8qwKO4uva7ycZdIECwIMU1uBZ3d3eHFiuUYoXilFKKu7s7xd2luGuIASEJ8WSz+z93ZmdndnZm5y7Wj/5zn//7S3aunHuunXvuOe/JWaQEGs5ca9PYCAW4o2P74OGVcwx5bX+bC//S1SxIlTtwhXNCk5yABS0rWWD9f6l+k3r9sgSi/fJDMIg8t4TjJdyXxLScmDoUd0+xRsg1ew1B/hY9bCc3XYeNPeohymjDYXsF9CUy5foOrRbsUBRi5AT51e2qIk5gf/BDn56YM2HUxwsIxKiheK1muH3nNgM7nPR4tdEGYYBRg8AFQjIaIZqeC4wCAicsMP/ltAZCmGSj8SEjROgQl6CFZ3F/hmPdW2XA8imXpIUDqVG3Jhhw+Y3vXvO3lcaWfQm48E8adGmWKkAfHzccWeEIFyf28CSHtdYuFbkz3zcNTsjbXJiwyAfTf3gIX494k3GUxdu5SYvAgx+xBylrD0CEouA2BXHv8QfZmULa9/dzQ76gdJQsmgEtaiQjk08MNHZaaOz0nHUCs4XrDXaMoaVez7fHLvA0PH7tg+XbEnD6UgpiYnm4TfopSrBT7NB79d9wyJBZcqJKTU7ThmQAljYvg9Qk1saDpLlTJyJTBhbnXi6R8mnpevw0YSpeh7HPTzSpz45LcHB1kz00pNSGpF69AdjQpaZkREeadv/tPET93HvPDdhL2GIw89maoZM+HUtbVURyApnTGnRffQhuGdkDUyhvKx0a5N15VacaSBBAVbu6umL0sCHw9SK4J/IpNS0NIydOQXIS/Rztt+kkg9PA9U9Mr1xrcaEvsLoHq7olfOu794Ypq5LGRHwQbeheD1FhxP1bIokOMVMOzuCGIZjmEcO8blc3d3Rbfwx2zm5U69GsT2mpWN6uCpLi4+Hg6Ijem09D4+Ju1oB4nKWEJWJ0uq5LbcQajVr5vhknG9d3YV/FLPqIvpN9sefGk3AyxsmwZd2RfmzsXg/vwkKY/b3Lwm3wyJmPyhBX2E5q7HssacMDbFldKBwzbSFUkNfV2xfdN57mzM8Un4LE63xRk2Az7c7GJfPRtnHdjxcQCG1Nug/EngMHGSZG3V0FH08PIKkvq0EwaQuEroucAEBKCyMuCtEPyTcOAZF7ZkjGqzAX5KjKgpN0b5URy6dcNN+V5OwNKLQGqTpn/DI3K9btcUHkG3OEwIwBPujUSAdPVx38/d2RLbMDcgeaH9juLh8Q6Ge8+RrA3MrvvCyKLqP0qF8pHlMGPoOdnU4aJ0EAm8y7GrIj/yHBF1mreyE1lV7NT8bC1c0JQdnc8F22D3Bw0sDbyx25c/rB28MO9vYavI9Nx+NnUYiJjce7aGdcv5eO2JhEi0BclSpWQEhoOF6+sISRlprHnP2B0uYpLsutjfkNipneJj08PPHm7mU4OzpQLZnyDVvj4tVrVHlJpj47LsLB1XzDExYWrlduCpHvxHBraefaX/TNnLoTH5GRgFcRECvxZm7tUOea0b+PxMIONZl54unji87EJ55oDY3JqnBhzEN4GX7pOLaP/8FUztHREffOHkXu7Oa3c6nu3XvyHIUq1aTuuV/mQLRbfpCJuircCqTmoPgIfn31DHaNYZ9QnNzc0VtgpEdDAMeP5LAXWN6jkdn6WjRrGrq2bgoHo3eF1asfU5EBizdsRf/hv9A0zeRxcXVF9/UnoHExxsgRlZS6TXO/xb14iNV9WzAlvDNmQsfVR1kzJysCpHj9EH6mRkViSYcaZi1P+Hk4RvTrAUcH0dq2snGcunIDNZq1gYGA4tAkjQa9Np6AXuvjBwAAIABJREFUk1EwVBpvYdNp7yOxrFNtJiCZu7cPi/1gZ0/9jMa1FfPkLtYNbGPW9L3zxxAYkNHC7VyYSadLx6J1mzH6N/NgUda6zQgIBMhJkKxdyIT59PExWNiqstn8vH3mMArnzf1pAsL4PxZg4gw2qt3mJSPRun4ZIKk3QAB9TE8JQuND8b+FcRO4b4KIiwymAZvnySsv5K3B3yaPrjGgRjnjwWXN3oAQRzglAX5E1OxTl2fBn6scEBtnfBvTAIXyZ0Tj7+PQpIYzPFyl1exCi9SggIdwdEgxEwCeRRTEhwQX9J2gR1hEKga0T0bfVtHwdH3P8Iu1FbAeiXHvmexo9aPygujWygt2dgZsPZiGDx/ob1ZSE87eXot6tWtgQNeOqF6hNJyy5adZjkwez4As6LyaVcvRTE7hoRT74AbWDulsuik1rl8Pu1fwEK9KRASV+R4vXsnc0ESF3b280HXDKcBeqyhpi/siNFpToul/8buzhyd6bT0ve6Nk5qYM4Q+3LcORZX8yX4vXboJKQ1mUOXGSukkK81xcOAVXjTDV5PdcQTnx9AIP0GKNbxv3HET73qyRJE0qWLkWqo9m39FtTVeW/45LW1cxxfIWL4060+jtToTz//zMEbh+7ICp+Xz5vsP9kwdMUM20dB08cQb123WlzY6seQug2dwtJvsjJcFd+P3pkZ04aHwCCipeGg0U+i5X94PNC3F0pRFll1Cu0eDDk1vwcHOl7gfJ+DLsDXKVrkRt3Ojh7YMuJPIiEcAoE9eHVyf3Yc+0n5lSxDOi0cw1Zk+m4suDXPXPDmzCgb8mmX1OeHEXrs4swqy1dPn2fZStJW14KFXOO3NWdFp5yKqxsNwYPdm7DofmTzNV6+3tjdc3zsHNxfnTBIQt+4+gTQ+iMQCaNayGHYv6swIC44Eg56Eg9Zwg1CBwEMkCwCMj6St3FED3kexBTm4EF7cmoUwh86hypl4KdznRjkfsI5ftyoVxc10REcmqtLVae9Sp6o2OTV1QNDcJY8xOA87OQDgovM+0Bk6OCciR8Ym5vYEBSEz1wut3OWAw6DFnvTtWbX0PB60durfQomXdJFQo9MwUN4ElTzDtjG6Mg2cEYjGFfcvJ9T7I4KNDkwHAk+ck2qVtyT9DBlQsUxpVypVCp5ZNkcGH9XWOjo2Dbz6ClkmXilavhypGgCSuhNKmxOW7+tc4XDzAovORNH/mVPTvZO5tIEeFXq+Ha1BhpFAaQAXXrI/yw0m8EHnjOjm6T00dhtun/qZjCEGf8/CAX6ZA2Dk6SZQxTkwp/TzJLfgsfXOTs4AVNsUZCrP15ShSEkV7jJB0S5TTInBtb+vbBBEvnjKVNxo1HTmqNjA1JKWREN/YuTx7hnfCqzu8ur5RvTrYs3IBFU9//HUa/lrExX1RLlKt5xAUbtlD0j3P2viTb9v7NEb4y2dMIw2H/oqg2i2pVPVcvdwQLmtTCcmC55Qf+/bCn7+yB5AtafJfizBmCgtARpPKteiEUr1GSs5zpXV5fu6vuL5/G1O2WpcBKGQ0RhW3a1WjYDBga5+GiHzFBwCqUqkiTm5dbbNwtGnv32jXqz9Nt5k8Jes0RoUhrGGqeDyElUgd9sK+l2raHuX68lob8RqRE4Y1BgMO/NIDT2/w7rUlS5bE1f1bqPo+Yc5i/DqV3aNoUtnGbVG6/xiLsZYbZ+Hvu/o1xevnT0zN1KxRHUfWs2vso2MxkMKjZ87FlFnsjSJTgB/Cry4Ekol0Hy9wURRqDcQeCpwRojAcM6c1ELHFuFnOXFUYI6awh7qdnQaHVqSjVjmBYZt4VxIJB7tP+WPI1Cx4/orQyL6b16nqgR+7uCJbRv5wNfNZtRghnr3ZMzyFi2MCs3EIsIiYEi/f5EVKmgvz76eh7pi1IhGnLsYxGTNl8sRvA9+jUwNRXAMTxoEBVbtmx+Vb1jUImTN54+9lBkS8d0HtLpFM3bMnjUeD2jXx+EUI7tx/gGfPnkKXagR1ggZOLs7IkycPShUviu9yZEMGH0+GD+J05fZ9lLFBim07aR78S30vOZ+tbkh6PdZ2qobYKB6k48LBXShXogjN2sDBU+dRv00nqrwkU5spC5GhpHQYW6lKhLRv6tUI70KsP7nkKVEW2UuWQ4E6zQF3H3ZDML758xuMhiw+pjnmaUlD/j/7lQMmYieU9JYk/GJOs+UxL7SnYBa9RJAh5ndBRVJahCXNyyI1kX2C6zB/C3xyF1Qca/G4a9J1WNaqApISeVuTxbNnoHc7Vp1tLRFBsHitprh9l0d7UyrT7vdV8CtcypRNah6KDzmSmbwfL+tQnXlKIpDhfTefhp0HKzjLzRF2LM2FTvL3EtH77tZl89GyYV0l0i2+N+8xEDv3H6Qu13jMLGSvVEcxvyVPDNg5oAVCnz5iLmJd5m+Be5B1TaIUX9OTErGweVkz+4k50ybhh67tFGkSZ+g2bDRWrae4LRkLNh03G1kr1LI6XnKasl1D2uP1fRYgqenYP5C1Ym2b6dWnJGFpywomA1dSwexpkzG4Kx/TQ65Svd6AAt83wKNH5gEArRHRZc46eAguc0oCIPfdoNNhfkPzS+DMieMwvHcXprmPFhDik5KRs1RVREURLALAyckRyU/WACljAMNrUTRHofGhUbvALCVOGCDfiWaAQ2AUsUI0kpOWFMf4P+JAGEnS5CEpGNQpBh4uRvsBU+/Zeog6/+xNf/QYmwWPnxqFAI0GpQo7YvJQD2QNYN2OTJoBDmjIeF9wId4B9qlwc06Ch0sU6z1hTKwfgzFxlzXjTkueMF69yWP8zv54+JwGQybzNgzjB2kxqvszI8gRH1NBg3QE1iyAqPesICOX2jfPhjE9Y/DnOics2fCO2cyeXj2NnFlYe41PST1/Govla9mIhUqJ+OP2234Oegdnm13odCnJWNSE38Tt7e0RcecK/I2aDKW22w0agU1btytlM33vtf0CnNysG8MJKzPdEnQ6kNtgEjHSk0hZ8xVC3aGT4Jwjj+i45TNbvXFJiAOkpNQBJrW5WRzGEuA9tEwSt0lm/KIGxZGeztrD9N9xAXauPA+ttS0UUKIe3sSGHzuYyCB+6y9vnEeggjEqKfDmfQwCCgbTdgGOzs6MoZqdyLiO4yn5r5A2IU/f3r2OzcNYv3AXD0/02HLOFKhHOCZyN0iOSE1SPOY1L2/2vnv3zBEUzJuLuh9cxuylqiLkNdlb6VLXZXvhnjVIcT2KRUpdbBRWdKqFVAKG5emFHlvOMkIszZwT8iYhMhQru5gLKJf+3oMyxQrRdUCQq2Ttprhx6zZ1uU7L9sIraxB1flNGXRpWtquChLg45jzot4UIhiRQHV3i5sOHkKdY06uJWaHHl04jTw5lO5u4hER45qa7HJEGnAiQ07bzgD1v0yE1L4XjzP07JSEeS1qUM6PzzN6tqFTa6AZuEMJR0fGAyXX49HnUac3f2ggzT+6chipFtgN6oj4k00loiMiFYOZ+56IuEq0CEQ5kQEPEs5K5qgNrDxRH71EJSE5hy2kd7DGoa1Y0qHgL/j56ODrYIyk5Dc9e+2LELD88f0HiGbAdzJfHBVOGuiF/Tnl/ZBLCmQgcGbzCTBKwxQIRhmkW8I67+JHmnkUUErgRAuv2ajB1obmRY5vG2bBszGVotXwLREDwKBeENCsGiuTWf3C5N7JlSkPzQel48CQRpUuWxCVKNZa14SbCl2feYkhIsB7WmavDJyAL2q8+bAaaQ3tgpb4Lx5KOvLRfqFAh3Dq6m0FEo0l5K9bGk6es6psm9d97HXYOjrIbp5z0nRL2DEu7m4PPkPaIcFShQ28UadOHpnmLm7rlnd+8Gjl6rN0SFA8uGXAj0rL4xYP8Hf/oH6z6gQWOyVmgMBr+scHMQNFax4V03tq0GKdXscGdSMqSJTNCr5+l4tuhk2dRry17s6FJ2QoUQePZGy1cbrmyUnznfnu4dz0Oz2eNxPyzBaHt0r0WTSqNGynw4tAW7Ptzoqmss7Mz4p7ehtbeUmNnrU8vwyIRVKoStZGem6cnupE3eAf2acsareK5EnntDLaOZo0zA/MVRtM/N5mBBNH0m5QNu3AEOyYMMesWEfwD/H1phs+Uh6BO+hcsjZiYGOpy/XZehL1RMJTbhzi+COd73JM7WG2M3JmRACQt209lTyWu6/WFY9g1wRSsh6E74flduLoo2x88DwlFrtIi7wcrPffJkhUdVrDYJFJ7grV9Iv7xbawaxGt0yDke8s8FBAZkYOv7WAGh8+CfsXYTC43q6KhlLO1LBRfB5a2loElfYzzwhbYFnGDAaQ2IwGBFMCAVi09kkbY99F0gqnbwxtOXMoZ5Ij1s5gyOmDYqAKXyE0NBy8NHa6+Du3M8AryJe4t542Z/ST39GtsSeuTo9U54FpnPaJDIjvCYv+yw81Aso9L38vREtHHSF8ifEedX3oWzUyoDfqTRpCN77XyIT0hDUhIPf8nNE3d3J8z7NQClC0bjwUt3tOjHPlVMHj0SvwwidiCflqJjP8A3XwnqSrIXDUbjGaupLX2F3H99cg92TuPf+caOGIaJQ+nfG72+K4EPH+RdQYWd8PD2QpdNrG+3VLK2wG6snoNzG83fvx1dXNBywlz4Fi0n23faRWttIXO00uQR94tGkJCrnyt7fe44nN/P2ojU6j4I+VqzwpAtdZP8hycOwqPzJ0wkVipXBmcowZKmzF2M0ZPp32XLtOiMMr1GWNAopFmO/jPThuHmSdbWpHTjNijb3xyzgXZMdw5sgdAnvKq4Ud3a2LOKRLy1La3ZsRdd+hOMGbpUuEJVfD9OYByo8IQkXI8318/D6bVsOO+itZugitEYVZhHTj0v5MvpacNwy8hDUlfmzFnw4soJOGrpDQdJuRv3nyC4el0LLys5TmQLyo2mC3eZI8cq2BuRukif7mxciJOrWb4Vrl4f34+wtFWiEdivLpmGizv4EPDePj54d/cy7CWecsX92Hn4JJp3psddyFWyLOpPWW7BDrHgJ0X39SVTcH4HryXOkCED3ty+aKrrowSEkIg3yBFcCYb0dEY4+H10AfwwnlX/JD2aAWcNQRsTuy5yxodkGMiBR/4n874uozWw4AA5qDUabD1aHgPHvUV8kgbJyQRd0FiBBnDU2sPLE1g2PQvyZCHGh+aGh8T630mbjGwZnjCeAAwTRe0L/7RwyRU8Kwi/kX/HJ2VERAwJlcxtpemo08cRr0Oi4e7ujvvnjqJAxRqIj2dv6Z6eLniwNxzeHsmAwQ7dxgUiMdUdw7s7YeUeX+w9eB9uHq4YOygbyhcKZaR6AmzUoE8aQsNT4ODggFc3ziOTjRK61EJ78jIEectK2xNI5f++S38Ubscf6nI3WMvbhwFHRvfCw2v8pDy9Zxsql6ETTl6EvUGe0pUYlySaVL5DHwSTiHSCUZHb7MT1re/ZANGveYMroh7vMGs1PPMV+6j6uFkhdWMXt017IFkrJ7XBUwkcBj1Wt6uCOKMw237WavgW4lX9SkICt/mSNbG1V328ec0HXBs6oC9mjaVDJ2zctS/2HjpCM8xMngajZiKoKgvdLXWL5OjivnN/EzuJtV1qIebdW6Zspznr4ZWvGLWLH0egXpeGBY1Kmm0oC2ZOQb9O5q5vNB2y5bmP1Fdn0GjkbSD91i9cm1zbwjl4ZFxfPLzManWa/jIdWavwxqhCWq1qEnRpWNW2MuLj+ee47p07YfmMX2m6a5Zn/OyFmDidDbtMk6p3G4iCbVjjeTG93J1Rbs3vH9UTz2+we1HNfiOQvwn7zGTtsLUQOA3Atp51ERHKPwe1btUKm+fyngLW+tG0xyDs3s97vSj1uXrvYSjYvJsZnTT91hj0WNm2CuIFBrS9u3TA4um8xstmASH0TRTyla+OBOM7bIE87lgx1Q/lW7Eb57XD81AyiIAlEfU9pzXghAMO30DBr19Bc8A0JBrp8LeBiI7zBTFkIocFERLs7e2g1WrNbAA4xtnbGZAt4zO4GOMnkMNWysVWUnMg0BYIcT6EdBEtQER0TsQns++0xAAt7J0janV7D0M6Kxj17dEdf4wdDvdchRm6SSKGl/f2JyB7xgSk6bQIbh+EiIgk/NC7ICoV/cCEYL773AuNKjxgQHtqdk1F5FvWs2P5nN/RvU0zpflE9f2vVZvw48+jqfKSTL2W7oJzNs7eQrqY1EFCAvXMb2guDBAVV9ZMGananrV8A4aPpkfk67fjAuyNb+c0N0khEctaV0LyB17N2XDUDARVrW+aity0lCJc6dYh3GypDm1BI7b0QyqvUnu61GQmOBWXeq4/Dhe/jBbv91KHsJlwHRuFJZ1qiQLCbEWVMux7p1Lyzh+MWBvUzN1WHoRb5mwW1SrdhJPCX2F5t/pMOSdnF/TddRnpJq8mvjolwTJV4n333P7tqBBM7xnEtVauYWtcsgHno83s9chYoJjkc5GYIWZzIl2HdV1qIvrdO8ZAceCW04AoUqm1ceJ4mxQViWUi/IN9m9eiQdUKSsNs8b1ysw44e4G/QChV0GnBVnjlKsBkk7uocHUI+04E2I3d6+B9OOsZ12nuRnjlLWJVAyVsg/t3Wsw7JqCZKZHn9707ULVUUSXSQRCKXch5kEaPYttr7VE4ZZC2ObO276QmxGFxi/JmNB3ZshY1q/BjZJOA8Dw0EsW+r4O4ONbQjxy+uxblQ95sCajdKxEvX71BsaIFcWMbCYNLJEfOO4EcfgpaA1KhDZoDs1EzltPDDlHRGREZHQA7YyAlZtA0GujS7Ribgsx+r+BgT+IoCGCajVw00wCIhlIOzEusNWCLse+LL9/mR5qONxw5eM4Rwyfzlvp+vj54d+8qUlLTEFiyIqLesd+0WjvMGOGJPs0fQm/QIjExDbEJbMS8+JRAODsZ8CTMH20HvUZSEitsDR3YD7+PHkblQqM4SwGUatgW167SwQm7eXigm0QQG27BSA0tR0Ny9Dssa8cvJqKKi7x1wRJERYboUg1a49o1OoAkraMT+u5h8yodiuLmyDgvalTcBJBUvHZjVBoy2cxwTVhG7rCkFRSkeKZ0ANOMq1QeqZugcGNNi36LRe1YmF0PTy90JuA7DiSgF5uUDlwuT+SFw9gyYaipHEFPfHf/Glyc+Lrk+nDr4RMUq6pskc+V9/TzR5d1J6xC7Uod8KQvL84cxN7JrFbDLzA72izbb9UeRk5Ae3/vOjaIgnpF3L2KAD96ozeuP17flcSHD+aQ69bGu/emUwyKoJR2ytrcTw1/gSXdWP97/8yBaLPib0ZTKRxrOb5xv5Ps7x7cxMbBvDEqKW+L4C/sW7bgKngdKuPOLsGEnptPw8XL1yr2lHAP4Phhn5rEGJQSzxVXNzd023gKdo7OivWISYi4dRnbRnQ3/UzOybTXdB4JIeERyF68otQLuORwu/v4oevGk5JP5kp7XGJkKFaIjEgfXzyBPDmz8+NNa4PwIiwSxavVRWws+9ZLLM1Pb/ZEgex6vIn2xpV7zug0hGVC5KVUZPQlAgKlYEAKiXU/1rz7uJkoNVONKn+DwR7petZxjMRKsGMCRrHJ7LCXsCewkFNkrgrS9bBhmUn7zyLzm9kfjJtrh+0HY+Hg5Ii0lFTmMD+9bwcqBRdFcmoqClSugxcvefVrQAYtmtfPgsl9bsLN6QMSUtzw0/yyOHAkBOFveLuEYYMGYOrIH+Bg49ue3AYTn5gE/0KlkUIJZ5s5TwG0mCcdqlfu8OGGPPbpPawdwOMdtGreDFsW0KsTPfMUQ5xAjWlt03R290RPYu1rTEqHtbCuiOtnsO0X1nCLpF5rj8ApA/d8RC9wWDuMxbQrCQRKG4B4EzTNf0FD1urgvoWf2oftU1m//RJVa6DiqDnW2Cz77eK8Cbi6j58nxQqTgDB7qOpauG4L+g8fRZWXZCpSvT6qjJghGWmS4ws3B8Xz4crSGbi0ndhRAd+VrYzaE6RtBpTmz5X5E3BpL9/fXLly4eGZQ9DaC0K3U/To0s27KF+3CfUbfIaATGizmjzFsPuf8OAW9lmK/icHNuPQX78xVOUtUxl1Ji5U9IKQ6sKjnStxeDELosfw294OcU9uwc2FdfumTbHxichUuDSSbQhwNXDfDWK1LukgLO6/8O/wi0ex/VfWziOoaEk0mL7GBF0sniPW6H+wczWOLubxKjzc3fHhyU2qLl+6cQvl6tFrgQMLFkOzP9azPJYBOZPbR54f3YX9v7PYCUwyAHHP78LdlTekpNIgPHkVijJ1GiM6mlevHt/ghmql45CaqsWL14FITgGKNQphqJw9Ro/BXd8BBnKIybguCtlF+6Qg5IKUtkHMCYmDXfrGb8Yj84EUChCcEMMNhLF+vk5+4ccl+SFSYH+QkmqPWj3SEPU+AeN+zIaJf7KCQMECBXD3BBtFK02nQ7uBI7B9125zGoibvEYDg9GtU/jx4KbVqF2lgiSOAdWMlMhkq/1BkRoNUfUn/n1N6eASfr+8ZDou71hromLX2hVoUqsqFelJqanwyl3UzNfYWsGixkOD5lAUb6ynpw/DzROs0VrF5h1Qojd/WEktQOHGY23xir8p0SasV0rY4Pov1ACIabHWppQ24NDILnhyk9W8NB87C1kq1lHcjCyWogHYNbgNQh/yGAYdW7fA2r/ojA67DBmFNRsto4TKjXedweORt24ri880c3PX4HYIecDaVNUfNBq5G7SzuEVK8cmsMX061nashtj3LHIqSYP69sZfv7LARbaksb/Pw6Tf6dEgy7foiFK9fqZ6XuDmAjdHTkz/CXdPsFgLVTr3R9H21o2FpfhJfts3pC2e379j6mbBwkVw58hOmzWcO4+eRvOO7Ps6TfquTCXUnsgaWIqTNeGcfDv1+8+4ZYxoWL5Nd5TqNtRm7QE5Ek5MHIB750+Zmi9apDBuHhHt6TKdmTx3CcZMnk7TVSZP6WYdUbYPD7olXPdCwVBKk/T3qO54LAByKhUcjMv7NpuNkaKAcPvxM1Ru2BKxsax6y87eDvuXuqNuZWLwp4fBkI5nL3NBl67BmAVu2LbnERydHPDm4kt4uVOENbVFOODYZvawKSM6SQkHgvJShohJqa5wcWQBXKSMEbld0VS1yRaB0VOYBtUAO4RGBTEREzmDyZNXnTFg3FtkDnDB/sWOqNFNj+joOMawMDXkgdmEOHv5OnoM+wWPHrOhrcVJ6+CIedMmok3jevD2kI8nQD3LRBn3HD2FJh15FZlSPQ1HTEFOQex5mknK1bmiZXkkxvMAVa9unEO2zHQYDiev3ES1Rs2VyDN97/T7CngXLmNhMyC3yQmn0OqO1RH37g1TV7s/N8Avv/R7otTBLBY25N6upfhG3bmPyEgzTvq0FCxpVhY6HfuU1W3tYbhnyMKuEWOb1vhnaiNdhxXtvzcL0GQLWmaRGo1xxwaApDZ/rkeG/PTGoxydhqQELGldiRE6yRt879UH4ZAh0OYnKV1CHBaJ3nf3blyFhtXoAbq4Ia3ZuiuOnT4jP8LCKHAaDVpNWYyAEspv/RYHJjGu698MEc/ZfafD7LXwKWBuHyQ3R4VzQJ+UgAXNyprRO/O38RjeizX4syW17T8cm3fspC7SasIcBJQ1j/1ACovptliTBmBL/2Z4Y+x747F/ILsMQJKQb2IeatJSmUBkcTGsQTxJs6dMxODu5s8tch2yeZ5PWYwMopDeUnWL+6tPTWYCr6UK0Gd//+1XDOtlDjhnVUAgN9qAouURbZSC7eztsXeJC+pXIVIxH8o5PsENoRGBiE/UoVzrd9Dp9Fg7W4+ODa2E7qURDIQ9JfkFZZJTXeHswKOxmbLKCQaCJwwpe4K3sVng5xnOujfSuDGa8pirC4lwQNKLyPyMQaERJw+/zHHErr+j0LSOByb/CPy1wQOL17HRB8eOHIGJQ8x96InR4j/3H+PWnbuIfB8DXXo6Mvl647u8eVG2eGE4OtjmKkS9wgAMHDsF85daus1I1qEB+m05A60RTETMfmsbShJBqxNFO4t7dgfurnRqyDYDRmDLdjqAJK2jI/ptOw+Do0B9JoMFYDE1SaTJpqWQlpIMZ2cXdGfAd6QD4CgtTppxoNmEhfUo3Yrl2rSmgeA21SShjYhGg77bL0IrEwXTWjsk3PGyXuZq8gcXTyJfTksjQnE972I+IHvJimboi0p87Lf9AuzdPKgOdqE2IPLWZWwxvh97+Pih84ZTZm/wSu1ydcWHvsTKHubW/08un0Lu7FmVqrD4nqP093gVQhdnhBTuuvIA3DPz78jiCi2iyhozaHSpjFCTlpLCBHrqQYL/CNaL1EEr1Zno5w+xvp85Muazq2cRlJV/kqNlQs7SVfEyhB4citheOMpEcFRaJytaVURiHHsR7rnmMJwzsoIwTeLqjn/1BKt6NzUVIe7sYbevIMDPW7GamLh4+BDXcsqAVAQIjPQXzuZ7Ec2FJD4yFKtE9gfXju1HyULmiJlWBYRLtx+gXC1+kq+c6YyuTYlkxJ3W5F0/DXq9Bo+eFWTEtNbD03H7zltk8HfD8+OP4eYioUWQeh6Q+k3IUtH393H+8HVnURxNSUFrQPJJaQ7ef8iIdL0DMniHst8FTwlc3dL2BsIwzWRY2O1Bp3PCq7e5mb8JzmKazh41uqYg6n0SVs3MhNKFEhASoUHd7qw9h5ubG6IfXv9sNgSKM9FKhjRdOvJXqYtnz1gMeqXkkykQHUmQEIElk9LBw9X5/vkjbOjHawDy5s2LR2dYwA+lRMBTPPMWRyIlkJO7jy+6bDwt+yYt1Z7pVkminbWuwniafFeiDOpMXcFkl9MEcHVZ25BotBakHnE+qb9paBH3j5a26Ps3sH4Ie6vwy5QZ7VcetjD8Uxor8v3+1iU4tvwvU9YsWbLgxeWTcNAqv8fvO3EWjdrZAJCUJx+azDMXHIVCgDV+/bNpMc4agZwCCxRDs9ns+64wiTdgrj7h7yEn9mD3dB7bgxhkRty+DA83OuEn1deYAAAgAElEQVSXa+9NdCyyFi2HtDRLLBTJOUvQ/3Zdhp2TcjtCnpC5/O7mRWwa2ZOpNnvBYmhsfNummYfCOf/89EHsm2Luuhr/7A7cKAV/Yb+88hbHB6NRPM08I0bIBLhMaW2K60oKe4GVPRsza9w3gMzzQ0wER1vTs6O7ceB33vvLk2DdPLhG9QT8z70HKFFd2qVUio5MQXnQYsEuE4iV0j4gnJ+RN85j6yhzvJy3967B39dckLEqINx/FoKCFXgL80fH0pE3O3Gp4zAOOC8FHWJjMiE8KgtCIgyo1zMK6USLMCsdHRvzfuOSu6pIM2DGCO6gljBYPHq1HGoGC1xfrGkOjJyTkkESkj3wOCwfCmR7ACdtPD+xBEKCpd0CJwywS0wcpvlNTFbEJRHcdrbF41c8MGh8GAIzueLgMgfY2+kZoarxICc8f876Wr+8fh7ZswTYOh8/e/6wN+8QWKQstRVt3nJVUedXHpCFVjgg+R4f2opDf04w9WHGhLH4qQ9dtLqExCTGPZQ2ZStYFE0I+p8xKd0mhPWGHN6G3X+w/tv1jG/SUpumUt1cm5HXz+LR0d24f/4k0vVEyBZQIxROLdQx4nwCbouFWsHfOYqXRf2JloZ2NGN1Y9kMnNvGGuxV7dgbRTryYZqFPJLjJ9fG3hFd8eLWVVOR+rVrYf8a6bdi8ZgOnTgDsxcsph1qVOnYB0U7mmNdCDdPa/0WAjmVbNQaFQaMY9rl+metn8LhOjKmNx5e5Q1iK1asiLNGw0fqjgBYtX0vug2gB0jKU7wU6k5dyXjXKM1x8fcry2bgknGsSzdtj7KiIEVWp6ZAYD4/ZyyuH+SfBYjmmTyj0oAECXkT/i4agUVKUxtnEgG23crDsp5FYr4L+/9wyxIcWcEKsCXqNEHFIZMV7Wyk5v/F+RNxdS9vK5MzR3Y8v8QDg1kbe1vBsAp8Xxc1fuYNumnWM9f+jRUzcW7LahM5nl5eeHvnsoVm2qqAQOIt+OUrwWByk3R+qw7li3Pui0JMAwMMejs8fF6KuaK3GpKKOw/ikCmjOx7+/RSe7ka4XuEKkhMMxLNQ5uAfMbsopgy8BwctCS1tyXbmJ8HvUpoDvV6L55H5cPxqBvRqdJLXLsgIB+zTAxkGc3sDs9YNGqZOvYHPM2RqOg6fSUSHpv74pbcxrDSAncdcMGYW+669fO6f6N6qkS17xxfJe/rSNVRtQhdFkRBQqW0PFO/KwqnauiH9PbILHhuN30j5Z1fPICgrnVovJDwS2SneWTkmVWjeASUFhoU09DJlDQZs69fUFMWw44Jt8M6VX/HAkBucG6v/xLlNyyWMXL7IcDKVVu0yAEVE0fjEB57k2Bn02NilFqLeRDL19Fi+By6BuRTHWaon6wjwUCQfmGz8yGH4dQgdWub3LTrh1Dn+sFXiVPPJi5AluJJFNqX5Sdb3+i41EG3sb/MJc5GlLOveySUazYshLRULGgebHWy22FsI22vR+0fs2MMaMdOkRoPHIUdd+vUrrHPvyK54eZMV4hqPmo7sgmidtDwg6vH1XWoh+i07Z5i6GtTD7uX0odu5ctMWLseoCXxERqX+1+jQCwU6mcMb0wp0e4d1wMu7rKdBvWETkbuWsm2TuG4SfG37wBYIe/rIRGqndm2wZjZdHzr+MALrt9A9mZIGqvf9CQWbymvWLOjjjkS9Hjv6N0XYC15L3KRRY+xaamkIq2ikmKFQGbwzRtn7cyzwY2dy4yWHHBd0iR+2+Hg/hEQE4UW4G5r0CUVamh5zxqTih86iNyRrwgGpjvRMrDXgDnsNkJjigZ//zIFxfR7D35M/cElRk0ygIByk6ZwQGROIuEQPTFrig/W/nTQraxBy12RvIHxSIK2J8NQNGkYweEHglRm2kL8NqNoxFe+jU7BmVgCCCxBYaPZrWGQ6anVj7Sjq162D/avoQt4qLZRP+T5n+ToMHj2euorWv81DxtLyiItSC5T8pkuMZ4zWUgTuS7aoIf9csR5DfmFvd0qJeIC0/2M1fAqUlDzcrG0i6WSzJ2h4zHBq0GvTKThT+FgLaeLqf31qP3ZNtd2KXal/St+7LNgKDxFwjFIZ8j3tQwwWt+YP2j47L8HBxY1aQDDxVZeGZS0rIDmZh0SfOXEshvdW1haRJ69swZURGckfOEq0d1mxHx5Zclhkk9MCcL+nRUVgcYeaTDmtgwP6bDsPjRVVvdy8iY8Mw6ou5hEALx/ei9JFpaNfWutPrrLV8fylSAtrpUC3pbvhlo08b9qWyAVqQ+cazMGusdOg58oDcAqQtg/hbqqkBfF9LpkAJHWsaSYAL/5jOnq3b2kbQQByV6iJZ8+sR07lKiVrvMfyvXDJktPCe4Ojk1nCEh715PdV7aoiPprFoWk/dyN885oHS5LbxwTHEnRx0VjeoYbpQk3q2r9lPepXMQ+GJMWIxKRkBJaohBiBcaMSw7os3Q2PbLklnyGFYyO+P6fHRWNhK3Nj2Z3rVqJpTcv4D4oCQp2OvXH46DGG1qCcPrh/4C6cHOS9E56+KILUNAf0HKvD+WvxjNdD6Nk3yORnxMr/GHwDUQ/fxWbEmLlZMbjjM+TPwbteioUDsdZAp3dASpoT3sVmAvFYIOn6A3es2xmPffPY8J6mycRVJqk1INNFsEyYvGwkRvK8kJDibro97D1pj59nxCB7Vm/sW6QHQXDk0rtoA6p2YKFICxQohDvHdjNIiv9WIpTVatMNx06dpiLB0ckJPdYegb0nG3xFSQ0rrDT25WOs7cP7+7q4uCLu6U1qNWTBag1x//59OjqdndFn5xXm7ZxmoQunm+5DNBa1ZheTl58/Oq09Jvs2Kazboh0DsPOHVgh9TEczVccoMrl5eKLb5rMEotMmlSmpWjxGA/bfhMZGH35G1k9LxeLmZaEToMMR460CBQsiR3ZiTCd712G8CY4coYdXJsiHPbeeMwNy4tgkNz7c7y+O78a+Gez7ccacedBm4U5GKOQOQQlFpeQIRL94jPV9zX3Z+3TrhHaN6/O7hoI6g7S1dNNOrN9M79rp6OzCRF60d2QDNAmTkuYj9V0YlndtAJ0uDX7GN3iD8Q1eLBBIdZqrP+7FI6zua377zp8/PxZNHc8ae1o8m1n+RrLcuP8YQ0ePp35ecHRxRa8dl82CSlEsDzZLajIWk9DMqakgxszE8E8YqVRq/kjxlzwdbvmFh3gmgbkuHNoDDwGugBRNCYmJWLN1F2bNp3tyI3UE5s6HZvMt7Wxo5mjUw9vY+KM5DPf7hzfgQ2ISiOeNElDS7cfPUbxqbRMU8PLpBnRvLi/VvY8OQGRUFkTHOaBW11gGBbBjCxesnXpXNvSC2QoU91AoohlX6vOw7zB1mSeCiyShd2PWr5oIAwaNHaC3g954kyf/TU11QHyKP6LjvJhYC+IZOnmRASmpqdg0nQV5MhMyJDwVxPYGbAE7NhyqAUxwJnZBsWqQZgN1ePQsGQO6+KN/G3NtR0ycARXbsAKCr58fIm9dtDnKG/UioMiYnJoG16BCTIwNmpQ5KA+aLdgFOZmG21ikJm3I6QPYPWWEqZk2LVtg0zw6n/iEpGS4k3ColNa+voHZ0W75AdPmLHUcCcde+P39zfPYMJI15qnQpA1K9qMP2iPsv11aMpa3r46EOLqgUjT8p8mTtUAxNJUwtONmqHBsxHx5eXQn9v7O9jd/iTKoaTTOFJa1pn0xLV2DHqvaV0Oc8YZGQ/fH5ilQqQZqjKEDchLPz7NzxuGfg2xAqoJV66D6KB7oR4oeufMuLuwVVnVnoZq/Zmrx6xxkLse6+Flbe1I0hRzZjt2zWM1h0Wp1UWXE76ZKhIK/cJ0I6+HyJL0h6Hz0gZU+B3+I9qBW72HI14zVSAmPDO5vIT/EAk/83ctYNYx1685ZsDAa/LFJeP0z8dPaWiGZbq6bhzPrRIe8UMXCdVbqNxsYQfrbZPTvyFqJRxa1ejkR1f3syE4cmMXvY8SdN+nFXTg5WiKaKmoQSN1FqjfAnXusr76PtxseHwmBn7d06E3izaBLZ+GFZ6xwwupt7xjghZPr01GlpIzbo+C2btYXqZPFADx4XRizVzviRYQnJg6IgYsToLWXV02QeyPxJuCmDtFwJKXokJ6WjB5jtShV2IDVv923sEEwMO8M1u0NWLdGdsQTkjwRGZuZBTUyAKeue6D/mDDYazU4tNwXWTKwAgL3PS4BKNeKPTBITO/4JzdtRlmzYV4pZr394BGKfs8Gt6FJhWo2QrVhU5mNhPJyYKr22oKJuLCHvx2dPrAblUvSGR2GRrxB1uLmGOLW6A0KLo8Gk82jMEotKPGmSv4+MXUo7pw6zFTffsYyJmojl4Qbp9LFiLxPrulUHbHGAEA0/P0ceQrXaYbvh7DIeDRJyBcC+HLXCPjS8pdpyFSloc3jzLV57o9fcOMwHWoiDZ1yeRqNnIoc1RpRP4Nw9ZDx2zO0PULusZrEWv1HIn9j1nuD5lZG8pkOHl0aFjUvh7RU8wvBp/RLqWxQwSJoMIuE4OavJ+K7lVwd7DwfgjunWE1Nzb4/Ib/xbZtKABQeygYDNvaoh3dh9K6JSn1T+h6QJz9azdtmNZu1/enC7NG49jcLZFS5cz8Ua09iCSkn8R5yeHw/PLxkBa9CuUqqHMENWqL8wPFmxphy4ySukOQ7/NuPeHiOfRUgKXOWQIRdl9YaUwkIl2/dR4V6TUwR86qUccGJtfeMN3KehNRkZzwJyWd6fzIY9Kjb2x6vw+KQK7sHHh+6xZcRz14lzYHxO3njfxBSBH+ts8fiDayQQmCfHV0c4OvjDG93OwTl9IeftxNcXOzw4YMO794n4+Xr94iO0yP2fSLS0tJNGhFSvl0TJ6yeIFD9MpoDaXwDbsfgNQns0BBo5eeReXlmGNJRs7sB4ZFJaNfEF2P6EERJ8ylFok+WbcHjq6e9fgQthdsX1Sz6iEyb9hxAu9689bdSFdUH/IKCjdpbSNtKG6pdejo292mESGNUP4JVnvLqAfXzyqHTF1CvdUcl8kzfa/cdge+aWoK0KC4qfToWNCxhmivd1h2Hm790ECmaG9u1lX/gwmbWRfJrpXojpiB39cZW3ymlNhGkk0OO+MQnMy5a/badg8YY5Moa7bI8NRiw88c2CH1074t2vdPiXfDKkUe2DalxYq8BBixpWQFJRtCuHkt3wSWbfD1SPBPO+7in97BmYBtqFflHM0WjQYHg8qgxaYlVocjaXCd0b+7VEO9C2Atc+1mr4FeolNWnFWvCcdTDW9g0uMMX7zu5aOUpWQ51Jy+RDe1sTTDg5gIBDEo24h80n74MWYrRXQLMxkyfjvWdSZAr1ivtSyTS3wqtuqJE92GKArC8YGfAwsaloBMIr6OHD8ak4dL7PpWAQDrbZfDPWLOJxxWvVNoTy34zRiDU6ODlHo93sT6mScEx/+IdZ/QYyeIVdG1lj5W/PTaPu6AkGJCCgjwpOgc8DSuAuevtsWg9ffASawPWtKYDtvz+kLn1syAiSsIBp1XglVXR8RkQk+DHNmMAZq/zwNINbICRo2v8kNmf9QRhtQesxiExWYPSzY19MACpoQ//VSyEvqMmYPFK1qWNJnWYvxU+uQuYCQic9sza7SUtKhKLBZHebMEqJ3T1+OlXrFjLwzMr0Tpg43FofOiiQwoXVsqHaCw12h+QNvrvuQp7Y/AWqQ1SUeCAAR/uXcfhOeORyD01SKHWmP0mU6sc2o2AGSToTMel++DgJW0jIq6Zn81AfHgIVnZjtUkOxIZjF++iaI3fVvli0CM55AlOzPkV7yLCQC4Q1hOnmhJtEjJ9J6hwXdYchYMCQJIUR2Of3MXagWwYZk8SAGftUegl8Pyl6JUTOpLehmN1r0ZIsyGOgNJcFn4PyB6ExjNWwsnbX/HAENcrHGtNeiqWtK6M5IQE5g2+z8YT0LgRN23F0ZFE0yR1J0aEYN2AlkihxClRakv83S9TFjSbvgIuAVklnxRsqW9xk2AGHIqk7qsPwTUgKzU/ubmUGvEKS7p+uWelTNlzoNHUFXDyY13hheMndSETrkOSn8vz4fVzrOlp7i334sYF5Mgsc/FRskHgGE2siSs1bovL16+beJ8/rxc2z0qHVsuSy8EKmzqgAQPBHNwsETpdOlrV02DL7Kf82EntD3ICg7FUWFQ2xCT4YP4GDRasM0L0fuSbTlAOP6yaFIufZvvg3IpLjO0Cy3pjfwT/ZjtI/k8kHBiA5DRXhL3PZjr8SZCoMi0TkZysQ//OGTGgLbHettyWklO0CG5mhOQ0AEkhD+DsyEd/tGWSf468uSrWwvOndABJLm7u6LH1nJnBnnijFB8W3PeI62exVWDMU7oUwQCnM8Yi6J7ZSn2PyAjeZc5a3718/dFpw8mPul3Fvn6OtcbFlCNPXjSaR96nhUvz47lO1oqyQEHnOsptAML6uDOUCKRytz1r7UfcOI9tRiAV34BM6LD6qIV1uFAYlNuQzGgSWJAT7x65TU6qDMdp4RyTEnAYAdyYWerglhuxf9bNxdl1LNbCd8HlUWvSUsa2RkkbpjQDiBCUFh+HdJ0xJo2YOOHuLa5M3FmuXxp7ODg5wd7ZlTqaqBydpInklw+wtA/rZZD9u/xo9Ne2T57lpF4COqRLjIOOgDxJvcEJ+y43UUSTTKOxg4OTM+ycXc1jBlixfxRXzfGCVG2vS8VfjViXVGcXF/TcdgGw11p9SpNaN8QQN4VoIaxtD9Ymk3gxGBshGBIOzi5MVEkpSE9ra1jq28sLx7B3Au8K6ujoiJRX8obT1BoEwlQCBVmtRSf8c4u3+PfydMSk4QGoFhxtvH2z7OcsVveedsHP01m1y7gfnDChv5EYOTdG4UwWMdRgsMP9EPades5aLZZsjGEmXigBeNBqkZSczERFTE1NYwIfkYv68Ekzcfz4cYv1MXesI7o0egZnx1TsOl0MTSqTPinZG3CjyLKe0JOqc0LY++yAgSgpWYLbDDXgzoN4ODk74sQad3i5E5dQyxWSkmaPkk14zO6EF/fg6mxpgay0CX2O76Fv3iFHcCWkU8YhDypZDg2mLJNsWm7j5zLf3boMJ5b/aSpri494+NsoZClShrrL2QoWQ1MjIpwtmz3pw53tK3Bi6R9MWzV7Dkb+lj0/+g2eWRN0RtxUggNXn/h8URLSrB0UXF2kDnJgnjEemMVqNkTl4dNkBQ1rdYo1StQDZ8woJQQonSvCNqTKS2m39o3uhRfXLjBFK7btgRICbA8hX5T6QyOUfIxgKFfGmvBnjU/Cb/+s+B1nt6xi+l6uZReU6mmOgkhDL8dzmv7TzEFr80Suz+JxF46beJ1weR8d2IzDxuiV+SvVRK0xf1p1kxTTJUWL0pz91P5bm99K6+vKilm4tGWlKZuXpydiHt2QLWaTgEBqiY2LR5u+Q/D3Mf7QJX6zpYu4YPJwX2T2jTYGGQWSUhzQuH8SwiJYt8ht853Qovp9y7NSaueW+I2EO34VmYc5iCcsdMeWvRFMXc+vn0XOQHOc76evXqNa8/YIeW0eR7xBjQyY89N9ZM/EGgcy3g+MYEDcwNhGeS2BkW8G1oXR9AZhFA6SU90REZOZCenMPR1cuu2KHj+/YSTSueP9Ub2slKESu4wIBHPxxryAEP3oJrw9P3/wJaVJQ77vP3EWDW2Asy3fsR+CO7LGPNY2Ycu2DTj0S088uX6J+UTsRyLvXoWft6WLjRTdF27cRoV6PNY5SwDzLiTZzTJN2qFMP9Z1TUlwEfdlZ7+mCH3+hCnbdcFWuIuwBKQuPVIbCDun5LUBtBuwUj5bNiYlXuwc2AKhT1jPnnbj/4B/+dqS6mSp/ipdFmnmo9S8slZOiTfW6mMwALrVRnQEGxul4cipyCkwdKSpm6NNiq9K5eXmEc1BSMN/IW1SwtGG7vXwPoyN9VBv5DTkrtbQrFqaQ1CpDSH/lfhhS59o55IUfWTP2Ni9LqLC2TOi0agZyFm1vqzWSGm92zJeSjxQ+i7Vb6FwJre+t/VphIiXvBdi+1YtsH6uvPeYzQICISwtTYdJcxdj4gz2dmVivkaDoOyeyJNDzxy2l26lIiaGfXt30Grx7Hg8svqzi5BJUjsJ+U2sOWAOcg2ehOU3eUg06AO8CGFdBO+ePYKCeXKZqiU4/TXadMOpM2dNv+XI7o8FY8JQs3QoG5DJKBywWgOenWZujEw20hPyXZDHoEFiiifexAYwdHEpOcWACm1TkZKSipLFMmDlpGQQm0Oh3YGQX6TeHuP0uHSVfSpZOXcWurYSHX5SM+EL/Pbr7AWYMN26W5ew2Wa/LUBgaR5Yg3pCk+iALSuYooj5eHvj/QM2lDBNmrFoFUb+Sm+V33rSfASUqmpxQCvRm54Yj4UkGp9R8CBvk26C904lWqU2E6WDQKlO7rsU7eLNwRZtibjetA8E8KW6Cbeg459r4Z2/xEc90wjpstY/pfGgKavEcyn+kTK6D++xtH0NBgOApPYzV8CXQktFSzNNPpo8Yh4IDyS57VT8u7gdO70OC5qUNo11CyMKpfj5SKp+OX4K557cQSXXF9o1IMyndHDLtZWWlIjFzXhtZKelu+H1ESBT1sZFzAsa4VlpLsitfynhTzhG0U/uYt2gtqY9jRgf3z17DPlzWQnsRWuDIGYCuSFf/OcOfhw7CVeuKhsw5cjmgWeHbsNOY3xbkOKcxK5mtOcDsT2ITfBhyNBAjxJNk5GSytYVdvsyMmcwGggCEKuh8+X1wq0tN6Hh2pYQDizxDTjBwHwqEnrik3zw9oO5UUe63g5dR2lw/XYMA0pzap0n/L2FOPvCpcIv7YgoR9ToxD7BZMqcGeE3eKHmYxbLx5ap06EXDgu0Qkr19N18ClovnudSi0RqUyGTdL3RGIx8z50rCE/OH1VqjvlO5lz5Ju1x6fJlqvyOTs7oRQyuKKzvxRtOTOhLrBVE4+u2eCfcc+RVfJNWWtw0G6O1Omyt/2M20ncP/sGmwbyXSIdJ8+BbikXLVNrwxO1xZcSbOJfvYwQZdg9gkzV65IQT8e8hJ/dh97SfTaR3mLUKPoVKSc4x8YEnPKRp+yJVRjyutv7NEUtTt7BjZ2eNwj9H9pp+ajFlMTKXrMj8TXvw0rRJM29p8lAtfMpMt9b9hdPrlphy9ydBrohdh0KSo5NWQKWpXzy35ea8Ul1mYz17DP75e5fpp4CMGRBxSxDPSKKyj9IgCOshxovrd+3HwlXrcdmKoNC0jht2zr5tuaqt7BSMMsGgYSCRo+NYS2ySJi1xx8ZdEcy/a9eqgQOrF5kh8D15+Rp5y1Y15V8wXoeezV4xf/OaaKGngkgYYJ4UyHDz2wFbToPo+IyISeAiXrFTgpiBrdjljN+XsHEVZo7yRYPKOpNNAqulkJKrDfiQYI/yrfhnhqRXX99QMSklFdmDq+AdpYtOQNYcaLVkLwjAhpTq3NpCf3hwK47M4QM09ejUHstm0mkEYuMTkLFgKTMoU2sLJCBnbrRaxPo3ixeY3OHB5Q29eAw7f+WNeWr3/QnfiXDPP3ZDE26o4o1AqU6pg1bu+UJuw5LafIQ8erB/I47MnWziW4WmbRHcd4zVJwYluq2N0+f49intn57xE24dP2gio8GIKQiq3ths3tgiGEnNN6n5p2TPIMUXqX5KzScawUWf8AFL2lY1Q7isO2Iq8lSnjwljje80NHyOsRfy29otWthWamwUlrb93mRYny1fITT9c5NkpNJPmVty4640ttb2iI/hGfHSWfdDOxgE4HJ/TJ6IIT06WK3ukwUEYe1v30dj6YZtiHjDvsEvW7vJhL++cKId+rZ8Im0WLKM5SDfYIywqB+KTPEwHbEiEA+p2Zw9UckA9OHcU3wWZ465Hf4iHX77ipsH/ua8LJvblEBcJ64XGiOaCACyEA9YYkbg+vonNjMQUV0Yg4BY3scbectgJE+ewrpwNa/pj+lDyrCKcqvKy+LsYR1Rtz4etTgt99NXBkq7fe4jg6vQuOqUbtUbZAeOojemEc+T07DG4JZBizx/ajfLF6QCS/rn3ECVsoLPQ93VRTRDtTLyRWFv4l/8ah8sHWFQ9kjJkyow2K/5mtEPi9LGbJO0NTW4zIb/LvdJxG5N4w6S5/ZycPBh3zvBaHU9ff3TZIIhV8jE7lJVbP9cPmo1YfOhIHULiepTybOrdGO9e8d47pZq0Rbl+Y6h6yV8hpLc2OYFOWDkNveLxFM5lW/jHlSNoqSQIWeQrc1TckvWaocKPrMCuRLvcWND0TemApGK+IJMtwohBl4aDv/TEs1v802b9gaOQq6HCYWkDaJat9NuSX2mdiL+T4GHbB7dDxFPWpoikrIGBeHn1FOyMwFpy7X9WAUHYyMnLN1C9SSvmkCaGaA8OxSJP4BsqA0WyqSWluCL0XQ6kGVEZSd2pOg0a99ci5DUrIEyfMBYjJMID6/UGlCcumUaNRo7sLni8567RXoBSODCCIpD/6NKdEB6d1Wj/wG/J8Yn2mL5cix0H2QO+VDFPrJmabukKKVhuHIoix6vjV9wxaDxrJJM1azaEXD1py1z5LHnnrd6IQSPpNkTSYIMRUxFkwy3DtCkZgG29GyAyhA0+4+bmhrgn5OlHuM3Kd2n9rgPo2JceyKlW/5+Rr3FH2wWZ9HSsJ0Zrxqh+HEVdVx6Ee2bLADZyG7y4J3KbGNd7ORX1pwgS4s2a/G31NqxLw9rONRH7ng1cQ5KdnT26rzoAl4yB1N5qn/sGZI13tKp9MS+YcgYDVrSqgEQjQBL5ycs/IzquPCQZz4Grg/ZAEo+t0ub+MQva5jr16biybCYu7Vhn0Zyzqyu6rz8BOxc30zel+qW+y/WbRpi2xgOltaJUlpxHNzcswJm15uHPuy3ZBbfs9MBYpB0lvsjlsbaeP6V/4rnJtX9y5kjcPrafX8/29ti2cjGa1TaPVCrFuy8mIFRv3QUnTrPv6cHFvHB14w1F4YAcxik6ZyaY0mkC8n8AABkoSURBVIdE1qqd8eJmjNQN+Pu8K4ZOYtX4fhky4PXV03B2ssSPJt9XbduNbgOHMnkdHOzw9kw4XJz4IFNmngrGgEwpaW5ISvGAixMRQOyNbozOiIrLYHya4If2daQdeowBXoeyQEeuLg5Y9KsGHp4eCPDXwsstkbGV4BL7EMEmbkMLiXRD84ExSExgPR0G9+mJ2RNGfcwe8UllbA0z2nH+VnjnLiC5gVhbNLrot1jaqRYIgA9JuYNy4skFHvJTqRPdh4/BynUblbKx80ajQbclO+EqQsOjWdRMRDoBkBPXYI4CRdBg5hrYaXmsClsOCqX3clsPOmtt0/RTKk9S2Ass725uxU767+3njw5rjpmCNX1M/XIHCY3hFjcGNO1amyDiNZj+JhQLO/OY9lzZaj0Go1CrnsY9yHzdivkuRxMtrXL1icvT1ifsv7huojm4s3UZTq2aK8umat1/QKHWbPwRqbqoFqAxEw3NNP3kxk24fzLrXOFWb/Zdn44He9bj6CJLq/1eW8/CyYN7OrbsobWD29q8lion/k2pD7bwW8gTjV6PCwsn4+rezWZVNG/UANuX/kVV7RcREBKSUhBQuDQSjCha88YlYUCbcHPLItGuwNkGvHobxHgICEGXSE/ik7Qo3+qDCfb23MFdqFDCPCSnsMeRUdHIUbIiUowIWU3rB2LT5AvGqAwCNbHRtoBAOIdG5UKqThqoiI/nAFy87Yzeo6OQrpNBgjOC05DIjMRSlPyXAawhso5xdqSn65GSmm7mnvf0ymnkyhZINXCfKxPhc8Hv6+PBQz6GubW6CUBLr02nmRuGtY2Rq0M4zBGXT2DbOF4D0KB2LexbQxfBjNAZWLIKwsMFXjBWCPXw9kW3DSegF0SkozmASZ8ibl/B1p+6SdZeqV1PFOs4EBp77ScNgdyGJ970hDym2UiliJISJOTqenlqP/bKhKQu27AFSvUbJxvRUW4TtbYBWusfDYOl+mbt4BDTeGv9PJxeazkHSbjnzot2wC0wyKqdjdIaoJlz1sZMjgdyh5L4ABWW1yUn4vrS6bi83zwKoIUgYGeHDrPXwjtfMcUh+JjD7WPK2MIHLq+wnfTkRFxbNRuXd1leMNy9vNGVgKnZaxWNkKXqFv5mqwCjxGA54VFMh3gd6RLj8ffEH/DsH3OD7vzffYfbJ/ZRP2N/EQFh6cbt6D2Ej9R3Z18MCgW953khIxyQEyc8KitiEniDRGaxazQ4fskRA39l1Z5arQOSXt5V7OSMRSsx8tdJpnZfHn2DAD8BLoEJA0GDuERvvP1ghLE0wSHzLoqEBl06MH+TCxav42PTu7i4MEILJ4goDbjUdyJETBo7GqP6sdHIvmYS22sotR1UNBgNZqxmslmbvFIb/41Vs3Fu03JTE4tmz0Cfdi2UmmS+vwgNR1BwJT6vAtRw3tIVUHviEinwMbP2pDaruwKAJCniClWoiirDpkHr5mEV34CqYxKZbL2tWGtHaYMRl72yZJqk6pnLF1SoGGqPnw9HT2+rm6ncwS8UjMSbqXjTU5pjQto/VtDY0Kcx3r+URg8loaM7LtgKlyw5rQ6ltb5KmSZzlVkTHqwJg0oClwVf9XrEPrmDzSN7IDWJoLoqJ4Lg1/GP1fDMV1xxvUgJu3JCKUebLUKCnDBEI3yRIGlxLx9j5y+9zJ7NhJ0qU7M+ygyfYZMbrzXBkMb41JpgKx4/ubySo2gwIP7lY2wc0gEporHOnCkT7pw6BF8vYtNHl76IgNBp8Cis28RD517d/h7B+VnUQ3Hi3Bi5b+HvsyI2wY/xAODxA4BLtzTo/jOLF5AxYwAibp5TfLsmyI+ZipYzMSpP7gCcXfUS3u5vSWxoU4CP+CRvvInNxNQt1BSYNiwiHOj06DLKDjfu8OF6c+TIgZvH9sJBa4/Fm/dg/dYdeHD3LkM7g6oo6K+UGtXezg6169bFmt8nws3VhW7EPnOuHYeOoUVXS3WiXDPfE9Vrc8vbtbUNjavr8Li+eGxEqyNC0etbl5DZ31wYlGt3//HTaNhe+lYvVYZBw+v0g9U3c+mFZ8D+n7vjxW0eUlyqfkJ/6XpNULLbcBgcXWBvT4C22K2SxnBQKATQCATiQ0iqHXb+sknJOFFug9szrCNCHhi9jWQGg6zLkjUbILjnT7BzcWdsjLiWaQ42qf5KHTKm9SfTHyF53KZsjS+mPEZcLdLmig7VkBgjuLyI+6zRoES1Oij14yQ4ORGUU7GI85kXpBX3QlsPVQJxnBLyBLsn/ogoSmhycW+KVqmB8sOmw8HRSRHWWYk+mj1CiptK9QrLcHn1ujTowl9i14Qf8MYYFE5upFr/Ng8BpXk3Xho6hXuH3Jz71JmhRIdwHaWnpiI95BHWjOjBxNQQJxKx8d7JAzYD8X0RAWHczLn4bRYPpVumhC8urbsqCYDE7Wb8E0NuJKYQ9TW32bKCwpnrWvQZzbsD6sOfKAoIpO6L/9xC+brNTPxaMjULKhWPg4N9Kuw0BqTqHI0xGCyHkxNQ0nTA953TEBPD2zDUr10Tu1cukNRiEHW46ZCw/AfbkPEZgtZA71Mnm1z5H8ZOwtylPPSmUjv2Wi0IHvrHJIJHzz0dZcmSGaHX6TEfxv+xABNn0AM5kRsQMa6jSqKVKKRTsTzzdESekuz5+Sin3aDd6WjzfepuKlGewc23IRFPIiIsfeycUGzqU3ihWDnYOAEUiYwxwcT3zZIVrl4+8PAwR/6UEwrFgqCU4CY8YDiIeqHAw32XOjA40rl6ExMTkBQXi/fhYUiJ/wB9OsFi+bRE+u7o7AqfLFng7OkDL08vq0Iws70Zm1TSkojpFx+84u9c3VKamcSkRCTGxSI6PBTJcfR977XtPJzcpZFc5YRZZnzSdTg6ZYjMHGJL2mvJxUGczMV9snbIM7Swr+xfbD7Slh3JY3yf5vqelJiAhNgYREeEIiU+zixCsbDFGtW+x/7Vi+D0EXF+voiAEBuXgMxFyyJJoOLw9bbDn2O80KneNTbokXCEjZftdx8CEBUXYLzdm0+tzX+7YeIcVrWfPUcOvLh4jEpAIKiKxWo1xd27rJujVmuHE2vd4efFsZ61DWCD5xCtgnm76w5mxMyFzxkNApfGjRyGcT/2NcNe+LQl+O+Vrtq8PU6fZ2GPv2aqXKEcTu9YT91kpeYdce48i5X/P5++8KH2P99/lUCVA98QB/rtuQZ7oiFRSOJlnfrqEZb0bq5U7N/7rtFg45J5aFW/NqPh/Jj0RQQEQsjKbXvRY9AQ8wiPGoAEdyqYR4M2TbKgYbmnMGgcGffDdL0W6Xr2xid8WmD/BnpPdMHZCyziYIfWrbDur2nU/Y2KiYV/vpImsbZkUX+snpICeztLgUBYacR7T9TqHAbiNkmSvYMD9qxdjnpVK1AJJ9QE/osZ/QuVQVQU79L2tUj5efAgTP15MFVzH+ITkaV4eSTEs9Da/6lEEbb5P9VftTP/Ggfq162LEf26o3n3fnj/L6z5f63jVhp2dHJE713X2DNHIp+cmp/8fnPVbJwW2FT9L/Vv6KABGNW/B/x9lMN2W6P7iwkIpNFL/9xGhwFD8VQmhLCDgz0yB7gysRuqls+MplXC4aAlOAIk3CZ/eD94rkWbH+OYkNEkXTi8D+WK8m52NAOz7eBxtO7e2ySw9GyXEUM6JRrVOJZXvrQ0Ayp3SENcPGvU6OXtjVvH9yN7FtZW4b+Q7j5+jiJVall4jHyNvp3dvxMVg4tSNXXxn9soX/ffiVFBRaAwk3rg28wytcCX40D27Dnwy+ABqFO1InJkCWAOQoKceuD4KXQZOMzkafblKPjfrrlUozYoN2CsiUhblH9b+jTBm5dP/2c66OLqhjmTf0W96pWRNSDDZ6HriwoIhEICxXz60lVs3nMAKzdugS5V/s2PvGU6OdshwN8NPl6sFUL42zREvk2CPp1V8RNDobintxnDQFtTh0EjsGEr6+JD9vEebf0wuFOaKYojV1+azg69xutx5QZrFEnSoc1rUadqBVub/J/O//RlCE5afV6gscdluGnsJ41dMYngqEW7pg2p38SevHiFUxe+/jPI//Tg/dvE0Q31v03l/6/2NYC9nT0cHR2QPVs2FMybG14ebrJPocTV+tbDJ/jn1m1cvHUPx0+fQ3hkhBkcL2MjZXz7Zly1jZung4MDHB0coNVqmf85ODpCa6+FvdYejloHEFslrdYeDloHxk5L66CFozEvye/oYCzH/NuBCeZH9nTm3w6kDi2zP7g4OoBEC2abJe2zNj8MPI7xb+7f5McDJ89h5x4+toTSBOi1ch+cMtN7qXC7HTmNVraphMTYGFMTufPkZf7N2KAx/9MzT+l6PXuxJd5u3H8ZrbTBAD2Tx8B+Y/5myzFKa4kItdyO7Ovri4L586N6uWBkCciI0iWKIShbFkXPPiV+iL9/cQFB2GBKahou3LiFS9duYNuBI7h6jdgj2LDTaDQYO2IoJg7pb2s/mfzEHqFI9Ya4/4CHnCxT3B39OvoiOF8MUtO1OHXNDSu2xOHuQ37gK1eqiOObV3525n9UJ9RCKgdUDqgc+EIcYA4r457MGcox8gEnHHyhdj9XtZWadcS5C3S2SuTJuP/uqzDQGjMLPEzs0nWY1zjYZAQaEBCA8Jvnv4KPy+fiFF09X1VAEJJExIKExCScuHgN5y5exIUbd3Dx0iXZQDzePj4YM2QghvX+NKwAEvCnTL0WePT4sYkcxkJZS+ItsBoPYQrInBn3TuyHr/enveXQDYeaS+WAygGVAyoHPpYD3nlLIDaOd0W3Vo+Tmzt6bb8oGxmUlJXzTgm/cBTbJ/A2VO1aNMWG+fReVh/bv69d7l8TEMQdJZJrWno6wt9E4VV4JO48eIS4+Dj4evugVLHCKJg7J6OW+hwpPjEJrfsMxsEj8mGGidDQplljLJ7xGzzdeVzyz9G+WofKAZUDKgdUDnxeDujS9XALKkQd7TV30WDUN4K+SQkD5Deh26XQRfXo+H64f+mMqQNLZk1Drw6tPm+H/gdq+58REP4NXpDgP3OWrsTte/eRnJTEvJtl8PdH1QplMXHEUHyXM+u/QZbapsoBlQMqB1QO2MiBO09eomjlGtRG102HjkfW2uyhTmtFxQkMK9tVQUI0D7B14cAOlCupDE1tY5f+9ez/rwUEjvsJSclISEqCg70WXp7uiiEw//VRUwlQOaByQOWAygEzDoyYNgcz/6QLQkSA1HqvPwqtN2vtb817QfyNGBAubVISaUaDe2IY+ub+NZsgjL+VoVMFhG9lpFQ6VQ6oHFA5oHJAkgPkiTpH2RoIecWGkldKLu4e6L71gilWi5J7o/B7+ttQLOpc16SpKFa0KK4f2s4giv7Xkiog/NdGVO2PygGVAyoH/p9xICU1Fc7ZClCHyvAJzI4Oyw6wKLpWNAhSgsOLncuwbzEfSmDE4B8w/ecf/5McVwWE/+Swqp1SOaByQOXA/x8OvI+OhV+BktQdLl67MSoNnWKRXw450ZTRYMCOfk0Q9oKPALpn/Uo0qlGFuu1vKaMqIHxLo6XSqnJA5YDKAZUDFhw4fvEaajRtTc2ZNjOWI0PRskx+cYAocUAtYR59WhoWNCrBt2MAHl48ge+CslO3/S1lVAWEb2m0VFpVDqgcUDmgcsCCAx1/GIn1W7ZRcYaEru6z6xI0dqzbvBxUn9TzQnpcNBa2qmxqh+DzvL5+Fm4uzlRtf2uZVAHhWxsxlV6VAyoHVA6oHDBxgCDken1XgjqYm3emQHRc9bcZB5WMFLnMsbcuYu2Inqay9erWwYFVC/6zo6EKCP/ZoVU7pnJA5YDKgf8+B6JjP8A3n0Dtr9DlHMXLoNG0FRYCAqdNsGaHcG7mCNw4dsBUdsGsaej3HwRI4jqoCgj//fWj9lDlgMoBlQP/WQ48D3mNXKWrUvfv+17DULB5NxiMjwts5GCKlK7DypblkZycZMr8z4mDKFbgO4rC32YWVUD4NsdNpVrlgMoBlQMqBwAs27QTvQYPp+aF1skJdvYfA9tvQGpioqkdjb0dIm9fQQZfb+q2v7WMqoDwrY2YSq/KAZUDKgdUDpg4UKNdTxw/ceKrcyRzYCBeXzn5nwRIUp8Yvvp0UhtUOaByQOWAyoHPyYHE5BQEFC6L+Pi4z1ktVV0DevfAvIm/UOX9VjOpGoRvdeRUulUOqBxQOfD/nAPhb6NQuWm7f4ULq//6HRWDi/4rbX+tRlUB4WtxWm1H5YDKAZUDKgdUDnxDHFAFhG9osFRSVQ6oHFA5oHJA5cDX4oAqIHwtTqvtqBxQOaByQOWAyoFviAOqgPANDZZKqsoBlQMqB1QOqBz4WhxQBYSvxWm1HZUDKgdUDqgcUDnwDXFAFRC+ocFSSVU5oHJA5YDKAZUDX4sDqoDwtTittqNyQOWAygGVAyoHviEOqALCNzRYKqkqB1QOqBxQOaBy4GtxQBUQvhan1XZUDqgcUDmgckDlwDfEAVVA+IYGSyVV5YDKAZUDKgdUDnwtDqgCwtfitNqOygGVAyoHVA6oHPiGOKAKCN/QYKmkqhxQOaByQOWAyoGvxQFVQPhanFbbUTmgckDlgMoBlQPfEAdUAeEbGiyVVJUDKgdUDqgcUDnwtTigCghfi9NqOyoHVA6oHFA5oHLgG+KAKiB8Q4OlkqpyQOWAygGVAyoHvhYHVAHha3FabUflgMoBlQMqB1QOfEMcUAWE/2u3DkoAAAAQiPVvbYsDYQmU+fFoLFUJECBAgEAl4CBU0nIIECBAgMCRgINwNJaqBAgQIECgEnAQKmk5BAgQIEDgSMBBOBpLVQIECBAgUAk4CJW0HAIECBAgcCTgIByNpSoBAgQIEKgEHIRKWg4BAgQIEDgScBCOxlKVAAECBAhUAg5CJS2HAAECBAgcCTgIR2OpSoAAAQIEKgEHoZKWQ4AAAQIEjgQchKOxVCVAgAABApWAg1BJyyFAgAABAkcCDsLRWKoSIECAAIFKwEGopOUQIECAAIEjAQfhaCxVCRAgQIBAJeAgVNJyCBAgQIDAkYCDcDSWqgQIECBAoBJwECppOQQIECBA4EjAQTgaS1UCBAgQIFAJOAiVtBwCBAgQIHAk4CAcjaUqAQIECBCoBByESloOAQIECBA4EnAQjsZSlQABAgQIVAIOQiUthwABAgQIHAk4CEdjqUqAAAECBCoBB6GSlkOAAAECBI4EHISjsVQlQIAAAQKVgINQScshQIAAAQJHAg7C0ViqEiBAgACBSsBBqKTlECBAgACBIwEH4WgsVQkQIECAQCXgIFTScggQIECAwJGAg3A0lqoECBAgQKAScBAqaTkECBAgQOBIwEE4GktVAgQIECBQCTgIlbQcAgQIECBwJOAgHI2lKgECBAgQqAQchEpaDgECBAgQOBJwEI7GUpUAAQIECFQCDkIlLYcAAQIECBwJOAhHY6lKgAABAgQqAQehkpZDgAABAgSOBByEo7FUJUCAAAEClYCDUEnLIUCAAAECRwIOwtFYqhIgQIAAgUrAQaik5RAgQIAAgSMBB+FoLFUJECBAgEAl4CBU0nIIECBAgMCRgINwNJaqBAgQIECgEnAQKmk5BAgQIEDgSMBBOBpLVQIECBAgUAk4CJW0HAIECBAgcCTgIByNpSoBAgQIEKgEHIRKWg4BAgQIEDgScBCOxlKVAAECBAhUAg5CJS2HAAECBAgcCTgIR2OpSoAAAQIEKgEHoZKWQ4AAAQIEjgQchKOxVCVAgAABApWAg1BJyyFAgAABAkcCDsLRWKoSIECAAIFKwEGopOUQIECAAIEjAQfhaCxVCRAgQIBAJeAgVNJyCBAgQIDAkYCDcDSWqgQIECBAoBJwECppOQQIECBA4EjAQTgaS1UCBAgQIFAJOAiVtBwCBAgQIHAk4CAcjaUqAQIECBCoBByESloOAQIECBA4EnAQjsZSlQABAgQIVAIOQiUthwABAgQIHAk4CEdjqUqAAAECBCoBB6GSlkOAAAECBI4EHISjsVQlQIAAAQKVgINQScshQIAAAQJHAg7C0ViqEiBAgACBSsBBqKTlECBAgACBIwEH4WgsVQkQIECAQCXgIFTScggQIECAwJGAg3A0lqoECBAgQKAScBAqaTkECBAgQOBIwEE4GktVAgQIECBQCTgIlbQcAgQIECBwJOAgHI2lKgECBAgQqAQchEpaDgECBAgQOBJwEI7GUpUAAQIECFQCDkIlLYcAAQIECBwJOAhHY6lKgAABAgQqAQehkpZDgAABAgSOBByEo7FUJUCAAAEClYCDUEnLIUCAAAECRwIOwtFYqhIgQIAAgUrAQaik5RAgQIAAgSMBB+FoLFUJECBAgEAl4CBU0nIIECBAgMCRgINwNJaqBAgQIECgEnAQKmk5BAgQIEDgSMBBOBpLVQIECBAgUAk4CJW0HAIECBAgcCTgIByNpSoBAgQIEKgEHIRKWg4BAgQIEDgScBCOxlKVAAECBAhUAg5CJS2HAAECBAgcCTgIR2OpSoAAAQIEKgEHoZKWQ4AAAQIEjgQchKOxVCVAgAABApWAg1BJyyFAgAABAkcCDsLRWKoSIECAAIFKwEGopOUQIECAAIEjAQfhaCxVCRAgQIBAJTBaA/KXMGjSGAAAAABJRU5ErkJggg==;" parent="1" vertex="1">
          <mxGeometry x="120" y="366" width="162.93" height="120" as="geometry" />
        </mxCell>
        <mxCell id="lMRZlrQa5z_mroCtVpvL-4" value="" style="endArrow=classic;html=1;rounded=0;" parent="1" source="lMRZlrQa5z_mroCtVpvL-3" target="lMRZlrQa5z_mroCtVpvL-1" edge="1">
          <mxGeometry width="50" height="50" relative="1" as="geometry">
            <mxPoint x="440" y="540" as="sourcePoint" />
            <mxPoint x="490" y="490" as="targetPoint" />
          </mxGeometry>
        </mxCell>
        <mxCell id="lMRZlrQa5z_mroCtVpvL-7" value="1.Reading data from hadoop" style="edgeLabel;html=1;align=center;verticalAlign=middle;resizable=0;points=[];" parent="lMRZlrQa5z_mroCtVpvL-4" vertex="1" connectable="0">
          <mxGeometry x="0.0952" y="-1" relative="1" as="geometry">
            <mxPoint x="-8" y="-34" as="offset" />
          </mxGeometry>
        </mxCell>
        <mxCell id="lMRZlrQa5z_mroCtVpvL-6" value="" style="endArrow=classic;html=1;rounded=0;" parent="1" source="lMRZlrQa5z_mroCtVpvL-1" target="lMRZlrQa5z_mroCtVpvL-2" edge="1">
          <mxGeometry width="50" height="50" relative="1" as="geometry">
            <mxPoint x="440" y="540" as="sourcePoint" />
            <mxPoint x="490" y="490" as="targetPoint" />
          </mxGeometry>
        </mxCell>
        <mxCell id="lMRZlrQa5z_mroCtVpvL-9" value="3. Dumping data in Hive metastore&amp;nbsp;" style="edgeLabel;html=1;align=center;verticalAlign=middle;resizable=0;points=[];" parent="lMRZlrQa5z_mroCtVpvL-6" vertex="1" connectable="0">
          <mxGeometry x="0.0185" y="1" relative="1" as="geometry">
            <mxPoint x="97" y="-3" as="offset" />
          </mxGeometry>
        </mxCell>
        <mxCell id="lMRZlrQa5z_mroCtVpvL-8" value="2.Processing data in SPARK" style="text;html=1;strokeColor=none;fillColor=none;align=center;verticalAlign=middle;whiteSpace=wrap;rounded=0;" parent="1" vertex="1">
          <mxGeometry x="589.03" y="399" width="130" height="30" as="geometry" />
        </mxCell>
      </root>
    </mxGraphModel>
  </diagram>
</mxfile>
